<svg width="37" height="40" viewBox="0 0 37 40" fill="none" xmlns="http://www.w3.org/2000/svg">
<path fill-rule="evenodd" clip-rule="evenodd" d="M33.621 39.978H2.36499C2.30698 39.923 2.259 39.841 2.19 39.817C0.361999 39.172 0 38.6739 0 36.781C0 27.4236 0 18.066 0 8.70801C0 6.14899 1.267 4.89795 3.85999 4.89398C5.54498 4.89398 7.23297 4.84595 8.91599 4.91296C9.69199 4.94397 9.952 4.73199 9.853 3.96204C9.67899 2.60602 9.883 1.38403 11.27 0.690002H12.492C13.5903 1.15515 14.2251 2.31396 14.026 3.48999C14.006 3.72095 14.047 3.95801 14.015 4.19C13.935 4.75403 14.144 4.92102 14.72 4.91296C16.926 4.87903 19.134 4.85303 21.338 4.922C22.238 4.95001 22.575 4.72198 22.448 3.80499C22.0999 2.51819 22.776 1.17566 24.017 0.688965H25.065C25.899 0.989014 26.4989 1.72546 26.624 2.60303C26.6685 3.09558 26.6684 3.59131 26.624 4.08398C26.56 4.71301 26.736 4.93298 27.417 4.91199C29.161 4.85699 30.907 4.87195 32.652 4.89795C35.171 4.93597 36.433 6.21899 36.433 8.70496C36.433 18.0997 36.433 27.4946 36.433 36.89C36.5396 38.3772 35.4316 39.6741 33.946 39.801C33.816 39.8249 33.643 39.765 33.621 39.978ZM18.1635 16.137C23.0795 16.137 27.9965 16.131 32.9125 16.146C33.4335 16.146 33.6815 16.084 33.6705 15.454C33.6295 13.069 33.6415 10.683 33.6705 8.29797C33.6755 7.79797 33.5245 7.66602 33.0354 7.67505C31.4354 7.70502 29.8354 7.68701 28.2355 7.68506C26.7355 7.68506 26.7355 7.68506 26.6445 9.16699C26.6044 10.2966 25.6737 11.1897 24.5434 11.183C23.9867 11.1913 23.4499 10.976 23.0533 10.5851C22.6567 10.1943 22.4334 9.66077 22.4335 9.104C22.4177 8.92993 22.4197 8.75464 22.4395 8.58093C22.5565 7.88098 22.3395 7.64099 21.5755 7.66394C19.5415 7.72498 17.5035 7.68597 15.4675 7.68494C14.1125 7.68494 14.1155 7.68494 14.0175 9.04895C13.9994 9.25177 13.9633 9.45258 13.9095 9.64893C13.6482 10.6768 12.6484 11.3376 11.6004 11.175C10.6106 11.053 9.86195 10.2202 9.8455 9.22302C9.82362 8.90369 9.82362 8.58331 9.84544 8.26404C9.89247 7.80493 9.71947 7.67102 9.26347 7.677C7.31447 7.69995 5.36348 7.70898 3.41646 7.677C2.86345 7.66699 2.73546 7.83899 2.74245 8.36798C2.77245 10.549 2.75844 12.731 2.75844 14.912C2.75844 16.139 2.75844 16.139 4.02043 16.139L18.1635 16.137ZM14.909 27.137C14.922 27.111 14.928 27.073 14.948 27.062C15.077 26.996 15.207 26.931 15.34 26.875C16.7638 26.3854 17.6984 25.0204 17.64 23.516C17.6759 22.0115 16.7419 20.6541 15.3239 20.15C13.4926 19.4589 11.4785 19.4236 9.62399 20.0499C7.70798 20.577 7.71198 20.588 8.25098 22.426C8.2836 22.5369 8.30933 22.6498 8.32797 22.764C8.41998 23.326 8.63696 23.37 9.16797 23.1329C10.3253 22.4991 11.6852 22.3451 12.955 22.704C13.5683 22.8641 14.006 23.4048 14.035 24.038C14.0751 24.6669 13.7179 25.2537 13.1409 25.507C12.6938 25.7092 12.2182 25.8417 11.7309 25.9C11.0889 26.017 10.1839 25.6 9.86093 26.147C9.55292 26.666 9.79694 27.501 9.76093 28.195C9.73593 28.653 9.89493 28.795 10.3559 28.795C11.1955 28.7209 12.0415 28.7793 12.8629 28.968C13.8205 29.1307 14.5012 29.9895 14.4409 30.959C14.4059 31.846 13.8409 32.414 12.7709 32.666C11.3641 32.9128 9.9155 32.7205 8.62192 32.1151C8.42191 32.041 8.12192 31.75 8.02792 32.006C7.75418 32.8226 7.52911 33.6548 7.35391 34.498C7.31293 34.677 7.57391 34.754 7.72592 34.815C10.2868 35.9991 13.2415 35.9838 15.7899 34.773C17.3957 34.0251 18.3419 32.3326 18.1379 30.573C17.901 28.698 16.943 27.679 14.909 27.139V27.137ZM24.541 23.137V24.084C24.541 26.818 24.527 29.552 24.549 32.284C24.557 33.202 24.144 34.465 24.721 34.944C25.277 35.405 26.494 35.044 27.421 35.093C27.907 35.118 28.056 34.978 28.054 34.474C28.0347 29.7333 28.0347 24.9927 28.054 20.252C28.054 19.688 27.859 19.621 27.354 19.581C25.8458 19.4341 24.332 19.7967 23.054 20.611C22.397 21.025 21.333 21.111 21.076 21.742C20.829 22.347 21.287 23.228 21.394 23.994C21.458 24.453 21.62 24.518 22.022 24.316C22.817 23.919 23.6301 23.561 24.543 23.136L24.541 23.137Z" fill="#345FB4"/>
</svg>
