<svg width="39" height="39" viewBox="0 0 39 39" fill="none" xmlns="http://www.w3.org/2000/svg">
<path fill-rule="evenodd" clip-rule="evenodd" d="M6.81726 9.06116C5.00163 9.06116 3.36478 7.96741 2.66996 6.28998C1.97515 4.61255 2.35921 2.68176 3.64305 1.39795C4.9269 0.114075 6.8577 -0.269958 8.53512 0.424805C10.2125 1.11963 11.3063 2.75647 11.3063 4.57214C11.304 7.05054 9.29544 9.05896 6.81715 9.06116H6.81726Z" fill="#345FB4"/>
<path fill-rule="evenodd" clip-rule="evenodd" d="M31.656 31.6562C29.1768 31.6562 27.167 29.6464 27.167 27.1672C27.167 24.688 29.1768 22.6782 31.656 22.6782C34.1352 22.6782 36.145 24.688 36.145 27.1672C36.1427 29.6456 34.1342 31.6541 31.6559 31.6562H31.656Z" fill="#345FB4"/>
<path fill-rule="evenodd" clip-rule="evenodd" d="M23.97 27.212C21.8146 26.4937 19.987 25.0286 18.817 23.0811C17.0082 20.0366 13.7242 18.176 10.183 18.189C4.60493 18.189 0.0830078 22.7109 0.0830078 28.2891C0.0830078 33.8671 4.60493 38.389 10.183 38.389C13.7185 38.4022 16.9982 36.5476 18.809 33.511C19.9926 31.5507 21.8363 30.0765 24.009 29.353C24.4643 29.1957 24.7668 28.7636 24.759 28.282C24.7516 27.7944 24.4367 27.3649 23.974 27.2111L23.97 27.212ZM10.1825 33.9009C9.56289 33.9009 9.06055 33.3986 9.06055 32.779C9.06054 32.1593 9.56288 31.657 10.1825 31.657C10.8022 31.6569 11.3045 32.1593 11.3045 32.779C11.3045 33.3986 10.8022 33.9009 10.1825 33.9009H10.1825ZM11.3194 29.2161C11.3232 29.8566 10.8294 30.3903 10.1904 30.4361C9.9027 30.4587 9.61837 30.3617 9.4045 30.1679C9.19062 29.9741 9.06615 29.7007 9.06043 29.4121C9.00516 28.3981 9.61154 27.4647 10.5604 27.1031C11.098 26.9115 11.4064 26.3472 11.2773 25.7913C11.1482 25.2353 10.6227 24.8646 10.0557 24.9296C9.48866 24.9945 9.06052 25.4744 9.06043 26.0451C9.06043 26.665 8.55787 27.1676 7.93793 27.1676C7.31799 27.1676 6.81543 26.665 6.81543 26.0451C6.81543 24.3347 8.09836 22.8958 9.79797 22.7005C11.4976 22.5051 13.0735 23.6154 13.4616 25.2816C13.8498 26.9477 12.9267 28.6401 11.3158 29.216L11.3194 29.2161Z" fill="#345FB4"/>
<path fill-rule="evenodd" clip-rule="evenodd" d="M12.428 15.795H1.20501C0.907261 15.795 0.621723 15.6767 0.411282 15.4661C0.200836 15.2554 0.0827408 14.9698 0.0830078 14.6721C0.0870094 11.5745 2.597 9.06476 5.69427 9.06104H7.93901C11.0363 9.06488 13.5461 11.5748 13.55 14.672C13.5503 14.9698 13.4322 15.2554 13.2217 15.4661C13.0113 15.6767 12.7258 15.795 12.428 15.795H12.428Z" fill="#345FB4"/>
<path fill-rule="evenodd" clip-rule="evenodd" d="M37.2669 38.3903H26.0439C25.7462 38.3903 25.4606 38.2719 25.2502 38.0613C25.0397 37.8506 24.9216 37.5649 24.9219 37.2672C24.9257 34.17 27.4356 31.6601 30.5328 31.6562H32.7779C35.8752 31.6601 38.385 34.1699 38.3889 37.2672C38.3892 37.5649 38.2711 37.8506 38.0606 38.0613C37.8502 38.2719 37.5646 38.3903 37.2669 38.3903Z" fill="#345FB4"/>
<path fill-rule="evenodd" clip-rule="evenodd" d="M28.2888 0.0830078C23.5478 0.0830078 21.4698 1.95502 19.6548 4.974C18.595 6.83704 16.883 8.2417 14.8488 8.91699C14.3543 9.00861 13.9401 9.34485 13.7488 9.81C13.5528 10.4063 13.8748 11.049 14.4698 11.249C16.6383 11.9738 18.4778 13.4471 19.6588 15.405C21.4696 18.4415 24.7493 20.2962 28.2848 20.283C33.8629 20.283 38.3848 15.7611 38.3848 10.183C38.3848 4.60492 33.8629 0.0830078 28.2848 0.0830078H28.2888ZM32.5884 8.59607L27.9634 13.2211C27.753 13.4316 27.4675 13.5498 27.1699 13.5498C26.8723 13.5498 26.5868 13.4316 26.3764 13.2211L23.9964 10.8411C23.5584 10.4028 23.5585 9.69244 23.9966 9.25433C24.4348 8.81622 25.1451 8.8161 25.5834 9.25403L27.1704 10.8411L31.0014 7.01007C31.4397 6.57208 32.15 6.5722 32.5881 7.01031C33.0263 7.44843 33.0264 8.15875 32.5884 8.59705L32.5884 8.59607Z" fill="#345FB4"/>
</svg>
