<svg width="35" height="36" viewBox="0 0 35 36" fill="none" xmlns="http://www.w3.org/2000/svg">
<path fill-rule="evenodd" clip-rule="evenodd" d="M2.06731 3.34802H7.50031C7.50031 3.53003 7.50031 3.69299 7.50031 3.85602C7.50031 5.5 7.49231 7.14398 7.50031 8.78699C7.4845 10.3525 8.69238 11.6586 10.2543 11.765C11.7428 11.8621 13.0755 10.8483 13.3793 9.388C13.6501 8.1474 13.052 6.87988 11.9223 6.29999C11.9223 7.13098 11.9313 7.93701 11.9223 8.74298C11.9454 9.44727 11.4576 10.0656 10.7673 10.207C10.3473 10.3058 9.9052 10.2083 9.56575 9.94189C9.2263 9.6756 9.02634 9.26941 9.02231 8.83801C8.99698 6.47266 8.99698 4.10596 9.02231 1.73798C9.05534 0.960205 9.70607 0.352661 10.4843 0.372986C11.257 0.385742 11.8847 1.00073 11.9133 1.77295C11.9333 2.26099 11.9133 2.75098 11.9133 3.29199H22.2133C22.2233 3.50195 22.2383 3.66296 22.2383 3.82495C22.2383 5.46899 22.2383 7.11298 22.2383 8.75598C22.2193 10.283 23.3621 11.5753 24.88 11.743C26.3979 11.9108 27.7954 10.8993 28.1103 9.40497C28.3887 8.17078 27.8181 6.90112 26.7103 6.28998C26.6887 6.40533 26.674 6.52185 26.6663 6.63898C26.6663 7.34595 26.6763 8.05298 26.6603 8.75897C26.6896 9.2951 26.4206 9.80365 25.9609 10.0812C25.5013 10.3587 24.926 10.3599 24.4651 10.0843C24.0043 9.80866 23.7332 9.30121 23.7603 8.76495C23.749 6.46033 23.749 4.15601 23.7603 1.85199C23.7387 1.32123 24.0088 0.821045 24.4644 0.548096C24.9201 0.275085 25.4886 0.272949 25.9463 0.542419C26.4041 0.811951 26.6779 1.31006 26.6603 1.84094C26.6723 2.31299 26.6603 2.78497 26.6603 3.30994H33.5933C33.6193 3.64795 33.6503 3.93494 33.6613 4.22296C33.888 9.90161 34.1136 15.58 34.3383 21.2579C34.4716 24.6033 34.6123 27.9486 34.7603 31.2939C34.8721 32.4606 34.4727 33.6183 33.6654 34.4678C32.858 35.3174 31.7221 35.7752 30.5513 35.723C22.102 35.7303 13.6523 35.7303 5.2023 35.723C3.99156 35.8037 2.80814 35.3389 1.97595 34.4558C1.14377 33.5727 0.749939 32.3638 0.902298 31.16C1.0443 28.199 1.1463 25.236 1.2663 22.2739C1.4823 16.918 1.69896 11.5623 1.91629 6.20697C1.96831 5.26599 2.02029 4.31799 2.06731 3.34802ZM3.6769 14.371C3.6609 14.53 3.64391 14.635 3.64088 14.74C3.4539 20.297 3.2899 25.854 3.06689 31.409C3.02103 31.9845 3.2252 32.5519 3.62724 32.9662C4.0293 33.3805 4.59029 33.6016 5.16689 33.573C13.6159 33.544 22.0669 33.558 30.5129 33.556C31.0981 33.6329 31.6851 33.4282 32.0955 33.004C32.5059 32.5798 32.6911 31.9863 32.5949 31.404C32.3776 26.0793 32.1546 20.7547 31.9259 15.4301C31.9109 15.082 31.8769 14.736 31.8509 14.371L3.6769 14.371Z" fill="#345FB4"/>
<path fill-rule="evenodd" clip-rule="evenodd" d="M13.2076 21.311C13.8506 21.311 14.4946 21.33 15.1366 21.297C15.3126 21.2646 15.463 21.1512 15.5426 20.991C15.9296 19.943 16.2836 18.884 16.6476 17.828C16.6926 17.697 16.7316 17.565 16.7796 17.435C16.9027 16.9392 17.3508 16.5933 17.8616 16.6C18.3569 16.6046 18.7856 16.9454 18.9016 17.427C19.3076 18.583 19.7176 19.738 20.0916 20.905C20.1429 21.1815 20.4064 21.3657 20.6836 21.319C21.8836 21.319 23.0766 21.358 24.2736 21.381C24.7969 21.3263 25.2889 21.639 25.4616 22.136C25.623 22.64 25.4046 23.1876 24.9406 23.442C23.9866 24.165 23.0406 24.893 22.0676 25.596C21.8186 25.7289 21.7182 26.0342 21.8396 26.289C22.2066 27.427 22.5506 28.572 22.8986 29.716C23.1317 30.2017 22.9821 30.7845 22.544 31.0979C22.1059 31.4113 21.5059 31.3645 21.1216 30.987C20.1286 30.287 19.1316 29.6 18.1486 28.887C17.9789 28.7246 17.7114 28.7246 17.5416 28.887C16.5576 29.595 15.5596 30.287 14.5666 30.979C14.1832 31.3561 13.5843 31.4034 13.1464 31.0912C12.7085 30.779 12.5581 30.1974 12.7896 29.712C13.1376 28.568 13.4816 27.423 13.8486 26.285C13.9711 26.0305 13.8715 25.7247 13.6227 25.5911C12.6297 24.87 11.6546 24.123 10.6756 23.382C10.2623 23.1145 10.0802 22.6027 10.2315 22.1342C10.3828 21.6656 10.8299 21.3572 11.3216 21.382C11.9506 21.3719 12.5796 21.382 13.2086 21.382L13.2076 21.311Z" fill="#345FB4"/>
</svg>
