<svg width="43" height="42" viewBox="0 0 43 42" fill="none" xmlns="http://www.w3.org/2000/svg">
<path fill-rule="evenodd" clip-rule="evenodd" d="M7.91736 34.5201L0.360352 8.2431L26.6313 0.682129L34.1964 26.9571L7.91736 34.5201ZM24.899 3.82007L3.49902 9.97809L7.81903 24.9991C9.0224 23.4509 9.95618 21.7108 10.581 19.8521C10.899 18.7031 11.181 17.5411 11.553 16.4121C11.6691 16.0641 12.0391 15.5641 12.3181 15.5471C13.631 15.5687 14.7723 14.6502 15.032 13.363C15.2161 12.7221 15.707 12.6061 16.252 12.9631C16.6578 13.2266 17.0378 13.528 17.387 13.863C18.475 14.9221 19.528 16.0161 20.616 17.0751C22.137 18.5571 22.195 18.7881 21.257 20.7221C21.033 21.1851 20.714 21.6011 20.482 22.0611C20.1243 22.7507 19.4632 23.2322 18.697 23.3611C16.729 23.8611 14.785 24.4611 12.835 25.024C11.302 25.4691 9.77203 25.9241 8.211 26.3881L8.73999 28.1001L30.1 21.9511L29.614 20.2201L21.5939 22.4991C22.0759 21.0562 22.5579 19.6671 22.994 18.2651C23.106 17.7597 23.5142 17.3733 24.025 17.2891C24.4484 17.1013 24.8162 16.8076 25.093 16.4361C25.3085 16.1388 25.4915 15.8193 25.639 15.4831L29.222 18.8501L24.899 3.82007Z" fill="#345FB4"/>
<path fill-rule="evenodd" clip-rule="evenodd" d="M35.9338 28.2571C35.7468 30.605 35.5718 32.8091 35.3888 35.1061L17.4078 33.7751L17.3809 33.5981L35.9338 28.2571Z" fill="#345FB4"/>
<path fill-rule="evenodd" clip-rule="evenodd" d="M35.9912 26.5832C34.5392 22.7831 33.6152 19.0522 34.3242 15.0562C34.5311 13.4426 34.6543 11.8194 34.6932 10.1932C33.6932 10.1061 32.7932 9.97614 31.9022 9.96814C31.631 10.0005 31.3589 9.91602 31.1537 9.73566C30.9486 9.55536 30.8298 9.2962 30.8273 9.02313C30.7273 8.48914 30.5432 7.97211 30.3633 7.32812C31.8853 7.43414 33.3243 7.53314 34.7633 7.63513C35.1493 7.66217 35.5343 7.7121 35.9213 7.72711C37.6042 7.79315 37.4482 7.59711 37.3342 9.2951C36.9733 14.6422 36.5502 19.9841 36.1462 25.3281C36.1172 25.7122 36.0542 26.0892 35.9912 26.5832Z" fill="#345FB4"/>
<path fill-rule="evenodd" clip-rule="evenodd" d="M18.7842 35.6221L31.6422 36.5611L29.0222 41.4141L18.7432 35.855L18.7842 35.6221Z" fill="#345FB4"/>
<path fill-rule="evenodd" clip-rule="evenodd" d="M38.6147 15.522L42.0317 17.366L38.1198 24.608L37.9268 24.573C38.1517 21.608 38.3807 18.642 38.6147 15.522Z" fill="#345FB4"/>
<path fill-rule="evenodd" clip-rule="evenodd" d="M10.4461 12.7192C10.4366 13.2894 10.1944 13.8309 9.77576 14.2182C9.35712 14.6055 8.7984 14.8049 8.22919 14.7702C7.65814 14.7591 7.11554 14.5189 6.72339 14.1036C6.3313 13.6884 6.1225 13.1329 6.1441 12.5622C6.21539 11.3807 7.19952 10.4621 8.38312 10.4722C9.57202 10.5258 10.4941 11.5301 10.4461 12.7192Z" fill="#345FB4"/>
</svg>
