<svg width="58" height="34" viewBox="0 0 58 34" fill="none" xmlns="http://www.w3.org/2000/svg">
<path fill-rule="evenodd" clip-rule="evenodd" d="M41.0801 0.420959C41.3712 0.742554 41.6309 1.09113 41.856 1.46191C42.1299 2.16089 42.835 2.59271 43.5821 2.51898C44.3902 2.45801 45.1922 2.30096 45.9942 2.17096C49.2325 1.73608 52.272 3.82886 53.0213 7.00897C53.0936 7.46057 53.0562 7.92285 52.9124 8.35699C52.6524 9.18298 52.2955 9.979 51.9774 10.787C51.6773 11.545 51.4273 11.628 50.6505 11.205L50.8004 10.64L50.3773 10.396L50.0294 11.015L45.7723 9.341L45.9832 8.70898L45.4981 8.51501L45.2261 9.06702C44.3511 8.862 44.2261 8.63202 44.5381 7.82703C44.8773 6.95203 45.2252 6.08105 45.6172 5.08405C45.1268 5.00873 44.6307 4.97528 44.1343 4.98407C42.0342 5.21509 40.1763 2.78406 40.0174 1.37506C39.9835 1.07507 40.2723 0.738037 40.4173 0.418091L41.0801 0.420959ZM52.4802 7.27301C52.46 7.09473 52.4297 6.91779 52.3892 6.74298C51.4961 3.89716 48.593 2.19 45.6719 2.79303C44.9521 2.95886 44.2175 3.052 43.479 3.07098C42.5576 3.1391 41.7009 2.59363 41.373 1.72998C41.293 1.52368 41.1836 1.33002 41.0481 1.15497C40.9722 1.06598 40.7961 1.06299 40.6641 1.021C40.6187 1.13153 40.5916 1.24878 40.584 1.36804C40.9668 3.05267 42.408 4.28772 44.1311 4.40796C44.8896 4.38959 45.6428 4.53735 46.3381 4.84094C48.3293 5.66602 50.3513 6.43201 52.4763 7.26898L52.4802 7.27301Z" fill="#345FB4"/>
<path fill-rule="evenodd" clip-rule="evenodd" d="M29.9763 15.5049L31.8483 14.4049C32.3945 14.7839 32.9763 15.1087 33.5854 15.3749C34.3766 15.614 35.2306 15.5244 35.955 15.1263C36.6791 14.7281 37.2126 14.055 37.4345 13.2589C37.5314 12.9702 37.704 12.7129 37.9345 12.5138C38.6215 11.9219 39.3344 11.3629 40.0595 10.8138C40.2907 10.6823 40.3742 10.3898 40.2475 10.1559C39.9025 9.23883 39.5825 8.31183 39.2646 7.3858C39.0585 6.78583 39.2206 6.35883 39.6977 6.18579C40.1747 6.01276 40.5817 6.23981 40.7978 6.83081C41.2187 7.99579 41.6179 9.16882 42.0468 10.3308C42.2636 10.8028 42.0915 11.3622 41.6469 11.6308C40.7929 12.2838 39.9738 12.9798 39.1188 13.6308C38.8317 13.8019 38.7021 14.1495 38.8068 14.4668C39.2387 16.5108 39.6769 18.5568 40.0148 20.6178C40.0827 21.3113 40.0344 22.0113 39.8718 22.6888C39.7165 23.3265 39.5217 23.9541 39.2888 24.5678L42.2739 23.9248C42.5268 23.8698 42.7739 23.8028 43.0339 23.7578C43.4211 23.6401 43.8398 23.6911 44.1874 23.8983C44.5351 24.1053 44.7792 24.4493 44.8598 24.8458C44.924 25.2355 44.8256 25.6344 44.5878 25.9496C44.3498 26.2648 43.9931 26.4688 43.6008 26.5138C42.0458 26.8599 40.4887 27.1918 38.9328 27.5298C38.4987 27.6248 38.0659 27.7299 37.6327 27.8179C37.1118 27.9778 36.5451 27.8251 36.1745 27.4251C35.8041 27.0251 35.6955 26.4483 35.895 25.9409C36.0326 25.4659 36.1948 24.9969 36.3388 24.5248L36.1909 24.4088C35.6098 25.0158 35.0229 25.6168 34.457 26.2368C34.3666 26.3758 34.3097 26.534 34.291 26.6988C33.8759 28.4058 33.4699 30.1148 33.0529 31.8208C33.0002 32.2115 32.7895 32.5636 32.4701 32.7949C32.1508 33.0261 31.7507 33.1165 31.363 33.0448C30.9477 32.9546 30.5932 32.6865 30.3932 32.3116C30.1933 31.9366 30.1684 31.4928 30.3249 31.0978C30.6909 29.5508 31.1769 28.0218 31.4089 26.4548C31.6799 25.1417 32.4357 23.979 33.5261 23.1988C33.985 22.873 34.1721 22.2822 33.9841 21.7518C33.5388 19.9208 33.2199 18.0588 32.8488 16.2087C32.8249 16.0858 32.7839 15.9667 32.7287 15.7708C31.9777 16.2187 31.2707 16.6437 30.5597 17.0627C29.9138 17.4437 29.6847 17.4268 29.1237 16.9268C27.9904 15.9154 26.8605 14.8994 25.7338 13.8788C25.2338 13.4298 25.1757 12.9648 25.5439 12.5788C25.895 12.2108 26.3439 12.2348 26.8188 12.6618C27.8622 13.6059 28.9084 14.5469 29.9763 15.5049Z" fill="#345FB4"/>
<path fill-rule="evenodd" clip-rule="evenodd" d="M20.1499 16.9009C20.5339 20.1889 22.583 22.3849 24.5078 24.7069C22.8596 26.0066 20.929 26.9006 18.8718 27.3168C17.2417 27.611 15.5657 27.5285 13.9719 27.0759C13.4658 26.9086 12.9849 26.6731 12.5422 26.3759C12.2639 26.2078 12.252 25.9639 12.5039 25.6868C13.365 24.7418 14.2039 23.7788 15.042 22.8118C15.179 22.6702 15.2668 22.4882 15.293 22.2928C15.313 20.8928 15.304 19.4929 15.304 18.0789C14.7471 18.3669 14.074 18.6929 13.4229 19.0599C13.0405 19.3003 12.5554 19.3057 12.168 19.0738C11.1519 18.5399 10.0999 18.0739 9.10303 17.5059C8.83032 17.3154 8.66333 17.0074 8.65234 16.6749C8.6731 16.4409 9.03418 16.1819 9.302 16.0479C9.44702 15.9749 9.72607 16.1099 9.91992 16.2029C10.72 16.5869 11.52 16.9719 12.304 17.3959C12.6047 17.5753 12.9814 17.5679 13.2749 17.3769C14.46 16.7679 15.6399 16.1389 16.8679 15.6259C18.9055 14.8586 21.1924 15.1627 22.9587 16.436C23.6301 16.9903 24.2144 17.6422 24.6919 18.3699C24.9458 18.6649 25.2 18.96 25.4338 19.27C25.5786 19.4208 25.6506 19.6271 25.6316 19.8353C25.6123 20.0435 25.5037 20.2331 25.3337 20.3549C25.1838 20.502 24.9768 20.5757 24.7678 20.5564C24.5586 20.5372 24.3684 20.4269 24.2478 20.255C23.6377 19.555 23.0227 18.862 22.4619 18.127C21.9011 17.392 21.0588 17.2499 20.1499 16.9009Z" fill="#345FB4"/>
<path fill-rule="evenodd" clip-rule="evenodd" d="M5.35521 21.3069C5.78294 21.4545 6.19603 21.642 6.58909 21.8668C7.85008 22.7449 9.07518 23.6769 10.3262 24.5669C10.6484 24.7456 10.779 25.1418 10.6264 25.4769C10.0989 26.9496 9.15989 28.2401 7.92088 29.1949C7.62254 29.4713 7.15989 29.4651 6.86912 29.181C5.69114 28.2809 4.47801 27.4289 3.28611 26.5489C2.75901 26.2339 2.39866 25.7016 2.30223 25.0952C2.20555 24.4889 2.38279 23.8709 2.78611 23.4079C3.07615 22.9999 3.36912 22.5949 3.6782 22.2019C4.09349 21.6894 4.69847 21.3666 5.35521 21.3069ZM8.46102 23.8789C8.10677 24.0291 7.77669 24.2313 7.48201 24.4789C6.94124 25.1321 6.43636 25.8145 5.97005 26.5229C5.70516 26.9004 5.67611 27.3951 5.8951 27.8009C6.23909 26.2079 7.43319 25.1739 8.46419 23.8789H8.46102ZM6.86073 27.951C7.59071 26.951 8.29261 25.993 8.98182 25.027C9.01185 24.9839 8.92372 24.858 8.88173 24.752C8.0309 25.5779 6.71205 27.5759 6.86586 27.95L6.86073 27.951Z" fill="#345FB4"/>
<path fill-rule="evenodd" clip-rule="evenodd" d="M37.2129 12.3999C37.2161 13.9186 36.0034 15.161 34.4849 15.1948C32.9458 15.2 31.6873 13.9697 31.6572 12.4309C31.666 10.9133 32.8796 9.67767 34.397 9.64185C35.137 9.63147 35.8506 9.91687 36.3792 10.4347C36.908 10.9525 37.208 11.6599 37.2129 12.3999ZM34.3047 14.1C34.5127 14.0793 34.7156 14.0235 34.9048 13.935C35.0679 13.785 35.2034 13.6072 35.3047 13.41C35.1287 13.345 34.9556 13.266 34.7747 13.219C34.1746 13.064 33.5806 12.913 32.9807 12.777C32.7839 12.745 32.5852 12.7263 32.3857 12.7209C32.4348 12.9399 32.4177 13.212 32.5447 13.3699C33.001 13.8516 33.6409 14.1157 34.304 14.096L34.3047 14.1Z" fill="#345FB4"/>
<path fill-rule="evenodd" clip-rule="evenodd" d="M16.2173 9.83691C16.937 9.8385 17.6267 10.126 18.1343 10.6361C18.6421 11.1462 18.9263 11.8372 18.9243 12.5569C18.8994 14.0334 17.7012 15.2206 16.2244 15.2319C14.7266 15.2392 13.5039 14.0357 13.4873 12.5379C13.5 11.0402 14.7195 9.83362 16.2173 9.83691ZM14.6172 13.304L14.4912 13.463C14.6572 13.663 14.7981 13.989 14.9912 14.0239C15.5056 14.1299 16.0347 14.1422 16.5532 14.0599C16.9102 13.9288 17.2292 13.7117 17.4822 13.4279C17.5701 13.3499 17.5281 13.1279 17.5452 12.9689C17.3972 12.9418 17.2461 12.9364 17.0964 12.9529C16.7351 13.0875 16.3657 13.1997 15.9905 13.289C15.5317 13.3243 15.0713 13.3293 14.6121 13.304L14.6172 13.304Z" fill="#345FB4"/>
<path fill-rule="evenodd" clip-rule="evenodd" d="M18.833 27.8748C19.948 27.4748 20.969 27.1008 21.9971 26.7478C22.1504 26.7048 22.3137 26.7132 22.4619 26.7718C23.5955 27.2191 24.7258 27.6765 25.8533 28.1438C26.1941 28.2512 26.4751 28.4949 26.6296 28.817C26.7842 29.1391 26.7986 29.5108 26.6692 29.8438C26.5332 30.173 26.2676 30.4317 25.9348 30.5588C25.6023 30.686 25.2319 30.6705 24.9109 30.5158C23.0918 29.7898 21.2778 29.0518 19.4692 28.3018C19.2434 28.181 19.0303 28.038 18.833 27.8748Z" fill="#345FB4"/>
<path fill-rule="evenodd" clip-rule="evenodd" d="M12.7349 27.158L15.221 27.819C14.7549 29.2679 14.2839 30.757 13.7949 32.24C13.6387 32.8385 13.0781 33.2406 12.4609 33.197C11.887 33.1504 11.4148 32.7252 11.3091 32.1589C11.2725 31.9973 11.2747 31.8293 11.3159 31.6689C11.7839 30.153 12.2659 28.642 12.7349 27.158Z" fill="#345FB4"/>
<path fill-rule="evenodd" clip-rule="evenodd" d="M49.7266 11.242C49.8887 11.518 49.9475 11.749 50.0854 11.814C50.1914 11.864 50.3965 11.707 50.6394 11.614L51.3513 11.849L50.9514 12.871L43.8613 10.089L44.2612 9.073L44.9612 9.37799C45.0613 9.60498 45.0933 9.85199 45.2002 9.88898C45.3413 9.93896 45.5413 9.82495 45.7102 9.664L49.7266 11.242Z" fill="#345FB4"/>
<path fill-rule="evenodd" clip-rule="evenodd" d="M23.2825 12.6289C23.2507 13.0422 23.0295 13.4175 22.6829 13.645C22.3364 13.8724 21.9041 13.9263 21.5125 13.7909C20.7473 13.477 20.0264 13.0648 19.3674 12.5648C19.1575 12.4119 19.1875 11.9319 19.1025 11.5829C19.6541 11.47 20.2275 11.6045 20.6714 11.9509C21.0107 12.1729 21.3296 12.4258 21.6716 12.6509C22.1934 12.9899 22.7305 13.179 23.2825 12.6289Z" fill="#345FB4"/>
<path fill-rule="evenodd" clip-rule="evenodd" d="M10.3369 24.262C10.2629 24.041 10.1819 23.8229 10.116 23.6C10.0564 23.1502 9.92114 22.7137 9.71606 22.309C9.15552 21.6248 8.54834 20.9799 7.89917 20.379C7.58618 20.071 7.27026 20.124 7.03809 20.524C6.96021 20.65 6.87378 20.7706 6.77979 20.885C6.41504 21.358 6.41406 21.357 5.86914 21.067C6.13818 20.729 6.4082 20.384 6.68408 20.045C6.81714 19.8143 7.04541 19.6542 7.30762 19.6078C7.56982 19.5615 7.83911 19.6337 8.04297 19.8051C9.02344 20.4445 9.83423 21.3124 10.4058 22.3341C10.7244 22.908 10.7749 23.5927 10.5439 24.207L10.3369 24.262Z" fill="#345FB4"/>
<path fill-rule="evenodd" clip-rule="evenodd" d="M31.9854 8.46197L27.9482 2.90997L28.6692 2.54199C29.4082 3.32996 32.1233 8.06897 31.9854 8.46197Z" fill="#345FB4"/>
<path fill-rule="evenodd" clip-rule="evenodd" d="M9.6123 3.94391L10.4124 3.55994L13.8652 9.30396L13.6243 9.46094L9.6123 3.94391Z" fill="#345FB4"/>
<path fill-rule="evenodd" clip-rule="evenodd" d="M33.0332 1.09497C33.1953 3.35394 33.3533 5.54498 33.5102 7.73499L33.3393 7.77997C33.2737 7.69922 33.2229 7.60748 33.1894 7.50897C32.9433 5.55096 32.7175 3.58997 32.4575 1.633C32.3933 1.15497 32.7134 1.20197 33.0332 1.09497Z" fill="#345FB4"/>
<path fill-rule="evenodd" clip-rule="evenodd" d="M31.081 9.39001C30.9498 9.341 30.8148 9.29901 30.6879 9.24103C28.976 8.448 27.2699 7.64105 25.5499 6.867C25.1369 6.68103 25.079 6.46698 25.32 6.05298L31.2079 9.16998L31.081 9.39001Z" fill="#345FB4"/>
<path fill-rule="evenodd" clip-rule="evenodd" d="M12.8181 10.501L6.78809 7.70099L6.92798 7.13696C8.13208 7.54102 12.6621 10.055 12.8181 10.501Z" fill="#345FB4"/>
<path fill-rule="evenodd" clip-rule="evenodd" d="M14.9145 8.82501C14.8635 8.47003 14.8076 8.117 14.7624 7.76099C14.5544 6.11096 14.3625 4.461 14.1384 2.81097C14.0803 2.38397 14.2014 2.17499 14.7023 2.172C14.8603 4.37201 15.0187 6.57629 15.1774 8.78497L14.9145 8.82501Z" fill="#345FB4"/>
<path fill-rule="evenodd" clip-rule="evenodd" d="M57.3105 18.7346H45.1816C45.5696 17.476 56.8457 17.3284 57.3105 18.7346Z" fill="#345FB4"/>
<path fill-rule="evenodd" clip-rule="evenodd" d="M50.3005 17.8467H41.8496C42.2166 16.6141 49.8125 16.4161 50.3005 17.8467Z" fill="#345FB4"/>
<path fill-rule="evenodd" clip-rule="evenodd" d="M43.6748 18.687H52.0957C51.8169 19.8165 44.4167 20.2098 43.6748 18.687Z" fill="#345FB4"/>
<path fill-rule="evenodd" clip-rule="evenodd" d="M3.8167 21.6249C3.61772 21.7622 3.40483 21.8785 3.18169 21.9719C2.8145 22.0616 2.554 22.3871 2.54668 22.765C2.48589 23.09 2.35332 23.3975 2.15898 23.6649C1.96465 22.9819 1.82378 22.3029 2.3997 21.7649C2.7664 21.362 3.37822 21.3016 3.8167 21.6249Z" fill="#345FB4"/>
<path fill-rule="evenodd" clip-rule="evenodd" d="M54.2227 8.71899C54.9905 8.12488 55.0615 7.19397 54.3893 6.53699C54.9323 6.72894 55.2621 7.15411 55.2189 7.60596C55.2447 8.10175 54.8412 8.55267 54.2227 8.71899Z" fill="#345FB4"/>
<path fill-rule="evenodd" clip-rule="evenodd" d="M1.12442 24.525C0.865494 25.3184 1.02793 26.1765 1.56348 26.845C1.0944 26.7391 0.731204 26.4013 0.624791 25.9721C0.452708 25.4421 0.650255 24.87 1.12442 24.525Z" fill="#345FB4"/>
<path fill-rule="evenodd" clip-rule="evenodd" d="M1.75026 24.888C1.43851 25.3818 1.662 25.9783 2.2666 26.266L2.016 26.397C1.77075 26.2311 1.55356 26.0416 1.37042 25.833C1.13841 25.4908 1.30832 25.0677 1.74995 24.8879L1.75026 24.888Z" fill="#345FB4"/>
<path fill-rule="evenodd" clip-rule="evenodd" d="M53.7598 8.29199C54.0538 8.09619 54.2061 7.83386 54.1818 7.5661C54.1571 7.29834 53.9575 7.04852 53.6299 6.875C54.3705 6.98102 54.6127 7.15002 54.6288 7.52301C54.6433 7.87701 54.5215 8.20001 53.7598 8.29199Z" fill="#345FB4"/>
</svg>
