<svg width="38" height="39" viewBox="0 0 38 39" fill="none" xmlns="http://www.w3.org/2000/svg">
<path fill-rule="evenodd" clip-rule="evenodd" d="M34.279 38.407H3.53198C1.75879 38.0376 0.373291 36.6521 0.00390625 34.879L0.00396729 6.82007C1.35498 3.41296 3.42499 3.245 7.31097 3.60999C7.31097 4.49194 7.31097 5.38306 7.31097 6.27502C7.27277 7.12732 7.6167 7.95227 8.24896 8.52502C9.01883 9.25781 10.1415 9.4823 11.134 9.10205C12.1649 8.80908 12.9083 7.91064 13.003 6.84302C13.103 5.76904 13.024 4.67896 13.024 3.54297H24.724C24.724 4.45801 24.724 5.31799 24.724 6.17798C24.6705 7.17627 25.1282 8.1333 25.939 8.71802C26.8071 9.38281 27.9855 9.47339 28.945 8.94897C29.9293 8.46887 30.5378 7.45337 30.497 6.35901C30.519 5.4231 30.497 4.48511 30.497 3.55908C31.797 3.55908 32.938 3.48804 34.071 3.57507C36.083 3.72998 37.119 5.09009 37.804 6.81604V34.8821C37.4338 36.6531 36.05 38.0369 34.279 38.407H34.279ZM34.8971 12.291H2.91309V13.27C2.91309 20.0187 2.91309 26.7673 2.91309 33.516C2.91309 35.063 3.35309 35.4971 4.91309 35.4971H32.8871C34.4521 35.4971 34.8871 35.063 34.8871 33.516C34.8871 26.7673 34.8871 20.0187 34.8871 13.27L34.8971 12.291Z" fill="#345FB4"/>
<path fill-rule="evenodd" clip-rule="evenodd" d="M10.7528 0.603027C11.3724 0.950928 11.7201 1.63892 11.6328 2.34399C11.5788 3.68201 11.6328 5.02405 11.6138 6.36304C11.6597 6.77271 11.5211 7.18164 11.2355 7.479C10.95 7.77637 10.547 7.9314 10.1358 7.9021C9.73904 7.9165 9.35583 7.75684 9.08673 7.46497C8.8176 7.1731 8.68939 6.77832 8.73578 6.38403C8.72678 5.04407 8.78278 3.70105 8.71478 2.36499C8.63879 1.66174 8.97275 0.977051 9.57379 0.604004L10.7528 0.603027Z" fill="#345FB4"/>
<path fill-rule="evenodd" clip-rule="evenodd" d="M28.2267 0.603027C28.8276 0.976318 29.1615 1.66077 29.0858 2.36401C29.0178 3.70105 29.0738 5.04297 29.0648 6.38306C29.1111 6.77734 28.9829 7.17212 28.7138 7.46399C28.4447 7.75574 28.0615 7.91541 27.6648 7.901C27.2679 7.93408 26.8764 7.79224 26.5929 7.51245C26.3094 7.23291 26.1621 6.84326 26.1898 6.44605C26.1688 4.96704 26.2018 3.48608 26.1768 2.00708C26.1865 1.41443 26.5211 0.875 27.0478 0.603027H28.2267Z" fill="#345FB4"/>
<path fill-rule="evenodd" clip-rule="evenodd" d="M19.0042 25.283C18.0252 25.543 17.8382 25.083 17.7272 24.173C17.4982 22.3 17.0582 20.454 16.7102 18.595C16.6488 18.2946 16.609 17.9901 16.5912 17.684C16.5035 17.0239 16.7085 16.3584 17.1526 15.8623C17.5967 15.3661 18.2354 15.0887 18.9012 15.103C19.5952 15.0953 20.2592 15.3855 20.725 15.9C21.1908 16.4146 21.4137 17.1041 21.3372 17.7939C21.1112 19.587 20.7372 21.3621 20.4232 23.144C20.321 23.5197 20.2563 23.9045 20.2302 24.293C20.2572 25.1951 19.8632 25.517 19.0042 25.283Z" fill="#345FB4"/>
<path fill-rule="evenodd" clip-rule="evenodd" d="M16.7065 30.4851C16.6216 29.8943 16.8101 29.2969 17.2186 28.8616C17.6271 28.4265 18.2114 28.2007 18.8065 28.248C19.4113 28.1497 20.0276 28.337 20.4753 28.7554C20.923 29.1738 21.1517 29.7759 21.0945 30.386C21.1453 30.9792 20.9385 31.5656 20.5268 31.9956C20.1152 32.4258 19.5383 32.658 18.9435 32.6331C18.3522 32.6821 17.7683 32.4747 17.3403 32.0637C16.9124 31.6528 16.6815 31.0779 16.7065 30.4851Z" fill="#345FB4"/>
</svg>
