<svg width="32" height="42" viewBox="0 0 32 42" fill="none" xmlns="http://www.w3.org/2000/svg">
<path fill-rule="evenodd" clip-rule="evenodd" d="M31.407 20V39.3521C31.1255 40.3514 30.3445 41.1326 29.345 41.4139H2.06201C1.02734 41.0951 0.241333 40.2485 0 39.193V20.1591C0.692993 18.3101 1.24399 17.9399 3.29999 17.939H5.508V17.006C5.508 15.053 5.49298 13.1 5.508 11.1479C5.49051 6.9375 8.0929 3.16028 12.0332 1.67688C12.8737 1.39612 13.7281 1.15894 14.593 0.966064H16.814C16.9001 1.02185 16.9937 1.06531 17.092 1.09497C21.4559 1.58655 24.9694 4.90356 25.711 9.23206C25.9504 11.2452 26.0393 13.2736 25.977 15.3C26.003 16.16 25.977 17.02 25.977 17.941C26.787 17.941 27.498 17.984 28.201 17.932C29.648 17.6672 31.0515 18.5726 31.407 20ZM9.45934 17.8831H22.0513C22.0513 15.66 22.0593 13.495 22.0513 11.33C22.0262 8.28491 19.8457 5.68494 16.8514 5.13C13.8466 4.604 10.8932 6.29199 9.82133 9.14795C9.63203 9.58069 9.51643 10.0421 9.47935 10.5129C9.44133 12.9611 9.45934 15.4091 9.45934 17.8831ZM14.2815 32.2371C14.2815 34.658 14.2815 34.658 16.4685 34.537C16.4945 34.537 16.5215 34.537 16.5475 34.537C16.9795 34.5551 17.1565 34.364 17.1415 33.918C17.1155 33.153 17.1525 32.386 17.1295 31.618C17.0013 30.8209 17.311 30.0165 17.9405 29.511C18.5678 28.9459 18.9241 28.1399 18.92 27.2955C18.9157 26.4513 18.5514 25.6488 17.9185 25.09C17.3181 24.501 16.5058 24.1786 15.6649 24.1957C14.8239 24.2129 14.0254 24.568 13.4495 25.181C12.8486 25.7545 12.5151 26.5533 12.5298 27.3839C12.5444 28.2144 12.9058 29.001 13.5265 29.553C14.1149 29.9904 14.4075 30.7214 14.2835 31.444C14.2655 31.708 14.2794 31.973 14.2794 32.2371H14.2815Z" fill="#345FB4"/>
</svg>
