<svg width="40" height="40" viewBox="0 0 40 40" fill="none" xmlns="http://www.w3.org/2000/svg">
<g id="ic_quiz">
<path id="Path_50072" fill-rule="evenodd" clip-rule="evenodd" d="M23.7222 0.5V6.36301H21.4082C20.13 6.36301 19.0938 7.39923 19.0938 8.67749C19.0938 9.95575 20.13 10.992 21.4082 10.992H23.7222V16.778H30.6652V13.307C30.6665 12.6689 31.1841 12.1523 31.8223 12.1523C32.4603 12.1523 32.978 12.6689 32.9792 13.307V16.779H40.0002V0.5H23.7222Z" fill="#345FB4"/>
<path id="Path_50073" fill-rule="evenodd" clip-rule="evenodd" d="M5.746 24.879C5.746 26.1573 6.78224 27.1935 8.0605 27.1935C9.33877 27.1935 10.375 26.1573 10.375 24.879V22.565H15.621V16.779H13.307C12.668 16.779 12.15 16.261 12.15 15.622C12.15 14.983 12.668 14.465 13.307 14.465H15.621V7.521H0.5V22.565H5.746V24.879Z" fill="#345FB4"/>
<path id="Path_50074" fill-rule="evenodd" clip-rule="evenodd" d="M27.8107 24.879V22.565C27.8107 21.2867 26.7744 20.2505 25.4962 20.2505C24.2179 20.2505 23.1817 21.2867 23.1817 22.565V24.879H17.9357V27.811C20.4903 27.8137 22.5598 29.8854 22.5597 32.4401C22.5597 34.9947 20.4902 37.0663 17.9355 37.069L17.9357 40.001H32.9797V24.879H27.8107Z" fill="#345FB4"/>
<path id="Path_50075" fill-rule="evenodd" clip-rule="evenodd" d="M17.936 34.754C19.2143 34.754 20.2505 33.7178 20.2505 32.4395C20.2505 31.1613 19.2143 30.125 17.936 30.125L15.621 30.125V24.879H12.689C12.689 27.4355 10.6165 29.508 8.06 29.508C5.50347 29.508 3.431 27.4355 3.431 24.879H0.5V40H15.621V34.754H17.936Z" fill="#345FB4"/>
</g>
</svg>
