<svg width="334" height="63" viewBox="0 0 334 63" fill="none" xmlns="http://www.w3.org/2000/svg">
<circle cx="296.418" cy="11.262" r="5.61" fill="white" fill-opacity="0.2"/>
<path fill-rule="evenodd" clip-rule="evenodd" d="M296.419 17.836C296.167 17.8362 295.926 17.7365 295.748 17.5587C295.57 17.3809 295.47 17.1396 295.47 16.888V5.63599C295.47 5.3844 295.57 5.14313 295.748 4.9653C295.926 4.78749 296.167 4.68773 296.419 4.68799C296.942 4.68799 297.367 5.11243 297.367 5.63599V16.888C297.367 17.4116 296.942 17.836 296.419 17.836Z" fill="white" fill-opacity="0.298039"/>
<path fill-rule="evenodd" clip-rule="evenodd" d="M302.992 11.262C302.992 11.5136 302.892 11.755 302.714 11.933C302.537 12.111 302.295 12.211 302.044 12.211L290.792 12.211C290.54 12.211 290.299 12.111 290.121 11.933C289.943 11.755 289.844 11.5136 289.844 11.262C289.844 10.7384 290.268 10.314 290.792 10.314H302.044C302.567 10.314 302.992 10.7384 302.992 11.262Z" fill="white" fill-opacity="0.298039"/>
<path fill-rule="evenodd" clip-rule="evenodd" d="M300.397 11.262C300.397 11.7861 299.973 12.211 299.448 12.211L293.386 12.211C292.862 12.211 292.438 11.7861 292.438 11.262C292.438 10.7383 292.863 10.314 293.386 10.314H299.448C299.7 10.3137 299.941 10.4135 300.12 10.5913C300.297 10.7691 300.397 11.0104 300.397 11.262Z" fill="white"/>
<path fill-rule="evenodd" clip-rule="evenodd" d="M296.419 15.242C296.167 15.2422 295.925 15.1423 295.747 14.9643C295.569 14.7863 295.469 14.5448 295.47 14.293V8.23099C295.47 7.70688 295.895 7.28201 296.419 7.28198C296.943 7.28255 297.367 7.70726 297.367 8.23099V14.293C297.367 14.5446 297.267 14.786 297.089 14.964C296.912 15.142 296.67 15.242 296.419 15.242V15.242Z" fill="white"/>
<circle cx="41.4987" cy="51.474" r="5.61" fill="white" fill-opacity="0.2"/>
<path fill-rule="evenodd" clip-rule="evenodd" d="M41.5017 58.048C40.9781 58.048 40.5537 57.6236 40.5537 57.1V45.848C40.5537 45.3245 40.9781 44.9 41.5017 44.9C41.7533 44.8998 41.9947 44.9995 42.1727 45.1773C42.3506 45.3552 42.4507 45.5964 42.4507 45.848V57.1C42.4507 57.3516 42.3506 57.5929 42.1727 57.7707C41.9947 57.9485 41.7533 58.0483 41.5017 58.048V58.048Z" fill="white" fill-opacity="0.298039"/>
<path fill-rule="evenodd" clip-rule="evenodd" d="M48.0728 51.474C48.0731 51.7258 47.9732 51.9673 47.7952 52.1453C47.6171 52.3234 47.3756 52.4232 47.1238 52.423L35.8728 52.423C35.6212 52.423 35.3799 52.323 35.2021 52.145C35.0243 51.967 34.9246 51.7256 34.9248 51.474C34.9248 50.9504 35.3492 50.526 35.8728 50.526H47.1238C47.3754 50.5257 47.6168 50.6255 47.7948 50.8033C47.9728 50.9811 48.0728 51.2224 48.0728 51.474Z" fill="white" fill-opacity="0.298039"/>
<path fill-rule="evenodd" clip-rule="evenodd" d="M45.4785 51.474C45.4788 51.7256 45.379 51.967 45.2012 52.145C45.0234 52.323 44.7821 52.423 44.5305 52.423L38.4685 52.423C37.9444 52.423 37.5195 51.9981 37.5195 51.474C37.52 50.9503 37.9447 50.5261 38.4684 50.526H44.5305C45.0541 50.526 45.4785 50.9504 45.4785 51.474Z" fill="white"/>
<path fill-rule="evenodd" clip-rule="evenodd" d="M41.5017 55.454C40.978 55.4535 40.5537 55.0287 40.5537 54.505V48.443C40.5535 48.1914 40.6532 47.95 40.8311 47.772C41.0089 47.594 41.2501 47.494 41.5017 47.494C41.7535 47.4938 41.995 47.5937 42.173 47.7717C42.3511 47.9497 42.4509 48.1913 42.4507 48.443V54.505C42.4507 55.0291 42.0258 55.454 41.5017 55.454Z" fill="white"/>
<path fill-rule="evenodd" clip-rule="evenodd" d="M15.546 3.01907C15.5457 2.18454 16.2224 1.50737 17.0574 1.50708C17.8925 1.50677 18.5696 2.18349 18.5699 3.01854C18.5702 3.85359 17.8935 4.53078 17.0585 4.53107C16.6573 4.5312 16.2726 4.37196 15.989 4.08839C15.7053 3.80482 15.5459 3.42017 15.5459 3.01907H15.546Z" fill="#FFEDB2"/>
<path fill-rule="evenodd" clip-rule="evenodd" d="M77.0625 60.9291C77.063 60.0941 77.7402 59.4177 78.5752 59.4181C79.4102 59.4185 80.0867 60.0956 80.0864 60.9305C80.0862 61.7654 79.4093 62.4421 78.5743 62.4421C78.1732 62.442 77.7886 62.2826 77.505 61.9988C77.2214 61.7151 77.0624 61.3302 77.0626 60.9291H77.0625Z" fill="#FFEDB2"/>
<path fill-rule="evenodd" clip-rule="evenodd" d="M330.394 49.269C330.394 48.6569 330.762 48.1057 331.327 47.8719C331.892 47.6381 332.543 47.7677 332.975 48.2003C333.407 48.6328 333.536 49.2832 333.302 49.8481C333.068 50.4131 332.516 50.7812 331.905 50.781C331.07 50.7807 330.394 50.1038 330.394 49.269H330.394Z" fill="#FFEDB2"/>
<path fill-rule="evenodd" clip-rule="evenodd" d="M229.441 4.68806C229.441 4.07704 229.809 3.52559 230.374 3.29137C230.939 3.05714 231.59 3.18628 232.022 3.61858C232.455 4.05086 232.584 4.70116 232.35 5.26624C232.117 5.83131 231.565 6.19987 230.954 6.20007C230.553 6.2002 230.168 6.04094 229.884 5.75737C229.601 5.47382 229.441 5.08916 229.441 4.68806Z" fill="#FFEDB2"/>
<path fill-rule="evenodd" clip-rule="evenodd" d="M223.12 43.51C223.12 42.8981 223.488 42.3461 224.053 42.1115C224.619 41.877 225.27 42.0061 225.703 42.4387C226.135 42.8713 226.265 43.5221 226.031 44.0877C225.797 44.6532 225.245 45.022 224.633 45.022C223.798 45.022 223.121 44.3452 223.12 43.51H223.12Z" fill="#FFEDB2"/>
<path fill-rule="evenodd" clip-rule="evenodd" d="M314.026 1.50304C314.026 0.891068 314.395 0.339371 314.96 0.105194C315.526 -0.128983 316.177 0.000473022 316.609 0.433197C317.042 0.865921 317.171 1.51671 316.937 2.08208C316.703 2.64745 316.151 3.01605 315.539 3.01604C314.704 3.01599 314.026 2.33861 314.026 1.50304Z" fill="#FFEDB2"/>
<path fill-rule="evenodd" clip-rule="evenodd" d="M144.36 14.7821C144.36 14.1701 144.729 13.6184 145.294 13.3842C145.86 13.1501 146.51 13.2795 146.943 13.7122C147.376 14.145 147.505 14.7958 147.271 15.3611C147.037 15.9265 146.485 16.2951 145.873 16.2951C145.472 16.2953 145.087 16.136 144.803 15.8522C144.519 15.5684 144.36 15.1834 144.36 14.7821Z" fill="#FFEDB2"/>
<path fill-rule="evenodd" clip-rule="evenodd" d="M0 32.979C0.000244141 32.1435 0.677429 31.4668 1.51245 31.467C2.34753 31.4673 3.02423 32.1445 3.02399 32.9796C3.02368 33.8146 2.3465 34.4913 1.51147 34.4911C0.676636 34.4908 0 33.8139 0 32.979Z" fill="#FFEDB2"/>
</svg>
