<svg width="163" height="171" viewBox="0 0 163 171" fill="none" xmlns="http://www.w3.org/2000/svg">
<rect width="163" height="171" fill="#F2F2F2"/>
<g id="20_support" clip-path="url(#clip0_0_1)">
<rect width="375" height="812" transform="translate(-106 -242)" fill="white"/>
<g id="background">
<rect id="blue_bg" x="-106" y="-242" width="375" height="813" fill="url(#paint0_linear_0_1)"/>
<path id="curve_bg" fill-rule="evenodd" clip-rule="evenodd" d="M-77 -129H240C256.016 -129 269 -116.016 269 -100V570H-106V-100C-106 -116.016 -93.0163 -129 -77 -129Z" fill="white"/>
</g>
<g id="Support_Content">
<path id="blob" fill-rule="evenodd" clip-rule="evenodd" d="M165.891 68.102C173.311 102.265 148.173 135.709 118.107 156.03C88.0408 176.351 53.1068 183.494 28.4068 167.658C3.70683 151.822 -10.8512 112.952 -0.773163 75.2449C9.24884 37.538 43.7998 0.937973 81.1198 0.0519562C118.44 -0.834061 158.472 33.994 165.891 68.102Z" fill="#E5E7E8"/>
<g id="support_">
<path id="Path_43608" fill-rule="evenodd" clip-rule="evenodd" d="M159.651 167.497H3.77149C3.76292 149.943 10.7399 133.078 23.1672 120.64C35.5946 108.203 52.4541 101.212 70.0361 101.207H93.3645C129.972 101.209 159.648 130.883 159.654 167.491L159.651 167.497Z" fill="#11AFFF"/>
<path id="Path_43609" fill-rule="evenodd" clip-rule="evenodd" d="M66.4145 101.31C31.2743 103.244 3.77142 132.302 3.77151 167.496H129.058C129.058 132.304 101.556 103.246 66.4172 101.31L66.4145 101.31Z" fill="#36CEF4"/>
<path id="Path_43610" fill-rule="evenodd" clip-rule="evenodd" d="M81.7105 109.841L69.9385 122.228L81.7105 134.351L93.4805 122.228L81.7105 109.841Z" fill="#FCCA03"/>
<path id="Path_43611" fill-rule="evenodd" clip-rule="evenodd" d="M41.3301 107.74L65.0921 125.983L80.3731 114.112L66.3521 101.312C57.6691 101.783 49.1651 103.968 41.3301 107.74H41.3301Z" fill="#E0EFF4"/>
<path id="Path_43612" fill-rule="evenodd" clip-rule="evenodd" d="M122.092 107.74L98.3298 125.983L83.0488 114.112L97.0698 101.312C105.753 101.783 114.257 103.968 122.092 107.74H122.092Z" fill="#C2DBE5"/>
<path id="Path_43613" fill-rule="evenodd" clip-rule="evenodd" d="M107.711 118.776C102.62 114.073 96.8223 110.199 90.5298 107.295L83.0508 114.122L98.3318 125.995L107.711 118.776Z" fill="#E0EFF4"/>
<path id="Path_43614" fill-rule="evenodd" clip-rule="evenodd" d="M93.4829 122.228L83.0419 114.115L81.7109 111.534V134.351L93.4829 122.228Z" fill="#FCAD02"/>
<path id="Path_43615" fill-rule="evenodd" clip-rule="evenodd" d="M68.4229 20.8088H94.9999C107.312 20.8088 117.293 30.7897 117.293 43.1018V78.5338C117.293 98.1849 101.363 114.115 81.7114 114.115C62.0603 114.115 46.1299 98.1849 46.1299 78.5338V43.1018C46.1299 30.7897 56.1108 20.8088 68.4229 20.8088Z" fill="#FFC65C"/>
<path id="Path_43616" fill-rule="evenodd" clip-rule="evenodd" d="M46.1299 43.1018V78.5338C46.1413 95.1085 57.5872 109.474 73.7322 113.185C89.8714 109.464 101.307 95.0964 101.312 78.5338V43.1018C101.312 30.7917 91.334 20.8116 79.0239 20.8088H68.4239C62.5112 20.8086 56.8407 23.1572 52.6597 27.338C48.4787 31.5187 46.1299 37.1892 46.1299 43.1018V43.1018Z" fill="#FFD89E"/>
<path id="Path_43617" fill-rule="evenodd" clip-rule="evenodd" d="M38.066 142.992V167.492H32.126V142.992C32.1556 141.374 33.4755 140.078 35.0935 140.078C36.7114 140.078 38.0313 141.374 38.061 142.992H38.066Z" fill="#11AFFF"/>
<path id="Path_43618" fill-rule="evenodd" clip-rule="evenodd" d="M92.4251 167.496H70.9971L81.7151 134.351L92.4251 167.496Z" fill="#FCAD02"/>
<path id="Path_43619" fill-rule="evenodd" clip-rule="evenodd" d="M70.3611 58.9759H57.6001C55.9824 59.0056 54.6865 60.3254 54.6865 61.9434C54.6865 63.5613 55.9824 64.8812 57.6001 64.9109H62.9111C63.4458 67.2414 65.6141 68.823 67.9966 68.6202C70.379 68.4175 72.2489 66.4922 72.3821 64.1049C73.2768 63.2763 73.5716 61.9838 73.1246 60.8493C72.6776 59.7148 71.5805 58.9706 70.3611 58.9749V58.9759Z" fill="#292929"/>
<path id="Path_43620" fill-rule="evenodd" clip-rule="evenodd" d="M105.822 58.9768H93.0612C91.8424 58.9726 90.7456 59.7161 90.2984 60.8499C89.8511 61.9837 90.1448 63.2758 91.0382 64.1048C91.1714 66.4922 93.0413 68.4174 95.4237 68.6202C97.8061 68.8229 99.9745 67.2413 100.509 64.9108H105.82C106.893 64.9305 107.894 64.3693 108.436 63.443C108.978 62.5168 108.978 61.3699 108.436 60.4436C107.894 59.5174 106.893 58.9561 105.82 58.9758L105.822 58.9768Z" fill="#292929"/>
<path id="Path_43621" fill-rule="evenodd" clip-rule="evenodd" d="M33.2275 55.4028H46.1275V82.1148H33.2275V55.4028Z" fill="#292929"/>
<path id="Path_43622" fill-rule="evenodd" clip-rule="evenodd" d="M92.4247 11.6169C30.9807 3.30588 46.1337 61.9429 46.1337 61.9429C56.2037 47.3729 64.6398 53.1979 84.3267 42.7519C88.1317 40.8589 91.2112 37.771 93.0937 33.9609C93.6224 35.4805 94.2518 36.9631 94.9778 38.3989C102.078 52.3269 117.297 56.3879 117.297 56.3879C122.406 13.6249 92.4297 11.6169 92.4297 11.6169H92.4247Z" fill="#CB6F2C"/>
<path id="Path_43623" fill-rule="evenodd" clip-rule="evenodd" d="M20.374 68.759C20.374 78.0374 27.8957 85.559 37.174 85.559V51.959C32.7175 51.9561 28.4426 53.7251 25.2914 56.8764C22.1402 60.0276 20.3711 64.3025 20.374 68.759H20.374Z" fill="#FF6100"/>
<path id="Path_43624" fill-rule="evenodd" clip-rule="evenodd" d="M130.192 82.1148H117.292V55.4028H130.192V82.1148Z" fill="#292929"/>
<path id="Path_43625" fill-rule="evenodd" clip-rule="evenodd" d="M143.049 68.76C143.049 59.4816 135.527 51.96 126.249 51.96V85.56C130.706 85.5629 134.98 83.7938 138.132 80.6426C141.283 77.4913 143.052 73.2165 143.049 68.76Z" fill="#EF3F00"/>
<path id="Path_43626" fill-rule="evenodd" clip-rule="evenodd" d="M81.7112 99.1208C80.1295 99.1167 78.8291 97.8729 78.7543 96.293C78.6797 94.7132 79.857 93.3523 81.4312 93.1989L118.06 89.6869V82.1158C118.09 80.4982 119.41 79.2024 121.028 79.2024C122.646 79.2024 123.965 80.4982 123.995 82.1158V92.3839C123.995 93.9125 122.834 95.1913 121.312 95.3378L81.9952 99.1078C81.8952 99.1158 81.8032 99.1208 81.7112 99.1208Z" fill="#292929"/>
<circle id="Ellipse_537" cx="81.7105" cy="96.1539" r="5.856" fill="#FF6100"/>
<path id="Path_43627" fill-rule="evenodd" clip-rule="evenodd" d="M81.1791 167.496L81.7151 134.351L70.9971 167.496H81.1791Z" fill="#FCCA03"/>
<path id="Path_43628" fill-rule="evenodd" clip-rule="evenodd" d="M92.4255 11.6168C73.3875 9.04077 61.7065 12.8958 54.6475 19.4378C90.3295 15.5238 93.0895 33.9608 93.0895 33.9608C93.6181 35.4803 94.2475 36.963 94.9735 38.3987C102.073 52.3268 117.292 56.3878 117.292 56.3878C122.406 13.6248 92.4255 11.6168 92.4255 11.6168Z" fill="#AF5819"/>
<g id="Group_7936">
<path id="Path_43629" fill-rule="evenodd" clip-rule="evenodd" d="M144.456 120.692C143.744 119.892 142.657 119.538 141.61 119.765C140.564 119.992 139.721 120.765 139.404 121.788C139.088 122.81 139.346 123.924 140.081 124.703L140.473 125.134C141.177 125.945 142.263 126.312 143.315 126.095C144.366 125.878 145.218 125.11 145.543 124.087C145.868 123.064 145.615 121.945 144.882 121.161L144.456 120.692Z" fill="#3A3A3A"/>
<path id="Path_43630" fill-rule="evenodd" clip-rule="evenodd" d="M151.893 130.413C151.336 129.495 150.325 128.95 149.252 128.987C148.178 129.025 147.209 129.641 146.717 130.596C146.226 131.551 146.289 132.697 146.882 133.593C153.297 143.71 156.696 155.446 156.682 167.426V167.501C156.684 168.284 156.999 169.034 157.556 169.584C158.113 170.134 158.867 170.439 159.65 170.431C161.297 170.413 162.621 169.072 162.618 167.426C162.633 154.322 158.914 141.483 151.895 130.415L151.893 130.413Z" fill="#3A3A3A"/>
<path id="Path_43631" fill-rule="evenodd" clip-rule="evenodd" d="M128.319 140.024C126.68 140.024 125.351 141.353 125.351 142.992V167.492C125.331 168.565 125.893 169.565 126.819 170.108C127.745 170.65 128.892 170.65 129.818 170.108C130.745 169.565 131.306 168.565 131.286 167.492V142.99C131.285 141.352 129.957 140.024 128.319 140.024H128.319Z" fill="#3A3A3A"/>
<path id="Path_43632" fill-rule="evenodd" clip-rule="evenodd" d="M35.0984 140.024C33.4592 140.024 32.1304 141.353 32.1304 142.992V167.492C32.1107 168.565 32.672 169.565 33.5982 170.108C34.5244 170.65 35.6713 170.65 36.5976 170.108C37.5238 169.565 38.0851 168.565 38.0654 167.492V142.99C38.0643 141.352 36.7363 140.024 35.0983 140.024H35.0984Z" fill="#3A3A3A"/>
<path id="Path_43633" fill-rule="evenodd" clip-rule="evenodd" d="M73.3281 61.9438C73.3281 60.3047 71.9993 58.9758 70.3601 58.9758H57.6001C55.9824 59.0055 54.6865 60.3254 54.6865 61.9433C54.6865 63.5613 55.9824 64.8812 57.6001 64.9108H62.9111C63.4458 67.2413 65.6141 68.8229 67.9966 68.6202C70.379 68.4174 72.2489 66.4922 72.3821 64.1048C72.9844 63.5471 73.3272 62.7637 73.3281 61.9428V61.9438Z" fill="#3A3A3A"/>
<path id="Path_43634" fill-rule="evenodd" clip-rule="evenodd" d="M91.0374 64.1039C91.1706 66.4912 93.0405 68.4165 95.423 68.6192C97.8054 68.822 99.9738 67.2404 100.508 64.9099H105.819C107.437 64.8802 108.733 63.5604 108.733 61.9424C108.733 60.3244 107.437 59.0045 105.819 58.9749H93.0604C91.8407 58.9698 90.7428 59.7136 90.2953 60.8483C89.8478 61.9831 90.1425 63.2761 91.0374 64.1049V64.1039Z" fill="#3A3A3A"/>
<path id="Path_43635" fill-rule="evenodd" clip-rule="evenodd" d="M59.9874 12.1979C59.7364 12.3229 59.4874 12.4509 59.2444 12.5809C58.2897 13.0674 57.6714 14.0307 57.6266 15.1013C57.5819 16.1719 58.1177 17.1835 59.0284 17.748C59.9392 18.3125 61.0836 18.3423 62.0224 17.8259L62.6434 17.5069C64.1097 16.774 64.7043 14.9912 63.9714 13.5249C63.2386 12.0585 61.4557 11.464 59.9894 12.1969L59.9874 12.1979Z" fill="#3A3A3A"/>
<path id="Path_43636" fill-rule="evenodd" clip-rule="evenodd" d="M126.251 48.9949C124.612 48.9949 123.283 50.3237 123.283 51.9629L123.283 52.4359H120.638C121.638 38.3609 118.866 27.2629 112.362 19.4249C107.429 13.4688 100.408 9.62021 92.7337 8.66487C85.0598 7.46523 77.2392 7.5575 69.5957 8.93787C68.0081 9.28557 66.9954 10.8455 67.324 12.4372C67.6525 14.0289 69.2002 15.0603 70.7957 14.7509C77.811 13.5006 84.9861 13.433 92.0237 14.5509C92.0917 14.5509 92.1577 14.5659 92.2237 14.5709C98.3173 15.3808 103.879 18.4655 107.793 23.2059C113.334 29.8849 115.656 39.6559 114.714 52.2849C107.436 49.3136 101.399 43.9332 97.6137 37.0439C96.948 35.727 96.3707 34.3674 95.8857 32.9738C95.487 31.8425 94.4465 31.0624 93.2488 30.9967C92.0511 30.9311 90.9316 31.5929 90.4117 32.6739C88.7942 35.9084 86.167 38.5279 82.9277 40.1359C77.1042 43.1954 70.9086 45.4868 64.4958 46.9528C58.2837 48.5589 53.0957 49.8989 47.9307 55.0739C46.9527 47.1039 46.6847 33.0789 54.6547 23.7019C55.6841 22.4498 55.5194 20.6036 54.2847 19.5535C53.0501 18.5033 51.2014 18.637 50.1307 19.8539C41.7637 29.7069 40.9837 43.2259 41.6857 52.4299H40.1377V40.1849C40.1377 21.3189 58.7917 5.97186 81.7107 5.97186C104.63 5.97186 123.284 21.3169 123.284 40.1849C123.264 41.258 123.825 42.2583 124.751 42.8006C125.678 43.343 126.825 43.343 127.751 42.8006C128.677 42.2583 129.238 41.258 129.219 40.1849C129.219 18.0479 107.906 0.0368652 81.7107 0.0368652C55.5157 0.0368652 34.2027 18.0459 34.2027 40.1849V82.2699C29.268 81.1845 25.3179 77.4946 23.8992 72.6452C22.4805 67.7958 23.8191 62.5588 27.3907 58.9848C28.5505 57.8251 28.5505 55.9447 27.3907 54.7849C26.2309 53.6251 24.3505 53.6251 23.1907 54.7849C17.5335 60.4372 15.8398 68.9415 18.8999 76.3299C21.9599 83.7184 29.1707 88.5347 37.1677 88.5319C38.8069 88.5319 40.1357 87.203 40.1357 85.5639V85.0809H43.7227C44.716 90.8479 47.016 96.311 50.4467 101.052C21.0791 109.86 0.92453 136.836 0.803711 167.496C0.805527 168.279 1.12003 169.029 1.67733 169.579C2.23463 170.129 2.98859 170.434 3.77168 170.426C5.41603 170.408 6.73981 169.07 6.73971 167.426C6.86877 138.414 26.6084 113.164 54.7311 106.038C59.7824 111.001 66.1043 114.475 73.0017 116.079L65.0927 122.238L53.3807 113.245C52.5412 112.578 51.4073 112.415 50.4144 112.82C49.4215 113.225 48.7239 114.133 48.5897 115.197C48.4555 116.261 48.9054 117.314 49.7667 117.953L63.2957 128.338C64.3664 129.16 65.8566 129.155 66.9227 128.328L69.6617 126.201L78.3427 135.141L68.1777 166.585C67.6737 168.144 68.5293 169.817 70.0887 170.321C71.6481 170.825 73.3207 169.969 73.8247 168.41L81.7137 144.001L89.6027 168.409C90.1067 169.968 91.7793 170.824 93.3387 170.32C94.8981 169.816 95.7537 168.143 95.2497 166.584L85.0837 135.138L93.7647 126.198L96.5037 128.323C97.5698 129.15 99.0601 129.155 100.131 128.333L122.411 111.233C126.084 113.118 129.564 115.359 132.8 117.923C134.082 118.945 135.949 118.733 136.971 117.451C137.993 116.169 137.782 114.302 136.5 113.28C129.511 107.736 121.519 103.591 112.962 101.07C114.158 99.415 115.22 97.6678 116.14 95.8448L121.295 95.3449C122.817 95.1986 123.979 93.9199 123.979 92.3909L123.979 87.4529C124.537 88.13 125.367 88.5233 126.245 88.5259C137.161 88.5259 146.011 79.6763 146.011 68.7598C146.011 57.8434 137.161 48.9939 126.245 48.9939L126.251 48.9949ZM123.283 79.1449H120.244C120.244 78.9399 120.259 78.7359 120.259 78.5309V58.3709H123.283V79.1449ZM40.1387 79.1449V58.3709H42.3937C42.7037 60.2859 43.0097 61.6589 43.1617 62.3019V78.5339C43.1617 78.7409 43.1737 78.9429 43.1767 79.1479L40.1387 79.1449ZM81.7137 130.092L74.3777 122.537L81.4107 117.077H82.0207L89.0537 122.537L81.7137 130.092ZM98.3327 122.234L90.4097 116.082C97.3049 114.48 103.625 111.009 108.677 106.05C111.261 106.691 113.801 107.496 116.283 108.46L98.3327 122.234ZM81.7137 111.148C63.7088 111.129 49.1171 96.5388 49.0967 78.5339V62.9019C54.2727 55.7509 58.7427 54.5769 65.9857 52.7019C72.8482 51.1136 79.4784 48.6508 85.7137 45.3739C88.2798 44.0433 90.5861 42.2627 92.5227 40.1169C98.6017 51.6929 109.635 56.8019 114.323 58.5269V78.5368C114.317 82.5462 113.566 86.5214 112.108 90.2583L89.6667 92.4069C87.8454 88.5237 83.4942 86.5143 79.3571 87.6457C75.2199 88.7771 72.497 92.7213 72.9053 96.9908C73.3136 101.26 76.7348 104.617 81.0113 104.944C85.2879 105.271 89.1794 102.473 90.2317 98.3149L108.886 96.5259C102.854 105.649 92.6503 111.14 81.7137 111.148ZM129.222 82.2699V55.2499C135.564 56.646 140.081 62.2656 140.081 68.7594C140.081 75.2531 135.564 80.8727 129.222 82.2688L129.222 82.2699Z" fill="#3A3A3A"/>
</g>
</g>
</g>
</g>
<defs>
<linearGradient id="paint0_linear_0_1" x1="478.062" y1="150.272" x2="-155.594" y2="-129.792" gradientUnits="userSpaceOnUse">
<stop stop-color="#2855AE"/>
<stop offset="1" stop-color="#7292CF"/>
</linearGradient>
<clipPath id="clip0_0_1">
<rect width="375" height="812" fill="white" transform="translate(-106 -242)"/>
</clipPath>
</defs>
</svg>
