<svg width="374" height="132" viewBox="0 0 374 132" fill="none" xmlns="http://www.w3.org/2000/svg">
<mask id="mask0_0_1681" style="mask-type:luminance" maskUnits="userSpaceOnUse" x="0" y="0" width="375" height="132">
<rect y="0.156006" width="374.788" height="131.844" fill="white"/>
</mask>
<g mask="url(#mask0_0_1681)">
<mask id="mask1_0_1681" style="mask-type:luminance" maskUnits="userSpaceOnUse" x="-1" y="17" width="376" height="129">
<rect x="-0.0371094" y="17.6121" width="374.825" height="128.388" fill="white"/>
</mask>
<g mask="url(#mask1_0_1681)">
<path fill-rule="evenodd" clip-rule="evenodd" d="M283.074 133.412C287.337 126.175 291.355 116.997 287.231 113.958C275.69 105.385 275.69 133.741 263.82 119.564C257.556 112.31 244.037 72.4131 229.859 83.9541C217.659 93.8461 241.399 114.948 231.837 123.854C223.264 132.097 217.659 105.06 210.075 106.379C201.175 107.698 201.175 128.471 191.281 125.173C179.74 121.546 196.886 95.8281 183.368 92.8601C168.201 89.2331 167.868 114.951 159.628 120.227C157.979 118.579 157.65 116.6 156.99 113.962C155.012 107.038 148.747 72.4171 136.877 78.6821C122.699 86.2651 139.515 108.682 138.525 118.582C137.206 133.419 117.753 104.734 113.466 104.404C100.866 103.545 117.623 125.827 123.752 133.42L283.074 133.412Z" fill="#90CCD6"/>
<path fill-rule="evenodd" clip-rule="evenodd" d="M18.5597 23.1401C13.9277 23.1531 9.07269 24.0851 5.44672 27.1551C2.55444 29.7637 0.713013 33.3378 0.2677 37.2071C-0.0302124 39.3587 -0.0778809 41.5376 0.125732 43.7001C0.269104 46.1164 0.904419 48.478 1.99274 50.6401C4.3407 54.7652 8.23267 57.7872 12.8107 59.0401C17.0193 60.3672 21.5473 60.2755 25.6987 58.7791C28.6686 57.5871 31.2227 55.5487 33.0437 52.9171C36.6688 47.5356 37.6615 40.8018 35.7437 34.6031C34.8486 31.6121 33.1343 28.9314 30.7947 26.8641C28.1774 24.6864 24.939 23.3914 21.5417 23.1641C20.5499 23.0858 19.554 23.0754 18.5608 23.1331C18.1607 23.1551 18.1607 23.7731 18.5607 23.7511C22.0485 23.4657 25.5403 24.2503 28.5707 26.0001C31.1163 27.6045 33.1281 29.9287 34.3507 32.6781C36.8292 38.3752 36.6348 44.8812 33.8207 50.4201C32.4648 53.1369 30.3864 55.4274 27.8137 57.0401C24.505 58.9336 20.6693 59.6971 16.8877 59.2151C12.2106 58.8247 7.84125 56.7246 4.61475 53.3161C3.02014 51.5439 1.87402 49.415 1.27271 47.1081C0.761963 44.9396 0.544373 42.7125 0.625732 40.4861C0.542175 36.6068 1.70166 32.8024 3.93469 29.6291C6.51874 26.2701 10.5347 24.5721 14.6407 24.0081C15.9404 23.8378 17.2499 23.7543 18.5607 23.7581C18.7314 23.7581 18.8697 23.6198 18.8697 23.4491C18.8697 23.2785 18.7314 23.1401 18.5607 23.1401" fill="#003849"/>
<path fill-rule="evenodd" clip-rule="evenodd" d="M7.05408 26.9301C9.10608 28.1431 11.7401 28.7231 13.4311 30.4801C15.475 32.6031 12.8981 34.9341 11.2551 36.2801C10.3149 36.9488 9.51794 37.7988 8.91107 38.7801C8.35876 39.8786 8.23065 41.1421 8.55109 42.3291C8.88348 43.3581 9.50903 44.2676 10.3511 44.9461C11.2156 45.5794 11.9568 46.3657 12.5381 47.2661C13.2841 48.7431 12.548 50.5111 11.6381 51.7351C10.4433 53.1929 8.97034 54.3983 7.30505 55.2811C7.17065 55.3729 7.13013 55.5529 7.21222 55.6935C7.29431 55.834 7.47113 55.8871 7.61707 55.8151C10.178 54.3151 13.282 52.0431 13.4551 48.7801C13.5941 46.1621 11.04 45.2091 9.72906 43.3801C8.94861 42.2335 8.77625 40.7783 9.26709 39.4811C9.83582 38.3448 10.6905 37.376 11.7471 36.6701C13.3951 35.3251 15.7911 33.1131 14.436 30.7771C13.66 29.692 12.5934 28.848 11.3591 28.3421C10.0411 27.6721 8.64508 27.1501 7.37006 26.3961C7.22382 26.3213 7.04462 26.3736 6.96155 26.5154C6.87848 26.6571 6.92035 26.839 7.05707 26.9301" fill="#003849"/>
<path fill-rule="evenodd" clip-rule="evenodd" d="M19.2072 23.7451C18.4512 26.0451 17.9391 28.8681 18.8622 31.1921C19.7402 33.4031 21.9172 34.1051 24.1061 34.2511C25.0022 34.2225 25.8972 34.3335 26.7592 34.5801C27.6882 34.9561 27.7012 35.9441 27.5502 36.8081C27.2621 38.4611 26.3372 39.8291 25.7881 41.3871C25.2737 42.9061 25.5192 44.5798 26.4482 45.8871C28.3052 48.7601 31.8192 48.5711 34.8262 48.9131C35.2212 48.9581 35.2172 48.3391 34.8262 48.2951C32.1772 47.9951 28.8732 48.2281 27.1262 45.7901C26.573 45.0613 26.2237 44.1985 26.1141 43.2901C26.0871 42.4909 26.2589 41.6975 26.6142 40.9811C27.3248 39.6515 27.8525 38.232 28.1832 36.7611C28.3896 35.9612 28.2114 35.1108 27.7012 34.4611C27.1435 34.0004 26.4445 33.7455 25.7212 33.7391C23.7592 33.5321 21.4582 33.7291 20.0572 32.0391C18.2812 29.8931 19.0192 26.3091 19.8082 23.9131C19.9332 23.5341 19.3362 23.3721 19.2082 23.7491" fill="#003849"/>
<path fill-rule="evenodd" clip-rule="evenodd" d="M15.3747 59.1641C17.1718 57.2306 18.0536 54.6193 17.7967 51.9921C17.4353 50.0573 16.8723 48.1656 16.1167 46.3481C15.4507 44.7453 15.243 42.9891 15.5167 41.2751C15.8807 39.8861 17.6847 38.6111 19.0667 39.5241C20.2327 40.2951 20.4437 42.1871 20.5967 43.4441C20.7967 45.0591 20.7967 46.6891 20.9847 48.3061C21.0685 48.8695 21.1823 49.428 21.3257 49.9791C21.5347 50.9211 21.3877 51.9201 21.6257 52.8621C21.7477 53.3301 22.0597 54.0621 22.5977 54.1811C23.0747 54.2811 23.4067 53.8451 23.6197 53.4871C23.9919 52.7681 24.3176 52.0259 24.5947 51.2652C24.7341 50.9146 24.9048 50.5772 25.1047 50.2571C25.3707 49.8571 25.5837 49.8091 26.0807 49.7841C28.8017 49.6511 29.7107 52.7001 30.5497 54.7411C30.6987 55.1041 31.2977 54.9411 31.1497 54.5771C30.4177 52.7961 29.6947 50.3241 27.7787 49.4621C26.9615 49.0753 26.0247 49.0264 25.1717 49.3261C24.6762 49.6972 24.3111 50.2156 24.1287 50.8071C23.8287 51.4871 23.5857 52.1961 23.2557 52.8631C23.0287 53.3221 22.8127 53.8631 22.4477 53.2341C22.0932 52.2886 21.9357 51.2807 21.9847 50.2721C21.9207 49.6721 21.7047 49.1011 21.6247 48.4971C21.4067 46.8411 21.4197 45.1621 21.2247 43.5041C21.0597 42.1111 20.8397 40.4161 19.8247 39.3541C18.7025 38.382 17.0281 38.4113 15.9407 39.4221C14.6497 40.5081 14.6407 42.3921 14.8777 43.9221C15.2944 45.8117 15.8701 47.6626 16.5987 49.4551C17.119 50.9099 17.3182 52.4601 17.1827 53.9991C16.9328 55.7648 16.1507 57.4123 14.9407 58.7221C14.6807 59.0221 15.1157 59.4601 15.3787 59.1601" fill="#003849"/>
<path fill-rule="evenodd" clip-rule="evenodd" d="M5.54291 30.1611C5.87891 30.4981 6.18591 30.8611 6.5509 31.1701C6.61035 31.2262 6.68823 31.2586 6.76996 31.2611C6.85193 31.26 6.93036 31.2274 6.98895 31.1701C7.10754 31.0482 7.10754 30.854 6.98895 30.7321C6.6239 30.4261 6.31592 30.0601 5.98096 29.7231C5.85999 29.6025 5.66412 29.6028 5.54352 29.7237C5.42285 29.8446 5.42303 30.0404 5.54395 30.1611" fill="#003849"/>
<path fill-rule="evenodd" clip-rule="evenodd" d="M10.9003 33.3171L10.2072 34.0101C10.15 34.0687 10.1174 34.1471 10.1162 34.2291C10.1162 34.3997 10.2546 34.5381 10.4252 34.5381C10.5068 34.5363 10.5846 34.5038 10.6432 34.4471L11.3372 33.7541C11.3942 33.6953 11.4263 33.6169 11.4272 33.5351C11.4275 33.453 11.395 33.3743 11.337 33.3163C11.2791 33.2583 11.2003 33.2258 11.1182 33.2261C11.0364 33.2277 10.9582 33.2602 10.8992 33.3171" fill="#003849"/>
<path fill-rule="evenodd" clip-rule="evenodd" d="M3.90368 37.0354C4.03064 37.1611 4.15686 37.2877 4.28241 37.4154C4.3413 37.4725 4.41989 37.5048 4.50183 37.5056C4.54324 37.5075 4.58433 37.4986 4.62109 37.4795C4.65937 37.4669 4.6938 37.4448 4.72132 37.4154C4.77929 37.357 4.81201 37.2781 4.8125 37.1958C4.81097 37.1137 4.77844 37.0353 4.72132 36.9763L4.34253 36.5963C4.28351 36.5395 4.20505 36.5072 4.1231 36.5061C4.08176 36.5042 4.04067 36.5132 4.00391 36.5322C3.96569 36.5449 3.93126 36.567 3.90368 36.5963C3.84577 36.6548 3.81305 36.7336 3.8125 36.8159C3.81409 36.898 3.84669 36.9764 3.90368 37.0354Z" fill="#003849"/>
<path fill-rule="evenodd" clip-rule="evenodd" d="M5.68341 43.2151L5.65039 43.2591L5.69836 43.1971C5.53839 43.4042 5.35254 43.5901 5.14539 43.7501L5.20441 43.7051L5.1604 43.7391C5.12531 43.7582 5.0954 43.7857 5.07336 43.8191C5.04663 43.849 5.02771 43.8851 5.01837 43.9241C4.99713 44.0044 5.00824 44.0899 5.04938 44.1621C5.09021 44.2317 5.15656 44.2826 5.23438 44.3041C5.31458 44.3273 5.40082 44.3161 5.47241 44.2731C5.75934 44.0688 6.01013 43.818 6.21436 43.5311C6.25616 43.4591 6.26733 43.3734 6.24536 43.2931C6.224 43.2147 6.17358 43.1475 6.10437 43.1051C6.03235 43.0635 5.94666 43.0524 5.86639 43.0741L5.79236 43.1051C5.74664 43.1321 5.70843 43.1703 5.6814 43.2161" fill="#003849"/>
<path fill-rule="evenodd" clip-rule="evenodd" d="M6.58038 51.061H8.47241C8.64264 51.0601 8.78033 50.8365 8.78033 50.561C8.78033 50.2856 8.64264 50.062 8.47241 50.061H6.58038C6.41016 50.062 6.27246 50.2856 6.27246 50.561C6.27246 50.8365 6.41016 51.0601 6.58038 51.061Z" fill="#003849"/>
<path fill-rule="evenodd" clip-rule="evenodd" d="M17.7691 43.843C18.0468 43.5325 18.3416 43.2377 18.6521 42.96C18.7102 42.9019 18.7429 42.8232 18.7431 42.741C18.7424 42.659 18.7097 42.5804 18.6521 42.522C18.5939 42.4641 18.5153 42.4314 18.4331 42.431C18.3519 42.4357 18.2747 42.4678 18.2141 42.522C17.9038 42.7999 17.609 43.0947 17.3311 43.405C17.2101 43.5257 17.21 43.7216 17.3306 43.8425C17.4513 43.9635 17.6472 43.9637 17.7681 43.843" fill="#003849"/>
<path fill-rule="evenodd" clip-rule="evenodd" d="M18.0263 48.5561C18.4177 48.7417 18.8217 48.8994 19.2353 49.0281C19.3997 49.0723 19.5692 48.976 19.6153 48.8121C19.6567 48.648 19.5615 48.4805 19.3994 48.4321C19.2133 48.3701 19.0263 48.3071 18.8423 48.2391L18.7113 48.1891L18.6303 48.1561C18.6123 48.1491 18.5473 48.1271 18.6234 48.1561C18.5261 48.1178 18.4313 48.0737 18.3393 48.0241C18.1919 47.9379 18.0025 47.9876 17.9163 48.1351C17.8301 48.2825 17.8799 48.4719 18.0273 48.5581" fill="#003849"/>
<path fill-rule="evenodd" clip-rule="evenodd" d="M19.4291 55.6361C19.2945 55.9051 19.1841 56.1851 19.0495 56.4551C19.0096 56.5278 18.9986 56.6127 19.0185 56.6931C19.0407 56.7706 19.0916 56.8368 19.161 56.8781C19.2336 56.9219 19.3209 56.9345 19.403 56.9131C19.4815 56.8927 19.5485 56.8415 19.5887 56.7711C19.7232 56.5011 19.8336 56.2211 19.9682 55.9521C20.0079 55.8794 20.019 55.7946 19.9993 55.7141C19.9769 55.6368 19.9259 55.5707 19.8567 55.5291C19.7844 55.4876 19.6984 55.4764 19.6178 55.4981C19.5395 55.5193 19.4728 55.5703 19.4321 55.6401" fill="#003849"/>
<path fill-rule="evenodd" clip-rule="evenodd" d="M25.6649 55.4391C25.9989 55.5591 26.3469 55.6372 26.6739 55.7775C26.7542 55.801 26.8399 55.7891 26.9119 55.7443C26.9827 55.7001 27.0343 55.6275 27.0551 55.5425C27.0759 55.4575 27.0643 55.3672 27.0229 55.2913C26.9789 55.2199 26.9137 55.1663 26.8379 55.1392C26.5109 54.999 26.1629 54.9251 25.8299 54.8008C25.6652 54.7535 25.4955 54.8565 25.4489 55.0321C25.4081 55.2078 25.5031 55.3868 25.6649 55.4391" fill="#003849"/>
<path fill-rule="evenodd" clip-rule="evenodd" d="M32.9053 43.4681C32.4818 43.9513 32.1552 44.5115 31.9433 45.1181C31.8992 45.2826 31.9954 45.4519 32.1594 45.4981C32.3236 45.5388 32.4909 45.4433 32.5393 45.2811C32.5613 45.2151 32.5853 45.1481 32.6103 45.0811L32.6303 45.0321C32.6623 44.9541 32.6143 45.0661 32.6303 45.0221L32.6733 44.9271C32.7333 44.7971 32.8013 44.6711 32.8733 44.5481C32.9453 44.4251 33.0193 44.3151 33.0993 44.2031L33.1603 44.1201L33.1833 44.0901C33.1613 44.1191 33.1953 44.0751 33.1993 44.0711C33.2443 44.0141 33.2903 43.9581 33.3373 43.9031C33.4583 43.7824 33.4585 43.5866 33.3378 43.4656C33.2172 43.3447 33.0212 43.3444 32.9003 43.4651" fill="#003849"/>
<path fill-rule="evenodd" clip-rule="evenodd" d="M29.8889 39.533C30.1769 39.6516 30.4716 39.7479 30.7709 39.8212C30.9366 39.873 31.1076 39.7614 31.1529 39.5718C31.1982 39.3823 31.1006 39.1867 30.9349 39.1349C30.6356 39.0616 30.3409 38.9653 30.0529 38.8467C29.9727 38.8212 29.8868 38.834 29.8149 38.8821C29.7459 38.9297 29.6952 39.0052 29.6729 39.0938C29.6512 39.1856 29.6624 39.2835 29.7039 39.366C29.748 39.4422 29.8131 39.4994 29.8889 39.5284" fill="#003849"/>
<path fill-rule="evenodd" clip-rule="evenodd" d="M30.3425 31.1841C30.2104 31.577 30.1134 31.9782 30.0525 32.3841C30.0303 32.4647 30.0435 32.5495 30.0893 32.6221C30.1614 32.7297 30.3007 32.7891 30.4427 32.7729C30.5848 32.7568 30.7018 32.6682 30.7396 32.5481C30.8009 32.1423 30.8979 31.7411 31.0297 31.3481C31.0805 31.1837 30.9697 31.0143 30.7811 30.9681C30.5922 30.9268 30.3994 31.022 30.3437 31.1841" fill="#003849"/>
<path fill-rule="evenodd" clip-rule="evenodd" d="M23.1955 28.882C23.5603 29.1158 23.9394 29.3265 24.3304 29.513C24.4779 29.5992 24.6673 29.5495 24.7535 29.4021C24.8396 29.2546 24.7899 29.0652 24.6425 28.979C24.2512 28.7929 23.8721 28.5822 23.5074 28.348C23.3598 28.2635 23.1716 28.3129 23.0845 28.459C23.0027 28.6071 23.0516 28.7932 23.1955 28.882Z" fill="#003849"/>
<path fill-rule="evenodd" clip-rule="evenodd" d="M63.4377 88.3141C61.7448 86.4659 59.3705 85.3891 56.8647 85.3331C54.3306 85.3318 52.0386 86.8383 51.0347 89.1651C48.8347 93.7141 49.8297 100.29 53.9237 103.465C57.8077 106.48 63.4407 106.11 67.7987 104.423C70.303 103.476 72.4178 101.718 73.8057 99.4281C75.2429 97.1504 75.8569 94.4493 75.5457 91.7741C75.0995 88.9839 73.0931 86.6967 70.3847 85.8911C67.7457 85.1111 64.5436 85.8441 63.0746 88.3121C63.0027 88.4581 63.0558 88.6349 63.1963 88.717C63.3368 88.7991 63.5169 88.7585 63.6087 88.6241C64.8797 86.4891 67.6087 85.8391 69.9087 86.4031C72.2506 86.9812 74.1036 88.7693 74.7647 91.0891C75.2924 93.5044 74.9376 96.0288 73.7647 98.2051C72.6868 100.427 70.9095 102.234 68.7057 103.348C64.8837 105.275 59.6057 105.891 55.7057 103.873C51.3307 101.611 49.7817 96.0731 50.8617 91.4971C51.4897 88.8361 53.1747 86.3201 56.0807 85.9871C58.6905 85.7806 61.2477 86.8009 62.9987 88.7471C63.2677 89.0411 63.7037 88.6031 63.4367 88.3091" fill="#003849"/>
<path fill-rule="evenodd" clip-rule="evenodd" d="M63.5358 88.1671C63.7117 85.3311 63.8118 80.8611 67.2698 80.0561C67.6567 79.9651 67.4938 79.3701 67.1057 79.4561C63.3168 80.3381 63.1138 85.0261 62.9177 88.1631C62.8928 88.5631 63.5107 88.5631 63.5358 88.1631" fill="#003849"/>
<path fill-rule="evenodd" clip-rule="evenodd" d="M63.8866 84.1061C63.9542 83.2511 63.6777 82.4045 63.1187 81.7541C62.6482 81.0258 61.9211 80.5011 61.0816 80.2841C60.6602 80.2379 60.238 80.3644 59.9114 80.6348C59.5848 80.9053 59.3818 81.2964 59.3486 81.7191C59.3563 82.6695 59.9008 83.5338 60.7546 83.9511C61.6135 84.5862 62.7214 84.7796 63.7446 84.4731C63.8908 84.386 63.9402 84.1978 63.8557 84.0501C63.7668 83.9062 63.5807 83.8574 63.4326 83.9391C63.3113 83.9806 63.1854 84.0075 63.0576 84.0191C62.8906 84.0286 62.723 84.0206 62.5576 83.9951C62.1526 83.9274 61.761 83.7954 61.3976 83.6041C60.7866 83.2871 60.0526 82.7321 59.9636 82.0361C59.942 81.7172 60.0464 81.4026 60.2546 81.1601C60.3348 81.0606 60.4377 80.9817 60.5546 80.9301C60.6595 80.8851 60.7742 80.8679 60.8876 80.8801C60.9046 80.8801 60.9876 80.8891 60.9656 80.8861L61.0457 80.9021C61.1234 80.9205 61.1999 80.9439 61.2747 80.9721C61.4143 81.0321 61.5482 81.1048 61.6746 81.1891C61.9752 81.394 62.2447 81.6412 62.4746 81.9231C62.7393 82.2366 62.9563 82.5874 63.1187 82.9641C63.1906 83.1408 63.2455 83.324 63.2827 83.5111C63.2973 83.5855 63.3047 83.6612 63.3046 83.7371C63.3046 83.7791 63.3046 83.8201 63.3046 83.8611C63.3046 83.8761 63.3046 83.8911 63.3046 83.9071C63.2976 84.0071 63.3156 83.8491 63.3046 83.9431C63.2644 84.107 63.3592 84.2738 63.5206 84.3231C63.685 84.3667 63.854 84.2706 63.9006 84.1071" fill="#003849"/>
<path fill-rule="evenodd" clip-rule="evenodd" d="M60.8092 82.1101C61.5617 82.9429 62.3997 83.6944 63.3092 84.3521C63.4567 84.4382 63.6461 84.3885 63.7322 84.2411C63.8184 84.0936 63.7687 83.9043 63.6212 83.8181C62.7567 83.1882 61.9609 82.4689 61.2472 81.6721C61.1249 81.5598 60.9358 81.5638 60.8184 81.6813C60.7009 81.7987 60.6969 81.9878 60.8092 82.1101" fill="#003849"/>
<path fill-rule="evenodd" clip-rule="evenodd" d="M55.949 87.8691C55.0982 88.1499 54.3614 88.699 53.849 89.4341C53.3757 90.1868 53.0825 91.0385 52.9921 91.9231C52.9534 92.0868 53.0476 92.2526 53.208 92.3031C53.3727 92.3473 53.5424 92.2511 53.5891 92.0871C53.6678 91.2874 53.9214 90.5148 54.332 89.8241C54.7581 89.1846 55.3856 88.7058 56.1151 88.4641C56.488 88.3331 56.328 87.7351 55.9511 87.8641" fill="#003849"/>
<path fill-rule="evenodd" clip-rule="evenodd" d="M245.793 104.398C247.898 110.617 250.026 116.829 252.177 123.033C254.151 128.733 256.135 134.433 258.185 140.105C258.871 142.005 259.552 143.905 260.301 145.778C260.329 145.869 260.396 145.942 260.484 145.978C260.572 146.014 260.672 146.008 260.755 145.963C264.289 144.378 267.976 143.122 271.619 141.816C276.262 140.152 280.912 138.502 285.505 136.702C287.995 135.726 290.469 134.702 292.905 133.602C293.026 133.531 293.084 133.388 293.047 133.253C289.785 123.187 286.495 113.143 282.579 103.309C281.318 100.144 280.018 96.994 278.704 93.852C278.655 93.6902 278.488 93.5952 278.324 93.636C268.586 96.464 258.955 99.636 249.356 102.902C248.243 103.28 247.133 103.671 246.012 104.022C245.634 104.141 245.795 104.738 246.177 104.622C248.8 103.799 251.39 102.863 253.994 101.985C258.845 100.351 263.711 98.7647 268.594 97.226C271.883 96.196 275.183 95.1994 278.494 94.236L278.113 94.02C282.154 103.683 285.886 113.429 289.177 123.374C290.284 126.719 291.377 130.068 292.456 133.422L292.598 133.073C283.887 137.037 274.748 139.942 265.798 143.291C263.998 143.964 262.205 144.653 260.453 145.438L260.908 145.623C259.279 141.549 257.863 137.384 256.408 133.248C254.2 126.985 252.023 120.712 249.876 114.429C248.712 111.036 247.555 107.64 246.404 104.243C246.277 103.868 245.679 104.029 245.804 104.407" fill="#003849"/>
<path fill-rule="evenodd" clip-rule="evenodd" d="M251.028 102.636C252.664 107.499 254.316 112.356 255.984 117.209C258.05 123.26 260.123 129.31 262.203 135.357C263.136 138.062 264.069 140.767 265.003 143.471C265.133 143.845 265.729 143.684 265.603 143.307C263.771 138.014 261.948 132.717 260.135 127.418C258.105 121.493 256.08 115.567 254.06 109.64C253.247 107.252 252.437 104.863 251.631 102.473C251.504 102.098 250.907 102.258 251.031 102.637" fill="#003849"/>
<path fill-rule="evenodd" clip-rule="evenodd" d="M267.724 109.31C264.287 110.51 263.258 110.745 261.28 112.662C260.229 113.713 260.229 115.444 261.96 115.568C263.876 115.692 266.597 114.455 268.39 113.775C270.306 113.033 272.161 112.168 273.954 111.302C275.005 110.746 276.241 110.189 276.18 108.891C276.056 106.665 272.223 107.407 267.725 109.31" fill="#003849"/>
<path fill-rule="evenodd" clip-rule="evenodd" d="M264.537 122.785C269.374 121.168 274.128 119.319 278.88 117.468C279.246 117.325 279.087 116.727 278.715 116.868C273.964 118.719 269.21 120.568 264.372 122.185C263.997 122.311 264.157 122.908 264.537 122.785Z" fill="#003849"/>
<path fill-rule="evenodd" clip-rule="evenodd" d="M263.232 120.029C268.069 118.412 272.823 116.563 277.575 114.712C277.941 114.569 277.782 113.971 277.41 114.112C272.659 115.963 267.905 117.812 263.067 119.429C262.692 119.555 262.852 120.152 263.232 120.029Z" fill="#003849"/>
<path fill-rule="evenodd" clip-rule="evenodd" d="M283.152 38.6821C280.711 41.2601 280.527 45.5191 282.026 48.6151C284.166 52.471 288.761 54.2402 292.935 52.8151C296.568 51.3756 299.126 48.0677 299.605 44.1891C299.809 40.312 297.518 36.7366 293.91 35.3021C292.141 34.523 290.16 34.3665 288.291 34.8581C286.168 35.5189 284.336 36.889 283.103 38.7391C282.871 39.0621 283.403 39.3721 283.637 39.0511C285.72 36.1511 289.068 34.4881 292.621 35.4941C296.046 36.4197 298.569 39.3276 299.003 42.8491C299.093 46.3401 297.304 49.6114 294.317 51.4201C292.486 52.6343 290.226 53.0172 288.097 52.4741C286.146 52.0165 284.407 50.9131 283.162 49.3431C281.126 46.4521 281.09 41.7601 283.586 39.1231C283.86 38.8341 283.423 38.3961 283.149 38.6851" fill="#003849"/>
<path fill-rule="evenodd" clip-rule="evenodd" d="M285.365 40.3711C283.28 42.5181 283.575 46.9631 285.875 48.8011C287.975 50.4011 290.504 51.0371 292.946 49.6351C296.518 47.5911 298.356 42.6481 294.718 39.2941C293.427 37.9849 291.606 37.3427 289.779 37.5531C287.953 37.7634 286.325 38.8028 285.365 40.3711" fill="#5596A5"/>
<path fill-rule="evenodd" clip-rule="evenodd" d="M286.752 46.322C287.038 45.122 287.325 43.9193 287.612 42.714C287.705 42.327 287.112 42.163 287.012 42.55C286.726 43.75 286.439 44.9527 286.152 46.158C286.06 46.545 286.652 46.71 286.752 46.322Z" fill="#003849"/>
<path fill-rule="evenodd" clip-rule="evenodd" d="M289.614 47.713C290.251 45.043 290.928 42.381 291.565 39.713C291.658 39.326 291.065 39.162 290.964 39.549C290.328 42.22 289.651 44.881 289.014 47.549C288.922 47.936 289.514 48.1 289.614 47.713Z" fill="#003849"/>
<path fill-rule="evenodd" clip-rule="evenodd" d="M293.192 45.1531C293.365 44.4261 293.497 43.6891 293.712 42.9721C293.757 42.8064 293.66 42.6354 293.494 42.5901C293.328 42.5448 293.157 42.6424 293.112 42.8081C292.897 43.5251 292.765 44.2621 292.592 44.9891C292.547 45.1547 292.644 45.3258 292.81 45.371C292.976 45.4163 293.147 45.3187 293.192 45.1531Z" fill="#003849"/>
<path fill-rule="evenodd" clip-rule="evenodd" d="M297.482 49.0351C300.375 50.1421 303.304 51.1621 306.243 52.1351C307.838 52.7806 309.541 53.1199 311.263 53.1351C312.162 53.0851 314.104 52.7931 314.409 51.7491C314.808 50.3751 312.525 49.4261 311.615 49.0181C309.397 48.0746 307.106 47.3127 304.765 46.7401C302.897 46.1984 300.999 45.7696 299.081 45.4561C298.692 45.4021 298.523 45.9981 298.915 46.0561C300.351 46.2887 301.774 46.5958 303.178 46.9761C305.376 47.4994 307.544 48.1417 309.672 48.9001C310.602 49.2247 311.505 49.6216 312.373 50.0871C312.841 50.3481 313.573 50.7221 313.779 51.2621C314.1 52.0911 312.219 52.4001 311.672 52.4801C309.993 52.5874 308.313 52.3057 306.762 51.6571C303.702 50.6501 300.652 49.5881 297.645 48.4361C297.273 48.2941 297.111 48.8911 297.48 49.0361" fill="#003849"/>
<path fill-rule="evenodd" clip-rule="evenodd" d="M109.033 107.938C106.333 99.752 94.9991 99.261 88.55 102.913C87.7669 103.351 87.035 103.876 86.368 104.476C86.0327 104.779 85.7198 105.106 85.4321 105.455C85.2 105.725 85.0859 106.076 85.1151 106.431C85.045 108.184 84.989 109.937 84.936 111.69C84.7934 116.42 84.6744 121.15 84.579 125.881C84.497 129.907 84.361 133.946 84.45 137.973C84.4523 138.083 84.512 138.183 84.6071 138.238C84.7023 138.293 84.8192 138.293 84.915 138.24C90.558 135.533 97.497 133.171 103.715 135.24C105.538 135.857 107.203 136.866 108.593 138.196C108.693 138.294 108.846 138.313 108.968 138.244C111.852 135.983 115.382 134.703 119.045 134.589C122.182 134.662 125.265 135.413 128.085 136.789C129.668 137.505 131.199 138.328 132.715 139.175C132.811 139.229 132.928 139.228 133.023 139.174C133.119 139.119 133.178 139.018 133.18 138.908V105.134C133.18 104.766 133.28 104.305 133.027 104.021C132.562 103.599 132.04 103.245 131.477 102.969C127.456 100.662 122.738 99.884 118.189 100.778C114.209 101.526 109.64 103.736 108.433 107.939C108.388 108.105 108.485 108.276 108.651 108.321C108.817 108.366 108.988 108.269 109.033 108.103C109.903 105.074 112.775 103.134 115.601 102.118C119.15 100.871 122.989 100.702 126.633 101.634C128.837 102.191 130.907 103.184 132.72 104.556L132.567 104.289V138.914L133.032 138.647C127.398 135.496 121.067 132.671 114.532 134.662C112.416 135.338 110.431 136.37 108.662 137.714L109.037 137.762C106.592 135.476 103.427 134.116 100.086 133.914C96.6396 133.763 93.1976 134.3 89.9611 135.494C88.1331 136.123 86.3445 136.862 84.6051 137.706L85.071 137.973C84.998 134.716 85.095 131.451 85.155 128.195C85.2397 123.6 85.347 119.006 85.4771 114.412C85.5317 112.461 85.5917 110.511 85.657 108.562C85.6824 107.823 85.7097 107.084 85.7391 106.344C85.7681 105.644 86.7191 104.964 87.246 104.536C90.4138 102.19 94.3263 101.074 98.2551 101.398C102.598 101.655 106.996 103.725 108.439 108.098C108.563 108.474 109.16 108.313 109.039 107.934" fill="#003849"/>
<path fill-rule="evenodd" clip-rule="evenodd" d="M108.425 108.02C108.425 116.213 108.495 124.407 108.528 132.6C108.533 134.221 108.538 135.841 108.542 137.462C108.543 137.632 108.74 137.77 108.983 137.77C109.227 137.77 109.424 137.632 109.425 137.462C109.425 129.269 109.355 121.076 109.322 112.882C109.315 111.262 109.31 109.642 109.308 108.021C109.307 107.851 109.109 107.713 108.866 107.713C108.623 107.713 108.426 107.851 108.425 108.021" fill="#003849"/>
<path fill-rule="evenodd" clip-rule="evenodd" d="M87.8979 109.586C88.3685 108.942 89.1525 108.605 89.9438 108.706C90.5779 108.867 91.1599 109.212 91.7839 109.406C93.2839 109.876 94.3379 109.324 95.6149 108.587C96.3016 108.134 97.1072 107.895 97.9299 107.9C98.8856 108.067 99.8036 108.404 100.64 108.895C101.345 109.314 102.162 109.505 102.979 109.441C103.818 109.283 104.459 108.635 105.279 108.419C105.445 108.374 105.542 108.203 105.497 108.037C105.452 107.871 105.281 107.774 105.115 107.819C104.252 108.045 103.505 108.834 102.601 108.858C101.585 108.715 100.613 108.353 99.7509 107.798C98.3281 107.086 96.6341 107.181 95.3009 108.05C94.7177 108.463 94.067 108.772 93.3779 108.962C92.5344 109.019 91.6922 108.833 90.9519 108.424C90.4565 108.159 89.9017 108.025 89.3399 108.034C88.6071 108.183 87.9453 108.573 87.4599 109.142C87.1749 109.42 87.6119 109.857 87.8979 109.58" fill="#003849"/>
<path fill-rule="evenodd" clip-rule="evenodd" d="M87.8973 113.732C88.3682 113.088 89.152 112.751 89.9432 112.853C90.5773 113.014 91.1593 113.359 91.7833 113.553C93.2833 114.023 94.3373 113.471 95.6143 112.733C96.301 112.28 97.1067 112.041 97.9293 112.047C98.885 112.213 99.803 112.55 100.639 113.041C101.344 113.459 102.161 113.65 102.978 113.587C103.817 113.431 104.458 112.781 105.278 112.565C105.444 112.52 105.542 112.349 105.496 112.183C105.451 112.017 105.28 111.92 105.114 111.965C104.251 112.192 103.503 112.98 102.6 113.004C101.585 112.861 100.612 112.499 99.7502 111.944C98.3275 111.231 96.6335 111.327 95.3003 112.196C94.7173 112.61 94.0665 112.918 93.3773 113.108C92.5338 113.166 91.6917 112.979 90.9513 112.571C90.4559 112.306 89.9011 112.172 89.3393 112.181C88.6066 112.33 87.9447 112.719 87.4593 113.288C87.1733 113.566 87.6113 114.003 87.8973 113.726" fill="#003849"/>
<path fill-rule="evenodd" clip-rule="evenodd" d="M87.8973 117.878C88.368 117.234 89.152 116.897 89.9432 116.999C90.5773 117.16 91.1593 117.505 91.7833 117.699C93.2833 118.169 94.3373 117.617 95.6143 116.88C96.3009 116.427 97.1066 116.188 97.9293 116.193C98.885 116.36 99.803 116.697 100.639 117.188C101.344 117.607 102.161 117.797 102.978 117.734C103.817 117.575 104.458 116.928 105.278 116.712C105.444 116.667 105.542 116.496 105.496 116.33C105.451 116.164 105.28 116.067 105.114 116.112C104.251 116.339 103.504 117.127 102.6 117.151C101.585 117.008 100.612 116.646 99.7502 116.091C98.3276 115.378 96.6334 115.474 95.3003 116.343C94.717 116.756 94.0663 117.065 93.3773 117.255C92.5338 117.312 91.6917 117.125 90.9513 116.717C90.4559 116.452 89.9011 116.318 89.3393 116.327C88.6066 116.476 87.9447 116.866 87.4593 117.434C87.1733 117.712 87.6113 118.149 87.8973 117.872" fill="#003849"/>
<path fill-rule="evenodd" clip-rule="evenodd" d="M87.8979 122.026C88.3685 121.382 89.1525 121.045 89.9438 121.146C90.5779 121.308 91.1599 121.652 91.7839 121.846C93.2839 122.316 94.3379 121.764 95.6149 121.026C96.3016 120.573 97.1072 120.334 97.9299 120.339C98.8856 120.505 99.8036 120.842 100.64 121.334C101.345 121.752 102.162 121.943 102.979 121.88C103.818 121.724 104.46 121.074 105.279 120.858C105.445 120.813 105.542 120.642 105.497 120.476C105.452 120.31 105.281 120.213 105.115 120.258C104.253 120.485 103.504 121.274 102.601 121.297C101.585 121.154 100.613 120.792 99.7509 120.237C98.3281 119.524 96.6341 119.62 95.3009 120.489C94.7177 120.902 94.067 121.211 93.3779 121.401C92.5343 121.459 91.6921 121.272 90.9519 120.863C90.4565 120.598 89.9017 120.464 89.3399 120.473C88.6071 120.622 87.9453 121.012 87.4599 121.581C87.1749 121.859 87.6119 122.296 87.8979 122.019" fill="#003849"/>
<path fill-rule="evenodd" clip-rule="evenodd" d="M87.8973 126.172C88.368 125.528 89.152 125.191 89.9432 125.293C90.5773 125.454 91.1593 125.799 91.7833 125.993C93.2833 126.463 94.3373 125.911 95.6143 125.173C96.301 124.72 97.1067 124.481 97.9293 124.487C98.8851 124.653 99.8031 124.99 100.639 125.482C101.344 125.9 102.161 126.091 102.978 126.028C103.817 125.872 104.458 125.222 105.278 125.006C105.444 124.961 105.542 124.79 105.496 124.624C105.451 124.458 105.28 124.361 105.114 124.406C104.251 124.633 103.504 125.421 102.6 125.445C101.585 125.302 100.612 124.94 99.7502 124.385C98.3276 123.672 96.6334 123.768 95.3003 124.637C94.7173 125.051 94.0665 125.359 93.3773 125.549C92.5338 125.607 91.6917 125.42 90.9513 125.012C90.4559 124.747 89.9011 124.613 89.3393 124.622C88.6066 124.771 87.9447 125.16 87.4593 125.729C87.1733 126.007 87.6113 126.444 87.8973 126.167" fill="#003849"/>
<path fill-rule="evenodd" clip-rule="evenodd" d="M87.8979 130.319C88.3685 129.675 89.1525 129.338 89.9438 129.439C90.5779 129.6 91.1599 129.945 91.7839 130.139C93.2839 130.609 94.3379 130.057 95.6149 129.32C96.3016 128.867 97.1072 128.628 97.9299 128.633C98.8856 128.799 99.8036 129.136 100.64 129.628C101.345 130.047 102.162 130.238 102.979 130.174C103.818 130.016 104.459 129.368 105.279 129.152C105.445 129.107 105.542 128.936 105.497 128.77C105.452 128.604 105.281 128.507 105.115 128.552C104.252 128.779 103.505 129.567 102.601 129.591C101.585 129.448 100.613 129.086 99.7509 128.531C98.3282 127.818 96.634 127.914 95.3009 128.783C94.7177 129.196 94.067 129.505 93.3779 129.695C92.5344 129.752 91.6922 129.565 90.9519 129.157C90.4565 128.892 89.9017 128.758 89.3399 128.767C88.6071 128.916 87.9453 129.306 87.4599 129.875C87.1749 130.153 87.6119 130.59 87.8979 130.313" fill="#003849"/>
<path fill-rule="evenodd" clip-rule="evenodd" d="M111.615 109.586C112.086 108.942 112.87 108.605 113.661 108.706C114.295 108.867 114.877 109.212 115.502 109.406C117.002 109.876 118.056 109.324 119.332 108.587C120.019 108.134 120.824 107.895 121.647 107.9C122.603 108.067 123.521 108.404 124.357 108.895C125.062 109.313 125.878 109.504 126.695 109.441C127.534 109.285 128.176 108.635 128.995 108.419C129.161 108.374 129.258 108.203 129.213 108.037C129.168 107.871 128.997 107.774 128.831 107.819C127.968 108.045 127.221 108.834 126.317 108.858C125.302 108.715 124.329 108.353 123.467 107.798C122.044 107.086 120.35 107.181 119.017 108.05C118.434 108.463 117.783 108.772 117.094 108.962C116.251 109.019 115.408 108.832 114.668 108.424C114.173 108.159 113.618 108.025 113.056 108.034C112.323 108.183 111.661 108.573 111.175 109.142C110.889 109.42 111.327 109.857 111.613 109.58" fill="#003849"/>
<path fill-rule="evenodd" clip-rule="evenodd" d="M111.615 113.732C112.086 113.088 112.87 112.751 113.661 112.853C114.295 113.014 114.877 113.359 115.502 113.553C117.002 114.023 118.056 113.471 119.332 112.733C120.019 112.28 120.825 112.041 121.647 112.047C122.603 112.213 123.521 112.55 124.357 113.041C125.062 113.459 125.878 113.65 126.695 113.587C127.534 113.431 128.176 112.781 128.995 112.565C129.161 112.52 129.258 112.349 129.213 112.183C129.168 112.017 128.997 111.92 128.831 111.965C127.968 112.192 127.22 112.98 126.317 113.004C125.302 112.861 124.329 112.499 123.467 111.944C122.044 111.231 120.35 111.327 119.017 112.196C118.434 112.609 117.783 112.918 117.094 113.108C116.251 113.165 115.409 112.979 114.668 112.571C114.173 112.306 113.618 112.172 113.056 112.181C112.323 112.329 111.661 112.719 111.175 113.288C110.889 113.566 111.327 114.003 111.613 113.726" fill="#003849"/>
<path fill-rule="evenodd" clip-rule="evenodd" d="M111.615 117.878C112.086 117.234 112.87 116.897 113.661 116.999C114.295 117.16 114.877 117.505 115.502 117.699C117.002 118.169 118.056 117.617 119.332 116.88C120.019 116.427 120.824 116.188 121.647 116.193C122.603 116.359 123.521 116.697 124.357 117.188C125.062 117.606 125.878 117.796 126.695 117.734C127.534 117.577 128.176 116.928 128.995 116.712C129.161 116.667 129.258 116.496 129.213 116.33C129.168 116.164 128.997 116.067 128.831 116.112C127.968 116.339 127.221 117.127 126.317 117.151C125.302 117.008 124.329 116.646 123.467 116.091C122.044 115.378 120.35 115.474 119.017 116.343C118.434 116.756 117.783 117.065 117.094 117.255C116.251 117.312 115.409 117.125 114.668 116.717C114.173 116.452 113.618 116.318 113.056 116.327C112.323 116.476 111.661 116.865 111.175 117.434C110.889 117.712 111.327 118.149 111.613 117.872" fill="#003849"/>
<path fill-rule="evenodd" clip-rule="evenodd" d="M111.615 122.026C112.086 121.382 112.87 121.045 113.661 121.146C114.295 121.308 114.877 121.652 115.502 121.846C117.002 122.316 118.056 121.764 119.332 121.026C120.019 120.573 120.824 120.334 121.647 120.339C122.603 120.505 123.521 120.842 124.357 121.334C125.062 121.752 125.878 121.943 126.695 121.88C127.534 121.724 128.176 121.074 128.995 120.858C129.161 120.813 129.258 120.642 129.213 120.476C129.168 120.31 128.997 120.213 128.831 120.258C127.969 120.485 127.22 121.274 126.317 121.297C125.302 121.154 124.329 120.792 123.467 120.237C122.044 119.524 120.35 119.62 119.017 120.489C118.434 120.902 117.783 121.211 117.094 121.401C116.251 121.459 115.408 121.272 114.668 120.863C114.173 120.598 113.618 120.464 113.056 120.473C112.323 120.622 111.661 121.012 111.175 121.581C110.889 121.859 111.327 122.296 111.613 122.019" fill="#003849"/>
<path fill-rule="evenodd" clip-rule="evenodd" d="M111.615 126.172C112.086 125.528 112.87 125.191 113.661 125.293C114.295 125.454 114.877 125.799 115.502 125.993C117.002 126.463 118.056 125.911 119.332 125.173C120.019 124.72 120.825 124.482 121.647 124.487C122.603 124.653 123.521 124.99 124.357 125.482C125.062 125.9 125.878 126.09 126.695 126.028C127.534 125.872 128.176 125.222 128.995 125.006C129.161 124.961 129.258 124.79 129.213 124.624C129.168 124.458 128.997 124.361 128.831 124.406C127.968 124.633 127.22 125.421 126.317 125.445C125.302 125.302 124.329 124.941 123.467 124.385C122.044 123.672 120.35 123.768 119.017 124.637C118.434 125.051 117.783 125.359 117.094 125.549C116.251 125.606 115.409 125.42 114.668 125.012C114.173 124.747 113.618 124.613 113.056 124.622C112.323 124.77 111.661 125.16 111.175 125.729C110.889 126.007 111.327 126.444 111.613 126.167" fill="#003849"/>
<path fill-rule="evenodd" clip-rule="evenodd" d="M111.615 130.319C112.086 129.675 112.87 129.338 113.661 129.439C114.295 129.6 114.877 129.945 115.502 130.139C117.002 130.609 118.056 130.057 119.332 129.32C120.019 128.867 120.824 128.628 121.647 128.633C122.603 128.799 123.521 129.136 124.357 129.628C125.062 130.046 125.878 130.237 126.695 130.174C127.534 130.018 128.176 129.368 128.995 129.152C129.161 129.107 129.258 128.936 129.213 128.77C129.168 128.604 128.997 128.507 128.831 128.552C127.968 128.779 127.221 129.567 126.317 129.591C125.302 129.448 124.329 129.086 123.467 128.531C122.044 127.818 120.35 127.914 119.017 128.783C118.434 129.196 117.783 129.505 117.094 129.695C116.251 129.752 115.408 129.565 114.668 129.157C114.173 128.892 113.618 128.758 113.056 128.767C112.323 128.916 111.661 129.306 111.175 129.875C110.889 130.153 111.327 130.59 111.613 130.313" fill="#003849"/>
<path fill-rule="evenodd" clip-rule="evenodd" d="M294.717 94.8931C290.856 88.3551 290.335 79.5321 294.059 72.8111C295.794 69.5786 298.65 67.0917 302.091 65.8181C306.405 64.3135 311.141 64.5968 315.245 66.6051C317.438 67.7467 319.394 69.2937 321.011 71.164C321.891 72.1638 322.698 73.2251 323.426 74.34C324.383 75.7298 325.232 77.1908 325.967 78.7101L326.077 78.2871C322.277 80.4541 318.369 82.4331 314.487 84.4431C309.631 86.9564 304.764 89.4514 299.887 91.9281C298.02 92.8794 296.153 93.8307 294.287 94.7821C293.933 94.9641 294.245 95.4971 294.599 95.3161C298.492 93.3241 302.387 91.3361 306.285 89.3521C311.153 86.8611 316.018 84.3651 320.854 81.8131C322.707 80.8351 324.562 79.8591 326.382 78.8211C326.525 78.7319 326.574 78.5462 326.493 78.3981C325.81 76.9892 325.027 75.6311 324.151 74.334C323.495 73.3092 322.779 72.3247 322.005 71.3861C320.542 69.5806 318.793 68.0267 316.828 66.7861C312.809 64.3702 307.997 63.6446 303.445 64.7681C299.737 65.6855 296.502 67.9483 294.369 71.1171C292.239 74.3719 291.054 78.1544 290.947 82.0431C290.736 86.6492 291.857 91.2185 294.176 95.2041C294.262 95.3515 294.451 95.4011 294.599 95.315C294.746 95.2288 294.796 95.0395 294.71 94.8921" fill="#003849"/>
<path fill-rule="evenodd" clip-rule="evenodd" d="M299.4 87.4061C297.078 83.4758 296.929 78.6303 299.006 74.5651C300.021 72.6634 301.706 71.2058 303.733 70.4741C306.246 69.6181 308.997 69.8043 311.372 70.9911C314.136 72.6067 316.303 75.0722 317.551 78.0201C317.588 77.8791 317.625 77.7381 317.662 77.5971C312.65 80.4541 307.434 82.9831 302.295 85.6021C301.189 86.1661 300.083 86.7301 298.977 87.2941C298.623 87.4761 298.935 88.009 299.289 87.828C304.431 85.1981 309.589 82.5981 314.698 79.9041C315.798 79.3241 316.898 78.7451 317.975 78.1301C318.119 78.0412 318.168 77.8551 318.086 77.707C316.883 74.9564 314.933 72.5977 312.458 70.8981C310.073 69.4276 307.201 68.9667 304.475 69.6171C299.769 70.7101 297.184 75.2431 296.956 79.817C296.814 82.58 297.478 85.3246 298.867 87.7171C298.953 87.8645 299.143 87.9141 299.29 87.828C299.438 87.7419 299.487 87.5526 299.401 87.4051" fill="#003849"/>
<path fill-rule="evenodd" clip-rule="evenodd" d="M296.852 90.3431C297.302 91.1511 297.536 92.0611 298.009 92.8571C298.095 93.0045 298.285 93.0542 298.432 92.9681C298.58 92.8819 298.629 92.6925 298.543 92.5451C298.07 91.7451 297.836 90.8391 297.386 90.0311C297.192 89.6831 296.658 89.9951 296.852 90.3431" fill="#003849"/>
<path fill-rule="evenodd" clip-rule="evenodd" d="M303.842 87.9291C304.103 88.5201 304.405 89.0916 304.747 89.6391C304.803 89.7345 304.906 89.793 305.016 89.7924C305.126 89.7919 305.228 89.7324 305.283 89.6364C305.338 89.5404 305.337 89.4225 305.281 89.3271C304.939 88.7795 304.637 88.208 304.376 87.6171C304.29 87.4705 304.101 87.421 303.953 87.5061C303.809 87.5949 303.761 87.7811 303.842 87.9291" fill="#003849"/>
<path fill-rule="evenodd" clip-rule="evenodd" d="M310.883 84.2581C311.032 84.5581 311.203 84.8381 311.36 85.1301C311.516 85.4 311.633 85.691 311.707 85.9941C311.752 86.1598 311.923 86.2574 312.089 86.2121C312.254 86.1668 312.352 85.9958 312.307 85.8301C312.086 85.1696 311.789 84.5373 311.421 83.9461C311.334 83.7995 311.145 83.75 310.998 83.8351C310.853 83.9236 310.804 84.1101 310.887 84.2581" fill="#003849"/>
<path fill-rule="evenodd" clip-rule="evenodd" d="M317.167 81.053C317.173 81.061 317.242 81.153 317.212 81.11L317.285 81.21C317.334 81.2767 317.381 81.3434 317.428 81.41C317.52 81.5434 317.608 81.6804 317.692 81.821C317.866 82.107 318.024 82.401 318.174 82.7C318.261 82.8462 318.449 82.8955 318.597 82.811C318.741 82.7222 318.79 82.5361 318.708 82.388C318.404 81.7605 318.035 81.1663 317.608 80.615C317.487 80.4949 317.292 80.4949 317.171 80.615C317.055 80.7379 317.055 80.9301 317.171 81.053" fill="#003849"/>
<path fill-rule="evenodd" clip-rule="evenodd" d="M324.37 75.4871C323.804 75.7961 323.237 76.1031 322.66 76.3921C322.514 76.4793 322.465 76.6674 322.549 76.8151C322.638 76.9586 322.824 77.0073 322.972 76.9261C323.548 76.6371 324.115 76.3261 324.681 76.0211C324.828 75.9343 324.877 75.7457 324.792 75.5981C324.704 75.4538 324.517 75.4049 324.369 75.4871" fill="#003849"/>
<path fill-rule="evenodd" clip-rule="evenodd" d="M319.731 69.8531C319.166 70.3651 318.556 70.8241 317.971 71.3111C317.851 71.4323 317.851 71.6278 317.971 71.7491C318.094 71.865 318.286 71.865 318.408 71.7491C318.994 71.2621 319.608 70.8031 320.168 70.2901C320.288 70.169 320.288 69.9742 320.168 69.8531C320.046 69.7366 319.854 69.7366 319.731 69.8531" fill="#003849"/>
<path fill-rule="evenodd" clip-rule="evenodd" d="M313.347 65.5411C312.987 66.0561 312.647 66.5861 312.291 67.1001C312.207 67.2478 312.256 67.436 312.402 67.5231C312.55 67.6049 312.736 67.556 312.825 67.4121C313.185 66.8981 313.525 66.3681 313.881 65.8531C313.966 65.7055 313.917 65.5169 313.77 65.4301C313.622 65.3484 313.436 65.3973 313.347 65.5411Z" fill="#003849"/>
<path fill-rule="evenodd" clip-rule="evenodd" d="M305.923 64.8101C305.774 65.4521 305.569 66.0791 305.423 66.7211C305.378 66.8868 305.475 67.0578 305.641 67.1031C305.807 67.1484 305.978 67.0508 306.023 66.8851C306.172 66.2431 306.377 65.6161 306.523 64.9741C306.568 64.8084 306.471 64.6374 306.305 64.5921C306.14 64.5469 305.969 64.6444 305.923 64.8101Z" fill="#003849"/>
<path fill-rule="evenodd" clip-rule="evenodd" d="M298.007 67.9761C298.402 68.4191 298.868 68.7901 299.264 69.2331C299.385 69.3527 299.58 69.3527 299.701 69.2331C299.818 69.1105 299.818 68.9176 299.701 68.7951C299.301 68.3531 298.839 67.9811 298.444 67.5381C298.323 67.4185 298.128 67.4185 298.007 67.5381C297.89 67.6604 297.89 67.8537 298.007 67.9761" fill="#003849"/>
<path fill-rule="evenodd" clip-rule="evenodd" d="M293.266 74.6441C293.776 74.8237 294.297 74.975 294.825 75.0971C294.932 75.1266 295.047 75.0967 295.126 75.0186C295.205 74.9405 295.236 74.8261 295.208 74.7186C295.18 74.611 295.097 74.5266 294.99 74.4971C294.462 74.3749 293.942 74.2236 293.431 74.0441C293.266 74.0004 293.097 74.0964 293.05 74.2601C293.008 74.4242 293.104 74.5917 293.266 74.6401" fill="#003849"/>
<path fill-rule="evenodd" clip-rule="evenodd" d="M291.436 82.7336C292.153 82.6713 292.868 82.5979 293.58 82.4743C293.744 82.4184 293.841 82.2107 293.796 82.0094C293.747 81.8115 293.58 81.6953 293.416 81.7452C292.766 81.8577 292.097 81.9189 291.437 81.9776C291.326 81.9771 291.224 82.0491 291.169 82.1662C291.113 82.2834 291.113 82.4278 291.169 82.545C291.224 82.6622 291.326 82.7341 291.437 82.7336" fill="#003849"/>
<path fill-rule="evenodd" clip-rule="evenodd" d="M292.674 90.0321C293.231 89.8348 293.776 89.6064 294.307 89.348C294.453 89.2609 294.502 89.0724 294.417 88.925C294.328 88.7812 294.142 88.7324 293.994 88.814C293.867 88.8771 293.739 88.939 293.61 88.997L293.428 89.077L293.35 89.111L293.293 89.135C293.033 89.2411 292.771 89.341 292.508 89.4351C292.342 89.4806 292.245 89.6518 292.29 89.8175C292.336 89.9832 292.507 90.0806 292.673 90.0351" fill="#003849"/>
<path fill-rule="evenodd" clip-rule="evenodd" d="M91.4907 79.8561C92.4907 75.3651 87.9797 70.961 88.1627 66.192C88.3827 61.692 92.1087 59.567 96.2877 60.332C101.17 61.332 105.021 64.993 104.488 70.425C104.116 74.2161 100.937 76.271 98.5386 78.7251C97.7144 79.5534 97.0353 80.5145 96.5297 81.5681" fill="#FFD066"/>
<path fill-rule="evenodd" clip-rule="evenodd" d="M96.1768 81.3821C94.8768 80.9441 93.5287 80.6011 92.2548 80.0761C91.3113 79.6265 90.2626 79.4442 89.2228 79.5491C88.6378 79.6341 87.8548 79.8961 87.7558 80.5761C87.6248 81.4671 88.7318 82.1031 89.3668 82.4591L89.4408 81.8941C88.5678 82.0941 87.2057 82.4341 86.7978 83.3491C86.2978 84.4711 87.9138 85.1751 88.6818 85.4961V84.8961C87.8578 85.2021 85.9818 85.8911 86.5248 87.1221C86.7913 87.5894 87.1943 87.9642 87.6797 88.1961C88.3577 88.5737 89.0654 88.8951 89.7958 89.1571C91.2626 89.7485 92.7917 90.1718 94.3538 90.4191C95.1788 90.5301 96.5018 90.5191 96.7427 89.4911C96.9838 88.4631 95.9557 87.4911 95.1778 87.0081L95.0218 87.5841C96.0148 87.5621 97.5447 87.2961 97.5137 86.0031C97.3292 84.9489 96.6094 84.0666 95.6138 83.6741L95.3758 84.2391C96.1998 84.4391 98.4028 84.8981 98.6138 83.5601C98.8018 82.3601 97.0468 81.6441 96.1788 81.3781C95.7978 81.2611 95.6338 81.8581 96.0138 81.9781C96.5454 82.122 97.0458 82.3631 97.4898 82.6891C97.6898 82.8461 98.0428 83.1541 98.0068 83.4481C97.9068 84.2351 95.9138 83.7371 95.5408 83.6481C95.2138 83.5691 94.9758 84.0481 95.3028 84.2131C96.0545 84.5061 96.6352 85.1209 96.8848 85.8881C97.0478 86.8561 95.6708 86.9571 95.0237 86.9711C94.8867 86.9755 94.7685 87.069 94.7326 87.2014C94.6968 87.3338 94.7516 87.4741 94.8677 87.5471C95.4068 87.8831 96.1338 88.4841 96.1558 89.1861C96.1818 90.0081 94.8948 89.8861 94.3848 89.8101C93.1846 89.5976 92.0039 89.2866 90.8548 88.8801C89.6913 88.5643 88.5857 88.0647 87.5798 87.4001C87.3218 87.2091 86.9297 86.9001 87.1038 86.5381C87.3768 85.9781 88.3278 85.6901 88.8478 85.4971C88.9818 85.4589 89.0741 85.3364 89.0741 85.1971C89.0741 85.0578 88.9818 84.9354 88.8478 84.8971C88.4098 84.7141 86.8868 84.1181 87.4758 83.4291C88.0773 82.9111 88.8188 82.5829 89.6068 82.4861C89.7248 82.451 89.8111 82.3497 89.8271 82.2276C89.8431 82.1056 89.7858 81.9855 89.6808 81.9211C89.3608 81.7411 88.0438 81.0621 88.4368 80.5211C88.7778 80.0471 89.7648 80.0971 90.2598 80.1421C91.1602 80.3056 92.0364 80.5817 92.8678 80.9641C93.9078 81.3301 94.9678 81.6271 96.0148 81.9771C96.3928 82.1041 96.5558 81.5071 96.1797 81.3771" fill="#003849"/>
<path fill-rule="evenodd" clip-rule="evenodd" d="M88.8661 82.3831L93.7841 84.0501C94.1621 84.1781 94.3241 83.5811 93.9481 83.4501L89.0311 81.7811C88.6531 81.6531 88.4911 82.2491 88.8661 82.3811" fill="#003849"/>
<path fill-rule="evenodd" clip-rule="evenodd" d="M90.8796 86.2L94.9385 87.577C95.3166 87.705 95.4786 87.109 95.1036 86.977L91.0446 85.6C90.6666 85.472 90.5046 86.069 90.8806 86.2" fill="#003849"/>
<path fill-rule="evenodd" clip-rule="evenodd" d="M92.7235 80.2881C93.5602 79.2922 94.1224 78.095 94.3545 76.8151C94.4841 75.6867 94.5336 74.5505 94.5025 73.4151C94.6931 72.1074 94.646 70.7761 94.3635 69.4851C94.2286 68.9137 93.8298 68.4407 93.2895 68.2111C92.6363 68.0201 91.9308 68.1839 91.4285 68.6431C90.3005 69.7991 91.4285 71.8711 92.5445 72.5641C94.8065 73.9641 96.4445 71.4161 97.3125 69.6701L96.7365 69.5141C96.6765 70.8541 96.6845 73.0771 98.0915 73.7871C99.3615 74.4271 100.724 73.4111 101.168 72.2411C101.458 71.4791 101.469 69.8251 100.203 70.1721C99.5083 70.4686 98.9194 70.969 98.5145 71.6071C97.8984 72.4286 97.3812 73.3197 96.9735 74.2621C96.0164 76.444 95.3144 78.7292 94.8815 81.0721C94.8065 81.4611 95.4025 81.6271 95.4815 81.2361C95.78 79.6899 96.1843 78.166 96.6915 76.6751C97.1941 75.0309 97.9509 73.4754 98.9345 72.0651C99.2445 71.6531 100.835 69.8751 100.734 71.3861C100.71 72.4441 99.8652 73.2998 98.8075 73.3381C97.2365 73.2381 97.3015 70.6191 97.3505 69.5121C97.3476 69.3742 97.2541 69.2547 97.1209 69.2186C96.9877 69.1825 96.8467 69.2385 96.7745 69.3561C96.1305 70.6561 95.0125 72.9071 93.2075 72.2071C92.5432 71.9198 92.0267 71.3714 91.7795 70.6911C91.5795 70.1911 91.4525 69.4111 91.9275 69.0131C92.3467 68.6747 92.9401 68.6571 93.3785 68.9701C93.7017 69.3505 93.8907 69.8267 93.9165 70.3251C94.0081 71.3433 93.9967 72.3682 93.8825 73.3841C93.8275 74.3631 93.9515 75.3251 93.8095 76.3071C93.6434 77.6081 93.1142 78.836 92.2825 79.8501C92.0286 80.1501 92.4635 80.5921 92.7195 80.2881" fill="#003849"/>
<path fill-rule="evenodd" clip-rule="evenodd" d="M326.213 20.8721C321.704 20.481 317.444 22.9984 315.613 27.1371C313.855 31.0675 314.457 35.6527 317.17 38.9961C320.675 42.8073 325.989 44.3862 331.007 43.1071C333.396 42.4512 335.427 40.8737 336.654 38.7211C337.854 36.4574 338.363 33.8907 338.117 31.3401C337.956 29.0716 337.088 26.9107 335.635 25.1611C333.796 23.1499 331.358 21.7848 328.683 21.2681C327.869 21.088 327.045 20.9545 326.216 20.8681C325.821 20.8251 325.824 21.4441 326.216 21.4861C329.086 21.6757 331.832 22.7238 334.099 24.4941C335.75 25.9258 336.879 27.8659 337.307 30.0091C338.248 34.5541 336.64 39.9921 332.184 42.0231C327.905 43.9741 322.065 42.7001 318.628 39.6111C315.631 36.8359 314.49 32.5894 315.692 28.6861C316.957 24.0283 321.416 20.9776 326.216 21.4861C326.616 21.5131 326.616 20.8951 326.216 20.8681" fill="#003849"/>
<path fill-rule="evenodd" clip-rule="evenodd" d="M326.287 23.9831C323.01 23.701 319.918 25.536 318.595 28.5471C317.328 31.3985 317.775 34.72 319.749 37.1361C322.294 39.8941 326.151 41.0272 329.783 40.084C333.493 39.0131 335.211 35.2481 334.908 31.5941C334.785 29.7215 333.992 27.9557 332.674 26.6201C330.901 25.05 328.653 24.12 326.29 23.9791C325.895 23.9351 325.898 24.5541 326.29 24.5971C329.912 24.9971 333.368 26.8271 334.156 30.6441C334.822 33.8691 333.678 37.7291 330.509 39.1611C327.21 40.4132 323.489 39.7285 320.852 37.3841C318.76 35.4034 317.98 32.4038 318.842 29.6551C319.804 26.411 322.92 24.2951 326.29 24.597C326.69 24.6231 326.69 24.0051 326.29 23.9791" fill="#003849"/>
<path fill-rule="evenodd" clip-rule="evenodd" d="M353.614 30.9301C349.103 30.535 344.839 33.0526 343.006 37.1941C341.248 41.1245 341.85 45.7098 344.563 49.0531C348.069 52.867 353.386 54.4473 358.406 53.1671C360.794 52.5109 362.825 50.9335 364.052 48.7811C365.253 46.5173 365.761 43.9506 365.514 41.4001C365.354 39.1315 364.486 36.9705 363.032 35.2211C361.194 33.21 358.756 31.8448 356.08 31.3281C355.266 31.1478 354.443 31.0143 353.613 30.9281C353.218 30.8851 353.221 31.5041 353.613 31.5461C356.483 31.7358 359.23 32.7838 361.496 34.5541C363.148 35.9856 364.277 37.9258 364.704 40.0691C365.645 44.6141 364.038 50.0521 359.581 52.0821C355.302 54.0331 349.462 52.7591 346.025 49.6701C343.029 46.8951 341.888 42.6484 343.089 38.7451C344.355 34.0873 348.814 31.0367 353.613 31.5451C354.013 31.5721 354.013 30.9541 353.613 30.9271" fill="#003849"/>
<path fill-rule="evenodd" clip-rule="evenodd" d="M353.684 34.0431C350.407 33.7611 347.314 35.5961 345.992 38.6071C344.725 41.4585 345.171 44.7802 347.146 47.1961C349.69 49.9522 353.545 51.0847 357.176 50.1431C360.886 49.0721 362.604 45.3061 362.301 41.6521C362.176 39.7805 361.382 38.0163 360.063 36.6821C358.291 35.112 356.043 34.1821 353.68 34.0411C353.285 33.9971 353.288 34.6161 353.68 34.6591C357.302 35.0591 360.758 36.8891 361.546 40.7061C362.212 43.9311 361.068 47.7911 357.899 49.2231C354.6 50.4757 350.878 49.7909 348.242 47.4461C346.15 45.4652 345.37 42.4659 346.232 39.7171C347.194 36.4729 350.309 34.3566 353.68 34.6581C354.08 34.6841 354.08 34.0661 353.68 34.0401" fill="#003849"/>
<path fill-rule="evenodd" clip-rule="evenodd" d="M338.096 34.3591C339.925 33.2231 342.531 34.4011 343.496 36.1531C343.688 36.5011 344.223 36.1901 344.03 35.8411C342.903 33.7991 339.892 32.5141 337.781 33.8251C337.444 34.0351 337.754 34.5701 338.094 34.3591" fill="#003849"/>
<path fill-rule="evenodd" clip-rule="evenodd" d="M337.626 36.7141C339.346 35.5631 341.771 36.6501 342.642 38.3661C342.822 38.7211 343.355 38.4091 343.176 38.0541C342.159 36.0541 339.302 34.8541 337.314 36.1801C336.985 36.4001 337.294 36.9361 337.626 36.7141Z" fill="#003849"/>
<path fill-rule="evenodd" clip-rule="evenodd" d="M321.235 30.0571L326.63 27.5571C326.991 27.3901 326.677 26.8571 326.317 27.0231L320.922 29.5231C320.562 29.6901 320.875 30.2231 321.235 30.0571Z" fill="#003849"/>
<path fill-rule="evenodd" clip-rule="evenodd" d="M323.049 33.49C325.544 32.334 328.026 31.154 330.521 29.998C330.881 29.831 330.568 29.298 330.209 29.464C327.715 30.62 325.231 31.8 322.737 32.956C322.378 33.123 322.691 33.656 323.05 33.49" fill="#003849"/>
<path fill-rule="evenodd" clip-rule="evenodd" d="M326.924 35.321C327.665 35.009 328.384 34.649 329.114 34.311C329.26 34.2235 329.309 34.0354 329.224 33.888C329.136 33.7433 328.949 33.6942 328.801 33.777C328.12 34.094 327.451 34.435 326.759 34.726C326.598 34.7761 326.504 34.9423 326.543 35.106C326.59 35.2701 326.759 35.3663 326.924 35.322" fill="#003849"/>
<path fill-rule="evenodd" clip-rule="evenodd" d="M348.124 41.7271L355.318 38.3961C355.679 38.2291 355.365 37.6961 355.006 37.8621L347.812 41.1931C347.452 41.3601 347.765 41.8931 348.124 41.7271Z" fill="#003849"/>
<path fill-rule="evenodd" clip-rule="evenodd" d="M352.642 45.0961C354.042 44.4168 355.453 43.7638 356.874 43.1371C357.021 43.0503 357.07 42.8617 356.985 42.7141C356.896 42.5698 356.71 42.5208 356.562 42.6031C355.139 43.2304 353.729 43.8834 352.33 44.5621C351.972 44.7361 352.286 45.2691 352.642 45.0961Z" fill="#003849"/>
<path fill-rule="evenodd" clip-rule="evenodd" d="M356.75 46.3179L357.126 46.1002C357.161 46.0762 357.192 46.0413 357.214 45.9989C357.241 45.9613 357.26 45.9156 357.27 45.866C357.282 45.8155 357.284 45.7619 357.275 45.7103C357.273 45.6585 357.26 45.6082 357.237 45.5648C357.196 45.4769 357.129 45.4125 357.051 45.385L356.967 45.3711C356.911 45.3711 356.857 45.3894 356.809 45.4243L356.435 45.642C356.399 45.6662 356.369 45.7009 356.346 45.7432C356.293 45.8231 356.27 45.929 356.285 46.0319C356.287 46.0837 356.299 46.134 356.322 46.1774C356.363 46.2656 356.43 46.3301 356.508 46.3572L356.591 46.3711C356.647 46.3713 356.701 46.353 356.749 46.3179" fill="#003849"/>
<path fill-rule="evenodd" clip-rule="evenodd" d="M82.6943 39.2961C79.4573 39.9111 76.2333 40.6071 73.0243 41.3551C71.7042 41.6631 70.3733 41.9611 69.0803 42.3671C68.7838 42.4324 68.5 42.5459 68.2402 42.7031C67.9531 43.0263 67.7951 43.4439 67.7963 43.8761C67.6016 45.4907 67.5254 47.1174 67.5682 48.7432C67.57 48.8531 67.6295 48.954 67.7249 49.0088C67.8203 49.0636 67.9374 49.0641 68.0333 49.0101C68.7661 48.4849 69.423 47.861 69.9853 47.1561C70.2948 46.7239 70.6547 46.3302 71.0573 45.9831C71.8397 45.4587 72.6638 44.9991 73.5212 44.6091C75.8373 43.4501 78.2073 42.4091 80.5212 41.2431C81.3947 40.856 82.2241 40.3762 82.9952 39.8121C83.3043 39.5611 82.8652 39.1261 82.5583 39.3741C81.8911 39.8561 81.1756 40.2673 80.4233 40.6011C79.3232 41.1581 78.2083 41.6841 77.0933 42.2101C74.9771 43.103 72.9241 44.1387 70.9484 45.3101C69.6753 46.1411 68.9973 47.6101 67.7203 48.4741L68.1853 48.7421C68.1853 47.3881 68.1993 46.0291 68.3203 44.6801C68.3533 44.3141 68.3613 43.4551 68.5853 43.2111C68.8245 43.0784 69.0829 42.9836 69.3513 42.9301C72.2313 42.0501 75.2233 41.4721 78.1653 40.8471C79.7263 40.5151 81.2903 40.1891 82.8593 39.8901C83.2493 39.8161 83.0843 39.2201 82.6943 39.2901" fill="#003849"/>
<path fill-rule="evenodd" clip-rule="evenodd" d="M70.626 46.4901C71.811 47.5901 72.79 48.8801 73.941 50.0111C74.43 50.4921 75.073 51.0251 75.65 50.3911C76.2538 49.6828 76.8192 48.9427 77.344 48.1741C78.275 46.8971 79.185 45.6061 80.085 44.3071C81.2144 42.6778 82.324 41.0351 83.414 39.3791C83.633 39.0451 83.098 38.7351 82.88 39.0671C80.821 42.2051 78.696 45.3081 76.468 48.3291C76.131 48.7861 75.793 49.2421 75.437 49.6841C75.17 50.0131 75.118 50.1911 74.729 49.8941C74.1651 49.4035 73.6488 48.8608 73.187 48.2731C72.507 47.5061 71.814 46.7521 71.063 46.0531C70.772 45.7821 70.333 46.2191 70.626 46.4911" fill="#003849"/>
<path fill-rule="evenodd" clip-rule="evenodd" d="M83.1477 38.9141C79.5237 38.7451 75.9008 38.5321 72.2727 38.4411C70.5277 38.3971 68.7727 38.3561 67.0287 38.4631C66.5287 38.4931 64.9657 38.4341 64.8547 39.1631C64.7547 39.8151 65.7457 40.7071 66.1217 41.1301C66.7607 41.8621 67.4405 42.5576 68.1577 43.2131C68.4527 43.4791 68.8907 43.0431 68.5947 42.7761C68.0347 42.2761 67.5097 41.7231 66.9947 41.1761C66.6947 40.8521 66.3947 40.5221 66.1157 40.1761C65.9817 40.0131 65.8497 39.8481 65.7307 39.6761C65.6642 39.533 65.5835 39.397 65.4897 39.2701C65.3527 39.1561 65.5277 39.3341 65.4307 39.3331C65.3937 39.3331 65.4777 39.3191 65.4607 39.3171C65.6383 39.2918 65.8129 39.2486 65.9817 39.1881C66.5177 39.1098 67.0581 39.0657 67.5997 39.0561C71.1267 38.9171 74.6777 39.1211 78.1997 39.2881C79.8487 39.3661 81.4997 39.4581 83.1477 39.5351C83.5477 39.5531 83.5477 38.9351 83.1477 38.9171" fill="#003849"/>
<path fill-rule="evenodd" clip-rule="evenodd" d="M52.5044 70.3091C56.3542 69.1437 59.2545 65.9605 60.0574 62.0191C60.355 60.492 60.0961 58.9088 59.3274 57.5561C58.5959 56.222 57.477 55.1411 56.1184 54.4561C54.951 53.8412 53.5287 53.9863 52.5094 54.8241C51.3224 55.8361 50.4094 57.8241 51.2284 59.3041C52.0724 60.8301 54.1284 61.1981 55.7144 61.1491C57.7994 61.0902 59.7766 60.2092 61.2144 58.6981C62.3614 57.4511 62.7694 55.7401 63.3054 54.1801C63.5539 53.3438 63.9362 52.5532 64.4374 51.8391C64.9922 51.0703 65.833 50.5571 66.7704 50.4151C66.9411 50.4151 67.0794 50.2768 67.0794 50.1061C67.0794 49.9355 66.941 49.7971 66.7704 49.7971C65.5177 49.9626 64.4055 50.6817 63.7404 51.7561C63.0853 52.9024 62.584 54.1299 62.2494 55.4071C61.8776 56.7853 61.1011 58.0205 60.0204 58.9531C58.3677 60.2573 56.2366 60.7936 54.1634 60.4271C52.5504 60.1271 51.0994 59.0041 51.6784 57.2121C52.1294 55.8211 53.3154 54.4771 54.8974 54.7121C56.2112 55.0202 57.3663 55.7999 58.1434 56.9031C59.0465 57.9667 59.5489 59.3129 59.5634 60.7081C59.5254 64.8491 56.1914 68.5441 52.3454 69.7151C51.9664 69.8301 52.1284 70.4271 52.5104 70.3151" fill="#003849"/>
<path fill-rule="evenodd" clip-rule="evenodd" d="M16.1807 133.166C34.2327 114.866 56.9807 112.641 80.9707 111.157C78.2507 116.597 66.6277 122.532 60.9397 125.5C55.3668 128.273 49.5778 130.589 43.6297 132.424C34.7297 134.65 25.3297 132.919 16.4297 133.166" fill="#D67676"/>
<path fill-rule="evenodd" clip-rule="evenodd" d="M17.0225 133.524C24.4636 130.767 31.8875 127.952 39.4296 125.479C46.7966 123.064 54.3215 121.254 61.7635 119.099C65.8007 117.971 69.7601 116.582 73.6166 114.939C74.0535 114.748 73.6765 114.109 73.2426 114.299C66.2896 117.339 58.8825 119.141 51.5765 121.099C44.0455 123.122 36.6495 125.545 29.3156 128.199C25.1415 129.707 20.9875 131.267 16.8256 132.809C16.3815 132.974 16.5745 133.691 17.0255 133.525" fill="#003849"/>
<path fill-rule="evenodd" clip-rule="evenodd" d="M35.3348 122.024C33.0448 124.296 30.0948 125.97 28.2288 128.652C28.1446 128.798 28.1683 128.982 28.2868 129.102C29.7398 130.364 31.7798 130.52 33.5198 131.176C33.9678 131.344 34.1608 130.628 33.7198 130.46C32.1198 129.86 30.1448 129.733 28.8148 128.577L28.8728 129.027C30.6938 126.408 33.6238 124.769 35.8629 122.549C36.0078 122.403 36.0071 122.168 35.8613 122.023C35.7155 121.878 35.4798 121.878 35.3348 122.024" fill="#003849"/>
<path fill-rule="evenodd" clip-rule="evenodd" d="M44.669 118.512C43.134 120.665 41.122 122.438 39.723 124.694C39.6661 124.794 39.6581 124.914 39.7015 125.021C39.7448 125.128 39.8345 125.208 39.945 125.24C43.056 126.004 46.316 126.103 49.345 127.218C49.794 127.383 49.987 126.666 49.545 126.502C46.519 125.387 43.259 125.289 40.145 124.524C40.219 124.706 40.292 124.888 40.367 125.07C41.767 122.816 43.777 121.039 45.313 118.888C45.59 118.498 44.947 118.128 44.672 118.513" fill="#003849"/>
<path fill-rule="evenodd" clip-rule="evenodd" d="M54.1948 116.41C53.3168 118.01 52.1118 119.604 51.8087 121.445C51.7611 121.642 51.8745 121.842 52.0677 121.902C53.8851 122.527 55.7444 123.023 57.6318 123.386C58.0978 123.479 58.2977 122.764 57.8317 122.67C55.9441 122.309 54.0847 121.813 52.2678 121.186C52.3531 121.338 52.4394 121.49 52.5267 121.642C52.8207 119.864 53.9897 118.331 54.8387 116.785C55.0687 116.366 54.4287 115.991 54.1978 116.41" fill="#003849"/>
<path fill-rule="evenodd" clip-rule="evenodd" d="M63.5518 115.263C63.127 116.315 62.7556 117.388 62.4388 118.478C62.397 118.64 62.4665 118.81 62.6098 118.897C63.6819 119.356 64.7845 119.74 65.9098 120.047C66.3648 120.197 66.5588 119.481 66.1098 119.331C65.0443 119.045 63.9998 118.686 62.9838 118.256L63.1538 118.674C63.4708 117.584 63.8423 116.511 64.2668 115.459C64.4198 115.005 63.7038 114.811 63.5518 115.259" fill="#003849"/>
<path fill-rule="evenodd" clip-rule="evenodd" d="M48.699 118.7C48.3714 118.719 48.1152 118.99 48.1152 119.318C48.1152 119.646 48.3714 119.917 48.699 119.936C49.0267 119.917 49.2828 119.646 49.2828 119.318C49.2828 118.99 49.0267 118.719 48.699 118.7Z" fill="#003849"/>
<path fill-rule="evenodd" clip-rule="evenodd" d="M50.3074 116.969C49.9798 116.988 49.7236 117.259 49.7236 117.587C49.7236 117.915 49.9798 118.186 50.3074 118.205C50.6351 118.186 50.8912 117.915 50.8912 117.587C50.8912 117.259 50.6351 116.988 50.3074 116.969Z" fill="#003849"/>
<path fill-rule="evenodd" clip-rule="evenodd" d="M60.3221 120.431C59.9944 120.45 59.7383 120.721 59.7383 121.049C59.7383 121.377 59.9944 121.648 60.3221 121.667C60.6497 121.648 60.9058 121.377 60.9058 121.049C60.9058 120.721 60.6497 120.45 60.3221 120.431Z" fill="#003849"/>
<path fill-rule="evenodd" clip-rule="evenodd" d="M62.0535 121.42C61.7259 121.439 61.4697 121.71 61.4697 122.038C61.4697 122.366 61.7259 122.637 62.0535 122.656C62.3812 122.637 62.6373 122.366 62.6373 122.038C62.6373 121.71 62.3812 121.439 62.0535 121.42Z" fill="#003849"/>
<path fill-rule="evenodd" clip-rule="evenodd" d="M75.9012 113.136C75.5735 113.155 75.3174 113.426 75.3174 113.754C75.3174 114.082 75.5735 114.353 75.9012 114.372C76.2288 114.353 76.4849 114.082 76.4849 113.754C76.4849 113.426 76.2288 113.155 75.9012 113.136Z" fill="#003849"/>
<path fill-rule="evenodd" clip-rule="evenodd" d="M1.19891 113.216C0.456909 99.6161 1.19891 86.2611 9.60693 74.8861C16.778 65.4861 29.1429 57.8231 40.2709 54.3611C40.0239 66.7261 34.0889 82.5521 26.1709 91.9491C22.2117 96.5695 17.7336 100.718 12.825 104.314C9.36292 107.034 5.65393 111.485 1.2019 112.475" fill="#5596A5"/>
<path fill-rule="evenodd" clip-rule="evenodd" d="M2.54669 111.089C5.77258 103.625 9.67944 96.4742 14.2176 89.7272C16.3437 86.4941 18.5957 83.3561 20.8027 80.1801C22.9397 77.1061 24.9267 73.9311 27.0367 70.8401C29.2715 67.3754 31.8915 64.1749 34.8467 61.3001C35.1987 60.9761 34.6717 60.4521 34.3217 60.7761C28.8587 65.8161 25.1437 72.4761 21.0117 78.5681C18.8297 81.7881 16.5257 84.9221 14.3667 88.1601C12.1267 91.5191 9.97467 94.9381 7.9787 98.4491C5.68414 102.471 3.63153 106.626 1.83173 110.893C1.64771 111.332 2.36469 111.524 2.54669 111.093" fill="#003849"/>
<path fill-rule="evenodd" clip-rule="evenodd" d="M4.6626 93.8051C4.80695 96.8231 5.14099 99.829 5.6626 102.805C5.70825 102.965 5.85394 103.076 6.02057 103.078C7.64191 103.132 9.25891 102.881 10.7876 102.338C12.3518 101.854 13.8791 101.258 15.3577 100.554C15.7896 100.354 15.4126 99.711 14.9836 99.914C13.5617 100.588 12.0933 101.159 10.5897 101.623C9.12506 102.146 7.57489 102.388 6.02057 102.336L6.3786 102.609C5.86926 99.699 5.54333 96.7599 5.40259 93.809C5.38159 93.334 4.63959 93.331 4.66058 93.809" fill="#003849"/>
<path fill-rule="evenodd" clip-rule="evenodd" d="M11.2157 81.5631C11.4587 85.2501 10.5667 89.0491 11.5997 92.6631C11.6467 92.8224 11.7916 92.9329 11.9577 92.9361C13.8618 92.9391 15.7554 92.6532 17.5737 92.0881C19.4383 91.6127 21.2292 90.8846 22.8967 89.9241C23.3036 89.6761 22.9317 89.0341 22.5227 89.2841C20.9099 90.2165 19.1767 90.9231 17.3716 91.3841C15.6174 91.9311 13.7902 92.208 11.9527 92.2051L12.3107 92.4781C11.2987 88.9341 12.1907 85.1871 11.9527 81.5721C11.9217 81.0981 11.1797 81.0941 11.2107 81.5721" fill="#003849"/>
<path fill-rule="evenodd" clip-rule="evenodd" d="M17.6442 73.898C17.6442 75.166 17.5441 76.433 17.5251 77.698C17.4095 79.1969 17.5187 80.7045 17.8491 82.171C17.9283 82.598 18.2076 82.9611 18.6002 83.147C19.0734 83.2982 19.5728 83.3503 20.0671 83.3C21.6254 83.1921 23.1713 82.9482 24.6871 82.571C26.0872 82.262 27.4781 81.897 28.8712 81.548C29.0612 81.4867 29.1689 81.2863 29.1152 81.0939C29.0615 80.9016 28.8655 80.786 28.6711 80.832C26.1231 81.5634 23.5276 82.1181 20.9031 82.492C20.2301 82.565 18.8761 82.861 18.5952 82.077C18.2562 80.7487 18.1437 79.3728 18.2621 78.007C18.2722 76.636 18.3781 75.266 18.3842 73.896C18.3842 73.6911 18.218 73.525 18.0131 73.525C17.8082 73.525 17.6422 73.6911 17.6422 73.896" fill="#003849"/>
<path fill-rule="evenodd" clip-rule="evenodd" d="M24.4458 65.366C24.4388 66.5591 24.2778 67.7511 24.2388 68.944C24.0752 70.1406 24.2173 71.3592 24.6518 72.4861C25.1448 73.3741 26.3378 73.1951 27.1797 73.0591C28.5916 72.7954 29.9758 72.4014 31.3148 71.882C32.5668 71.431 33.8148 70.94 35.0148 70.382C35.4478 70.1821 35.0718 69.543 34.6407 69.742C32.4759 70.7667 30.2153 71.5756 27.8918 72.157C27.3639 72.2942 26.8241 72.381 26.2798 72.416C25.9878 72.4281 25.5728 72.4621 25.3588 72.2251C25.1246 71.8342 25.0043 71.3856 25.0118 70.9301C24.9604 70.3078 24.9474 69.6829 24.9728 69.0591C25.0078 67.827 25.1728 66.5961 25.1838 65.364C25.1838 65.1591 25.0176 64.993 24.8127 64.993C24.6078 64.993 24.4418 65.1591 24.4418 65.364" fill="#003849"/>
<path fill-rule="evenodd" clip-rule="evenodd" d="M19.1287 69.3231C18.801 69.3418 18.5449 69.6129 18.5449 69.9411C18.5449 70.2693 18.801 70.5405 19.1287 70.5591C19.4564 70.5404 19.7125 70.2693 19.7125 69.9411C19.7125 69.6129 19.4564 69.3418 19.1287 69.3231Z" fill="#003849"/>
<path fill-rule="evenodd" clip-rule="evenodd" d="M20.8592 67.4641C20.5315 67.4828 20.2754 67.7539 20.2754 68.0821C20.2754 68.4103 20.5315 68.6815 20.8592 68.7001C21.1868 68.6814 21.4429 68.4103 21.4429 68.0821C21.4429 67.7539 21.1868 67.4828 20.8592 67.4641Z" fill="#003849"/>
<path fill-rule="evenodd" clip-rule="evenodd" d="M21.3533 70.0641C21.0256 70.0827 20.7695 70.3539 20.7695 70.6821C20.7695 71.0103 21.0256 71.2814 21.3533 71.3001C21.681 71.2814 21.9371 71.0103 21.9371 70.6821C21.9371 70.3539 21.681 70.0828 21.3533 70.0641Z" fill="#003849"/>
<path fill-rule="evenodd" clip-rule="evenodd" d="M29.0193 76.9891C28.6917 77.0078 28.4355 77.2789 28.4355 77.6071C28.4355 77.9353 28.6917 78.2065 29.0193 78.2251C29.347 78.2064 29.6031 77.9353 29.6031 77.6071C29.6031 77.279 29.347 77.0078 29.0193 76.9891Z" fill="#003849"/>
<path fill-rule="evenodd" clip-rule="evenodd" d="M30.7508 74.6351C30.4231 74.6538 30.167 74.9249 30.167 75.2531C30.167 75.5813 30.4231 75.8525 30.7508 75.8711C31.0784 75.8524 31.3345 75.5813 31.3345 75.2531C31.3345 74.925 31.0784 74.6538 30.7508 74.6351Z" fill="#003849"/>
<path fill-rule="evenodd" clip-rule="evenodd" d="M31.616 77.2361C31.2883 77.2547 31.0322 77.5259 31.0322 77.8541C31.0322 78.1823 31.2883 78.4534 31.616 78.4721C31.9437 78.4534 32.1998 78.1823 32.1998 77.8541C32.1998 77.5259 31.9437 77.2548 31.616 77.2361Z" fill="#003849"/>
<path fill-rule="evenodd" clip-rule="evenodd" d="M15.4187 95.4081C15.0911 95.4268 14.835 95.6979 14.835 96.0261C14.835 96.3542 15.0911 96.6254 15.4187 96.6441C15.7463 96.6254 16.0024 96.3542 16.0024 96.0261C16.0024 95.6979 15.7463 95.4268 15.4187 95.4081Z" fill="#003849"/>
<path fill-rule="evenodd" clip-rule="evenodd" d="M18.0154 94.6661C17.6877 94.6848 17.4316 94.956 17.4316 95.2841C17.4316 95.6123 17.6877 95.8835 18.0154 95.9021C18.343 95.8835 18.5991 95.6123 18.5991 95.2841C18.5991 94.956 18.343 94.6848 18.0154 94.6661Z" fill="#003849"/>
<path fill-rule="evenodd" clip-rule="evenodd" d="M6.88745 87.1281C6.55981 87.1467 6.30371 87.4179 6.30371 87.746C6.30371 88.0742 6.55981 88.3454 6.88745 88.364C7.21509 88.3454 7.47119 88.0742 7.47119 87.746C7.47119 87.4179 7.21509 87.1467 6.88745 87.1281Z" fill="#003849"/>
<path fill-rule="evenodd" clip-rule="evenodd" d="M7.38159 84.28C7.05396 84.2987 6.79785 84.5699 6.79785 84.898C6.79785 85.2262 7.05396 85.4973 7.38159 85.516C7.70923 85.4973 7.96533 85.2262 7.96533 84.898C7.96533 84.5699 7.70923 84.2987 7.38159 84.28Z" fill="#003849"/>
<path fill-rule="evenodd" clip-rule="evenodd" d="M36.8094 62.6461C36.4817 62.6648 36.2256 62.9359 36.2256 63.2641C36.2256 63.5923 36.4817 63.8635 36.8094 63.8821C37.137 63.8634 37.3931 63.5923 37.3931 63.2641C37.3931 62.9359 37.137 62.6648 36.8094 62.6461Z" fill="#003849"/>
<path fill-rule="evenodd" clip-rule="evenodd" d="M0.482361 133.288C0.095398 125.802 -0.729614 109.437 1.13336 101.974C4.63336 89.6271 9.52637 97.1591 11.2334 105.454C15.7474 91.4621 21.1204 77.5451 27.9434 96.6851C30.3434 94.9851 38.7544 82.0301 42.8584 88.6271C44.3584 91.3571 36.8494 99.8891 35.2334 102.521C40.3934 102.97 51.2454 103.744 44.0194 111.086C40.4064 114.757 32.5194 115.802 27.9904 118.007C33.4574 120.907 41.7574 125.101 31.8464 129.436C25.3244 132.679 7.64636 132.698 0.486389 133.287" fill="#003849"/>
<path fill-rule="evenodd" clip-rule="evenodd" d="M1.38965 134.179C11.6067 123.371 21.6107 112.352 31.1656 100.951C33.8083 97.7984 36.4127 94.6141 38.9786 91.3981C39.4697 90.7821 38.5997 89.8981 38.1036 90.5241C28.8397 102.147 19.0306 113.33 8.96167 124.259C6.16632 127.293 3.35101 130.308 0.515686 133.305C-0.0303345 133.883 0.842651 134.759 1.39069 134.179" fill="#5596A5"/>
<path fill-rule="evenodd" clip-rule="evenodd" d="M20.8595 95.659C20.8485 100.77 20.1215 105.884 20.6125 110.991C20.6244 111.327 20.8942 111.597 21.2305 111.609C26.5175 112.109 31.7755 110.884 37.0575 110.867C37.3851 110.848 37.6412 110.577 37.6412 110.249C37.6412 109.921 37.3851 109.65 37.0575 109.631C31.7755 109.648 26.5175 110.876 21.2305 110.373L21.8485 110.991C21.3575 105.884 22.0845 100.769 22.0955 95.659C22.0768 95.3314 21.8057 95.0752 21.4775 95.0752C21.1493 95.0752 20.8782 95.3314 20.8595 95.659Z" fill="#5596A5"/>
<path fill-rule="evenodd" clip-rule="evenodd" d="M7.0072 110.002C7.0072 115.316 6.69019 120.753 7.77118 125.993C7.84662 126.262 8.09198 126.448 8.37122 126.447C13.8652 126.208 19.3902 126.692 24.8572 125.93C25.6412 125.821 25.3082 124.63 24.5282 124.738C19.1802 125.483 13.7482 124.976 8.37122 125.21L8.97119 125.664C7.91418 120.54 8.24817 115.199 8.25116 110.002C8.23254 109.674 7.96136 109.418 7.63318 109.418C7.30499 109.418 7.03381 109.674 7.0152 110.002" fill="#5596A5"/>
<path fill-rule="evenodd" clip-rule="evenodd" d="M17.0255 104.129C16.525 104.146 16.1279 104.556 16.1279 105.057C16.1279 105.557 16.525 105.968 17.0254 105.984C17.5258 105.968 17.9229 105.557 17.9229 105.057C17.9229 104.556 17.5258 104.146 17.0255 104.129" fill="#5596A5"/>
<path fill-rule="evenodd" clip-rule="evenodd" d="M17.0255 99.4301C16.525 99.4465 16.1279 99.8569 16.1279 100.358C16.1279 100.858 16.525 101.269 17.0254 101.285C17.5258 101.269 17.9229 100.858 17.9229 100.358C17.9229 99.8569 17.5258 99.4465 17.0255 99.4301" fill="#5596A5"/>
<path fill-rule="evenodd" clip-rule="evenodd" d="M25.4336 100.172C24.9332 100.189 24.5361 100.599 24.5361 101.1C24.5361 101.6 24.9332 102.011 25.4336 102.027C25.934 102.011 26.3311 101.6 26.3311 101.1C26.3311 100.599 25.934 100.189 25.4337 100.172" fill="#5596A5"/>
<path fill-rule="evenodd" clip-rule="evenodd" d="M37.7979 105.365C37.2975 105.382 36.9004 105.792 36.9004 106.293C36.9004 106.793 37.2975 107.204 37.7979 107.22C38.2982 107.204 38.6954 106.793 38.6954 106.293C38.6954 105.792 38.2982 105.382 37.7979 105.365" fill="#5596A5"/>
<path fill-rule="evenodd" clip-rule="evenodd" d="M41.5068 106.849C41.0065 106.866 40.6094 107.276 40.6094 107.777C40.6094 108.277 41.0065 108.688 41.5068 108.704C42.0072 108.688 42.4044 108.277 42.4044 107.777C42.4044 107.276 42.0072 106.866 41.5068 106.849" fill="#5596A5"/>
<path fill-rule="evenodd" clip-rule="evenodd" d="M21.4766 118.472C20.9762 118.489 20.5791 118.899 20.5791 119.4C20.5791 119.9 20.9762 120.311 21.4766 120.327C21.977 120.311 22.3741 119.9 22.3741 119.4C22.3741 118.899 21.977 118.489 21.4766 118.472" fill="#5596A5"/>
<path fill-rule="evenodd" clip-rule="evenodd" d="M31.6152 123.418C31.1149 123.435 30.7178 123.845 30.7178 124.346C30.7178 124.846 31.1149 125.257 31.6152 125.273C32.1156 125.257 32.5128 124.846 32.5128 124.346C32.5128 123.845 32.1157 123.435 31.6153 123.418" fill="#5596A5"/>
<path fill-rule="evenodd" clip-rule="evenodd" d="M6.88672 101.903C6.38635 101.92 5.98926 102.33 5.98926 102.831C5.98926 103.331 6.38635 103.742 6.88672 103.758C7.38708 103.742 7.78424 103.331 7.78424 102.831C7.78424 102.33 7.38708 101.92 6.88672 101.903" fill="#5596A5"/>
<path fill-rule="evenodd" clip-rule="evenodd" d="M3.91895 119.708C3.41858 119.725 3.02148 120.135 3.02148 120.636C3.02148 121.136 3.41858 121.547 3.91895 121.563C4.41937 121.547 4.81647 121.136 4.81647 120.636C4.81647 120.135 4.41937 119.725 3.91895 119.708" fill="#5596A5"/>
<path fill-rule="evenodd" clip-rule="evenodd" d="M358.569 133.166C340.517 114.866 317.769 112.641 293.779 111.157C296.499 116.597 308.122 122.532 313.81 125.5C319.383 128.273 325.172 130.589 331.12 132.424C340.02 134.65 349.42 132.919 358.32 133.166" fill="#FFD066"/>
<path fill-rule="evenodd" clip-rule="evenodd" d="M357.927 132.808C350.486 130.052 343.062 127.236 335.52 124.764C328.26 122.385 320.851 120.589 313.514 118.479C309.426 117.352 305.417 115.955 301.514 114.299C301.081 114.11 300.702 114.749 301.14 114.939C308.016 117.946 315.318 119.766 322.546 121.701C330.188 123.748 337.693 126.187 345.133 128.873C349.344 130.394 353.533 131.968 357.733 133.523C358.181 133.689 358.374 132.972 357.933 132.807" fill="#003849"/>
<path fill-rule="evenodd" clip-rule="evenodd" d="M338.896 122.547C341.134 124.767 344.064 126.406 345.886 129.026L345.944 128.576C344.614 129.732 342.635 129.858 341.038 130.459C340.596 130.626 340.787 131.343 341.238 131.175C342.979 130.52 345.018 130.364 346.472 129.101C346.59 128.981 346.614 128.797 346.53 128.651C344.664 125.968 341.714 124.295 339.424 122.023C339.279 121.878 339.044 121.878 338.899 122.023C338.754 122.168 338.754 122.403 338.899 122.548" fill="#003849"/>
<path fill-rule="evenodd" clip-rule="evenodd" d="M329.441 118.887C330.976 121.039 332.99 122.815 334.387 125.069L334.609 124.523C331.498 125.288 328.238 125.387 325.209 126.501C324.765 126.665 324.957 127.382 325.409 127.217C328.435 126.102 331.695 126.003 334.809 125.239C334.919 125.207 335.009 125.127 335.052 125.02C335.096 124.914 335.088 124.793 335.031 124.693C333.631 122.437 331.62 120.664 330.085 118.511C329.81 118.126 329.166 118.496 329.444 118.886" fill="#003849"/>
<path fill-rule="evenodd" clip-rule="evenodd" d="M319.92 116.785C320.769 118.331 321.938 119.864 322.232 121.642L322.491 121.186C320.674 121.813 318.814 122.309 316.927 122.67C316.46 122.764 316.657 123.48 317.127 123.386C319.014 123.024 320.874 122.528 322.691 121.902C322.883 121.842 322.996 121.643 322.95 121.446C322.65 119.605 321.442 118.012 320.564 116.411C320.334 115.993 319.693 116.366 319.923 116.786" fill="#003849"/>
<path fill-rule="evenodd" clip-rule="evenodd" d="M310.484 115.46C310.909 116.513 311.28 117.586 311.597 118.675L311.768 118.256C310.752 118.686 309.707 119.046 308.641 119.331C308.19 119.48 308.383 120.197 308.841 120.047C309.967 119.74 311.069 119.356 312.141 118.897C312.284 118.811 312.354 118.641 312.311 118.479C311.995 117.389 311.624 116.316 311.198 115.264C311.047 114.813 310.329 115.007 310.483 115.464" fill="#003849"/>
<path fill-rule="evenodd" clip-rule="evenodd" d="M326.052 118.7C326.379 118.719 326.635 118.99 326.635 119.318C326.635 119.646 326.379 119.917 326.052 119.936C325.724 119.917 325.468 119.646 325.468 119.318C325.468 118.99 325.724 118.719 326.052 118.7Z" fill="#003849"/>
<path fill-rule="evenodd" clip-rule="evenodd" d="M324.443 116.969C324.771 116.988 325.027 117.259 325.027 117.587C325.027 117.915 324.771 118.186 324.443 118.205C324.115 118.186 323.859 117.915 323.859 117.587C323.859 117.259 324.115 116.988 324.443 116.969Z" fill="#003849"/>
<path fill-rule="evenodd" clip-rule="evenodd" d="M314.429 120.431C314.756 120.45 315.012 120.721 315.012 121.049C315.012 121.377 314.756 121.648 314.429 121.667C314.101 121.648 313.845 121.377 313.845 121.049C313.845 120.721 314.101 120.45 314.429 120.431Z" fill="#003849"/>
<path fill-rule="evenodd" clip-rule="evenodd" d="M312.697 121.42C313.025 121.439 313.281 121.71 313.281 122.038C313.281 122.366 313.025 122.637 312.697 122.656C312.37 122.637 312.113 122.366 312.113 122.038C312.113 121.71 312.37 121.439 312.697 121.42Z" fill="#003849"/>
<path fill-rule="evenodd" clip-rule="evenodd" d="M298.849 113.136C299.177 113.155 299.433 113.426 299.433 113.754C299.433 114.082 299.177 114.353 298.849 114.372C298.522 114.353 298.266 114.082 298.266 113.754C298.266 113.426 298.522 113.155 298.849 113.136Z" fill="#003849"/>
<path fill-rule="evenodd" clip-rule="evenodd" d="M373.552 113.216C374.294 99.6161 373.552 86.2611 365.143 74.8861C357.972 65.4861 345.608 57.8231 334.479 54.3611C334.726 66.7261 340.661 82.5521 348.579 91.9491C352.541 96.5699 357.022 100.719 361.933 104.314C365.395 107.034 369.105 111.485 373.557 112.475" fill="#5596A5"/>
<path fill-rule="evenodd" clip-rule="evenodd" d="M372.92 110.893C369.691 103.401 365.779 96.222 361.236 89.4461C359.074 86.1531 356.777 82.9601 354.536 79.7251C352.381 76.6201 350.376 73.4131 348.236 70.2951C345.998 66.8395 343.379 63.6465 340.428 60.7762C340.078 60.4531 339.552 60.9761 339.903 61.3001C345.346 66.3221 349.033 72.9561 353.154 79.0261C355.3 82.1861 357.56 85.2651 359.681 88.4421C361.902 91.7701 364.038 95.1561 366.021 98.6311C368.331 102.656 370.395 106.816 372.203 111.089C372.385 111.523 373.103 111.333 372.918 110.889" fill="#003849"/>
<path fill-rule="evenodd" clip-rule="evenodd" d="M369.349 93.8051C369.208 96.756 368.882 99.6952 368.373 102.605L368.731 102.332C367.177 102.384 365.627 102.142 364.163 101.619C362.659 101.155 361.191 100.584 359.769 99.9101C359.34 99.7101 358.962 100.347 359.395 100.55C360.873 101.254 362.401 101.85 363.965 102.334C365.493 102.877 367.11 103.128 368.731 103.074C368.897 103.071 369.042 102.961 369.089 102.801C369.61 99.825 369.944 96.8191 370.089 93.8011C370.111 93.3241 369.369 93.3251 369.347 93.8011" fill="#003849"/>
<path fill-rule="evenodd" clip-rule="evenodd" d="M362.794 81.5631C362.557 85.1781 363.449 88.9251 362.436 92.4691L362.794 92.1961C360.957 92.199 359.129 91.9221 357.375 91.3751C355.57 90.9143 353.837 90.2077 352.224 89.2751C351.816 89.0261 351.442 89.6671 351.85 89.9151C353.519 90.8784 355.311 91.6089 357.178 92.0861C358.996 92.6513 360.89 92.9372 362.794 92.9341C362.96 92.9305 363.105 92.8202 363.152 92.6611C364.185 89.0451 363.293 85.2441 363.536 81.5611C363.567 81.0841 362.825 81.0861 362.794 81.5611" fill="#003849"/>
<path fill-rule="evenodd" clip-rule="evenodd" d="M356.365 73.898C356.365 75.063 356.457 76.229 356.479 77.398C356.577 78.8405 356.502 80.2894 356.255 81.714C356.18 82.045 356.121 82.381 355.806 82.49C355.33 82.6013 354.837 82.6199 354.354 82.545C352.854 82.4017 351.367 82.1467 349.905 81.782C348.623 81.493 347.353 81.158 346.078 80.838C345.884 80.792 345.688 80.9076 345.634 81.0999C345.58 81.2923 345.688 81.4927 345.878 81.554C348.602 82.3507 351.386 82.9263 354.202 83.275C355.086 83.35 356.348 83.475 356.777 82.509C357.198 81.177 357.352 79.7747 357.228 78.383C357.228 76.883 357.111 75.395 357.104 73.901C357.104 73.6961 356.938 73.53 356.733 73.53C356.528 73.53 356.362 73.6961 356.362 73.901" fill="#003849"/>
<path fill-rule="evenodd" clip-rule="evenodd" d="M349.564 65.366C349.571 66.424 349.708 67.482 349.756 68.539C349.925 69.7025 349.84 70.8885 349.507 72.0161C349.186 72.742 347.913 72.381 347.325 72.262C346.012 71.9733 344.723 71.5869 343.467 71.106C342.332 70.693 341.205 70.248 340.107 69.744C339.676 69.5441 339.299 70.185 339.733 70.384C342.077 71.5171 344.541 72.3835 347.077 72.967C347.877 73.134 349.258 73.467 349.908 72.759C350.635 71.971 350.538 70.446 350.526 69.459C350.51 68.09 350.316 66.728 350.307 65.359C350.307 65.1541 350.141 64.988 349.936 64.988C349.731 64.988 349.565 65.1541 349.565 65.359" fill="#003849"/>
<path fill-rule="evenodd" clip-rule="evenodd" d="M355.623 69.3231C355.951 69.3418 356.207 69.6129 356.207 69.9411C356.207 70.2693 355.951 70.5405 355.623 70.5591C355.295 70.5404 355.039 70.2693 355.039 69.9411C355.039 69.6129 355.295 69.3418 355.623 69.3231Z" fill="#003849"/>
<path fill-rule="evenodd" clip-rule="evenodd" d="M353.891 67.4641C354.219 67.4828 354.475 67.7539 354.475 68.0821C354.475 68.4103 354.219 68.6815 353.891 68.7001C353.564 68.6814 353.308 68.4103 353.308 68.0821C353.308 67.7539 353.564 67.4828 353.891 67.4641Z" fill="#003849"/>
<path fill-rule="evenodd" clip-rule="evenodd" d="M353.397 70.0641C353.725 70.0827 353.981 70.3539 353.981 70.6821C353.981 71.0103 353.725 71.2814 353.397 71.3001C353.07 71.2814 352.813 71.0103 352.813 70.6821C352.813 70.3539 353.07 70.0828 353.397 70.0641Z" fill="#003849"/>
<path fill-rule="evenodd" clip-rule="evenodd" d="M345.731 76.9891C346.059 77.0078 346.315 77.2789 346.315 77.6071C346.315 77.9353 346.059 78.2065 345.731 78.2251C345.404 78.2064 345.147 77.9353 345.147 77.6071C345.147 77.279 345.404 77.0078 345.731 76.9891Z" fill="#003849"/>
<path fill-rule="evenodd" clip-rule="evenodd" d="M344 74.6351C344.328 74.6538 344.584 74.9249 344.584 75.2531C344.584 75.5813 344.328 75.8525 344 75.8711C343.672 75.8524 343.416 75.5813 343.416 75.2531C343.416 74.925 343.672 74.6538 344 74.6351Z" fill="#003849"/>
<path fill-rule="evenodd" clip-rule="evenodd" d="M343.135 77.2361C343.462 77.2547 343.719 77.5259 343.719 77.8541C343.719 78.1823 343.462 78.4534 343.135 78.4721C342.807 78.4534 342.551 78.1823 342.551 77.8541C342.551 77.5259 342.807 77.2548 343.135 77.2361Z" fill="#003849"/>
<path fill-rule="evenodd" clip-rule="evenodd" d="M359.332 95.4081C359.66 95.4268 359.916 95.6979 359.916 96.0261C359.916 96.3542 359.66 96.6254 359.332 96.6441C359.004 96.6254 358.748 96.3542 358.748 96.0261C358.748 95.6979 359.004 95.4268 359.332 95.4081Z" fill="#003849"/>
<path fill-rule="evenodd" clip-rule="evenodd" d="M356.735 94.6661C357.063 94.6848 357.319 94.956 357.319 95.2841C357.319 95.6123 357.063 95.8835 356.735 95.9021C356.407 95.8835 356.151 95.6123 356.151 95.2841C356.151 94.956 356.407 94.6848 356.735 94.6661Z" fill="#003849"/>
<path fill-rule="evenodd" clip-rule="evenodd" d="M367.863 87.1281C368.191 87.1467 368.447 87.4179 368.447 87.746C368.447 88.0742 368.191 88.3454 367.863 88.364C367.536 88.3454 367.279 88.0742 367.279 87.746C367.279 87.4179 367.536 87.1467 367.863 87.1281Z" fill="#003849"/>
<path fill-rule="evenodd" clip-rule="evenodd" d="M367.369 84.28C367.697 84.2987 367.953 84.5699 367.953 84.898C367.953 85.2262 367.697 85.4973 367.369 85.516C367.041 85.4973 366.785 85.2262 366.785 84.898C366.785 84.5699 367.041 84.2987 367.369 84.28Z" fill="#003849"/>
<path fill-rule="evenodd" clip-rule="evenodd" d="M337.941 62.6461C338.269 62.6648 338.525 62.9359 338.525 63.2641C338.525 63.5923 338.269 63.8635 337.941 63.8821C337.614 63.8634 337.357 63.5923 337.357 63.2641C337.357 62.9359 337.614 62.6648 337.941 62.6461Z" fill="#003849"/>
<path fill-rule="evenodd" clip-rule="evenodd" d="M374.268 133.288C374.656 125.802 375.481 109.437 373.617 101.974C370.117 89.6271 365.224 97.1591 363.517 105.454C359.004 91.4621 353.629 77.5451 346.807 96.6851C344.407 94.9851 335.996 82.0301 331.891 88.6271C330.397 91.3571 337.9 99.8891 339.517 102.521C334.356 102.97 323.505 103.744 330.731 111.086C334.344 114.757 342.231 115.802 346.761 118.007C341.295 120.907 332.994 125.101 342.905 129.436C349.427 132.679 367.105 132.698 374.265 133.287" fill="#003849"/>
<path fill-rule="evenodd" clip-rule="evenodd" d="M374.237 133.305C364.02 122.496 354.016 111.477 344.461 100.076C341.818 96.9235 339.214 93.7391 336.649 90.5231C336.149 89.9011 335.283 90.7811 335.774 91.3971C345.039 103.02 354.848 114.202 364.916 125.132C367.712 128.166 370.527 131.181 373.362 134.178C373.91 134.757 374.783 133.878 374.237 133.304" fill="#5596A5"/>
<path fill-rule="evenodd" clip-rule="evenodd" d="M352.655 95.6591C352.666 100.77 353.393 105.884 352.902 110.991L353.52 110.373C348.233 110.873 342.975 109.648 337.693 109.631C337.366 109.65 337.109 109.921 337.109 110.249C337.109 110.577 337.366 110.848 337.693 110.867C342.975 110.884 348.233 112.112 353.52 111.609C353.857 111.598 354.127 111.328 354.138 110.991C354.629 105.884 353.902 100.769 353.891 95.6591C353.873 95.3314 353.601 95.0751 353.273 95.0751C352.945 95.0751 352.674 95.3314 352.655 95.6591Z" fill="#5596A5"/>
<path fill-rule="evenodd" clip-rule="evenodd" d="M366.503 110.002C366.503 115.202 366.84 120.541 365.783 125.664L366.383 125.21C361.006 124.976 355.575 125.483 350.227 124.738C349.448 124.629 349.112 125.821 349.898 125.93C355.365 126.692 360.89 126.208 366.383 126.447C366.663 126.448 366.908 126.262 366.983 125.993C368.064 120.753 367.75 115.316 367.747 110.002C367.729 109.674 367.458 109.418 367.129 109.418C366.801 109.418 366.53 109.674 366.511 110.002" fill="#5596A5"/>
<path fill-rule="evenodd" clip-rule="evenodd" d="M357.726 104.129C358.226 104.146 358.623 104.556 358.623 105.057C358.623 105.557 358.226 105.968 357.726 105.984C357.225 105.968 356.828 105.557 356.828 105.057C356.828 104.556 357.225 104.146 357.726 104.129" fill="#5596A5"/>
<path fill-rule="evenodd" clip-rule="evenodd" d="M357.726 99.4301C358.226 99.4465 358.623 99.8569 358.623 100.358C358.623 100.858 358.226 101.269 357.726 101.285C357.225 101.269 356.828 100.858 356.828 100.358C356.828 99.8569 357.225 99.4465 357.726 99.4301" fill="#5596A5"/>
<path fill-rule="evenodd" clip-rule="evenodd" d="M349.317 100.172C349.818 100.189 350.215 100.599 350.215 101.1C350.215 101.6 349.818 102.011 349.317 102.027C348.817 102.011 348.42 101.6 348.42 101.1C348.42 100.599 348.817 100.189 349.317 100.172" fill="#5596A5"/>
<path fill-rule="evenodd" clip-rule="evenodd" d="M336.952 105.365C337.453 105.382 337.85 105.792 337.85 106.293C337.85 106.793 337.453 107.204 336.952 107.22C336.452 107.204 336.055 106.793 336.055 106.293C336.055 105.792 336.452 105.382 336.952 105.365" fill="#5596A5"/>
<path fill-rule="evenodd" clip-rule="evenodd" d="M333.243 106.849C333.743 106.866 334.141 107.276 334.141 107.777C334.141 108.277 333.743 108.688 333.243 108.704C332.743 108.688 332.346 108.277 332.346 107.777C332.346 107.276 332.743 106.866 333.243 106.849" fill="#5596A5"/>
<path fill-rule="evenodd" clip-rule="evenodd" d="M353.274 118.472C353.775 118.489 354.172 118.899 354.172 119.4C354.172 119.9 353.775 120.311 353.274 120.327C352.774 120.311 352.377 119.9 352.377 119.4C352.377 118.899 352.774 118.489 353.274 118.472" fill="#5596A5"/>
<path fill-rule="evenodd" clip-rule="evenodd" d="M343.136 123.418C343.636 123.435 344.033 123.845 344.033 124.346C344.033 124.846 343.636 125.257 343.136 125.273C342.635 125.257 342.238 124.846 342.238 124.346C342.238 123.845 342.635 123.435 343.136 123.418" fill="#5596A5"/>
<path fill-rule="evenodd" clip-rule="evenodd" d="M367.864 101.903C368.365 101.92 368.762 102.33 368.762 102.831C368.762 103.331 368.365 103.742 367.864 103.758C367.364 103.742 366.967 103.331 366.967 102.831C366.967 102.33 367.364 101.92 367.864 101.903" fill="#5596A5"/>
<path fill-rule="evenodd" clip-rule="evenodd" d="M370.831 119.708C371.331 119.725 371.729 120.135 371.729 120.636C371.729 121.136 371.331 121.547 370.831 121.563C370.331 121.547 369.934 121.136 369.934 120.636C369.934 120.135 370.331 119.725 370.831 119.708" fill="#5596A5"/>
<path fill-rule="evenodd" clip-rule="evenodd" d="M160.703 134.237C160.332 128.797 159.467 123.851 161.198 118.537C161.693 117.177 162.929 112.478 165.031 113.468C166.515 114.086 166.267 118.043 166.762 119.279C168.988 116.806 168.988 112.479 171.708 110.253C175.417 107.038 174.181 112.853 174.308 114.953C176.781 113.84 180.614 106.298 183.952 107.411C187.043 108.524 179.377 115.695 178.512 117.179C179.996 117.426 181.603 116.437 183.212 116.561C185.561 116.685 186.427 118.168 184.201 119.652C181.852 121.012 175.793 120.888 174.801 123.852C176.285 124.594 182.838 122.986 182.467 126.201C182.096 128.55 176.161 128.921 174.43 129.416C169.608 130.652 165.53 132.631 161.076 134.609" fill="#4094A8"/>
<path fill-rule="evenodd" clip-rule="evenodd" d="M161.216 134.269C165.759 127.345 172.003 121.846 177.525 115.746C179.044 114.068 180.503 112.337 181.865 110.529C182.104 110.211 181.565 109.902 181.331 110.217C176.372 116.803 170.057 122.186 164.773 128.491C163.304 130.232 161.938 132.057 160.682 133.957C160.463 134.291 160.999 134.601 161.216 134.269" fill="#003849"/>
<path fill-rule="evenodd" clip-rule="evenodd" d="M170.914 114.123C170.218 116.939 169.923 119.839 170.038 122.737C170.04 122.833 170.085 122.923 170.161 122.982C170.238 123.04 170.337 123.061 170.43 123.037C174.243 122.229 177.769 120.477 181.43 119.204C181.803 119.074 181.642 118.477 181.265 118.604C177.6 119.877 174.073 121.629 170.265 122.437L170.656 122.737C170.541 119.895 170.829 117.05 171.511 114.288C171.588 113.9 170.992 113.733 170.911 114.124" fill="#003849"/>
<path fill-rule="evenodd" clip-rule="evenodd" d="M163.856 119.276C164.201 122.562 164.367 125.864 164.351 129.168C164.351 129.265 164.396 129.356 164.473 129.414C164.55 129.473 164.649 129.493 164.743 129.468C168.484 128.364 172.281 127.456 176.118 126.748C176.508 126.674 176.343 126.078 175.953 126.148C172.116 126.857 168.319 127.765 164.578 128.868L164.969 129.168C164.985 125.864 164.819 122.561 164.474 119.276C164.444 118.882 163.826 118.876 163.856 119.276Z" fill="#003849"/>
<path fill-rule="evenodd" clip-rule="evenodd" d="M140.731 98.2301C155.419 104.689 164.383 122.769 161.498 135.695C143.713 130.73 141.031 113.588 140.731 98.2301Z" fill="#003849"/>
<path fill-rule="evenodd" clip-rule="evenodd" d="M144.239 103.482C148.739 111.631 152.379 120.207 156.639 128.475C157.839 130.81 159.1 133.119 160.433 135.383C160.519 135.531 160.708 135.58 160.856 135.494C161.003 135.408 161.053 135.219 160.967 135.071C156.251 127.063 152.561 118.52 148.436 110.206C147.26 107.836 146.047 105.486 144.769 103.17C144.577 102.822 144.042 103.133 144.235 103.482" fill="#4094A8"/>
<path fill-rule="evenodd" clip-rule="evenodd" d="M144.299 110.918C145.978 111.569 147.607 112.344 149.171 113.236C149.255 113.283 149.355 113.29 149.444 113.254C149.532 113.218 149.6 113.143 149.626 113.051C150.026 111.113 149.757 109.113 150.007 107.158C150.058 106.765 149.439 106.768 149.389 107.158C149.146 109.058 149.42 111.007 149.029 112.887L149.483 112.702C147.872 111.786 146.194 110.99 144.464 110.322C144.089 110.186 143.927 110.784 144.299 110.922" fill="#4094A8"/>
<path fill-rule="evenodd" clip-rule="evenodd" d="M145.66 117.224C148.013 118.091 150.36 118.966 152.634 120.037C152.717 120.084 152.817 120.091 152.906 120.055C152.995 120.019 153.062 119.944 153.089 119.852C153.467 117.615 153.718 115.358 153.841 113.093C153.865 112.693 153.247 112.693 153.223 113.093C153.104 115.304 152.859 117.505 152.492 119.688L152.946 119.503C150.628 118.41 148.228 117.514 145.825 116.628C145.451 116.491 145.29 117.087 145.66 117.228" fill="#4094A8"/>
<path fill-rule="evenodd" clip-rule="evenodd" d="M149.121 124.766C151.48 125.756 153.893 126.603 156.292 127.486C156.457 127.528 156.624 127.432 156.673 127.27C157.392 125.333 157.853 123.31 158.043 121.253C158.096 120.86 157.477 120.864 157.425 121.253C157.235 123.255 156.782 125.223 156.076 127.106L156.457 126.89C154.057 126.007 151.644 125.159 149.286 124.17C148.92 124.016 148.76 124.614 149.121 124.77" fill="#4094A8"/>
<path fill-rule="evenodd" clip-rule="evenodd" d="M228.899 118.548C224.151 109.671 209.399 110.522 205.839 119.862C205.317 121.239 205.115 122.716 205.246 124.183C204.969 126.204 205.304 128.261 206.208 130.09C207.899 133.567 212.008 135.296 215.636 135.657C224.656 136.557 233.65 127.431 228.899 118.549" fill="#FFD066"/>
<path fill-rule="evenodd" clip-rule="evenodd" d="M216.767 125.395C217.614 125.428 218.843 125.305 219.073 124.295C219.136 123.456 218.763 122.644 218.087 122.145C217.373 121.457 216.39 121.121 215.405 121.228C214.226 121.54 213.314 122.476 213.033 123.662C212.497 124.936 212.673 126.397 213.496 127.507C214.362 128.428 215.551 128.978 216.814 129.042C219.849 129.355 222.964 127.753 223.557 124.561C224.296 120.578 220.719 117.261 217.147 116.415C213.883 115.645 210.469 116.704 209 119.894C207.49 123.173 208.27 127.433 210.042 130.462C210.928 132.076 212.444 133.25 214.228 133.705C216.251 134.094 218.337 134.004 220.319 133.443C222.264 133.004 224.034 131.995 225.402 130.543C226.432 129.329 227.1 127.85 227.328 126.274C227.828 123.154 227.006 119.49 224.503 117.386C223.908 116.889 223.235 116.497 222.51 116.225C222.138 116.083 221.977 116.681 222.345 116.825C228 118.979 228.275 128.058 223.614 131.325C222.055 132.354 220.271 132.992 218.414 133.186C216.617 133.535 214.757 133.343 213.069 132.635C211.653 131.819 210.566 130.535 209.995 129.004C209.289 127.398 208.894 125.673 208.831 123.92C208.773 121.102 209.994 118.093 212.841 117.113C216.174 116.147 219.757 117.353 221.829 120.138C222.892 121.501 223.262 123.281 222.829 124.954C222.423 126.328 221.414 127.444 220.088 127.985C218.188 128.759 215.038 128.807 213.778 126.858C212.72 125.221 213.755 121.499 216.119 121.838C216.909 121.978 217.616 122.416 218.095 123.061C218.42 123.495 218.739 124.208 218.154 124.568C217.721 124.768 217.24 124.842 216.768 124.78C216.368 124.764 216.368 125.38 216.768 125.398" fill="#003849"/>
<path fill-rule="evenodd" clip-rule="evenodd" d="M217.699 102.434V110.306C217.699 110.477 217.923 110.615 218.199 110.615C218.475 110.615 218.699 110.477 218.699 110.306V102.434C218.699 102.263 218.475 102.125 218.199 102.125C217.923 102.125 217.699 102.263 217.699 102.434Z" fill="#003849"/>
<path fill-rule="evenodd" clip-rule="evenodd" d="M208.262 109.423L210.192 111.357C210.313 111.478 210.509 111.478 210.629 111.357C210.75 111.236 210.75 111.04 210.629 110.919L208.696 108.985C208.575 108.864 208.379 108.865 208.258 108.986C208.138 109.107 208.138 109.302 208.259 109.423" fill="#003849"/>
<path fill-rule="evenodd" clip-rule="evenodd" d="M228.287 109.399L225.939 111.747C225.831 111.87 225.836 112.055 225.952 112.171C226.067 112.287 226.253 112.293 226.376 112.185L228.724 109.837C228.832 109.714 228.826 109.529 228.711 109.413C228.595 109.297 228.41 109.291 228.287 109.399Z" fill="#003849"/>
<path fill-rule="evenodd" clip-rule="evenodd" d="M198.179 118.754C199.845 119.31 201.554 119.725 203.289 119.997C203.678 120.057 203.846 119.462 203.454 119.397C201.719 119.126 200.01 118.71 198.344 118.154C197.965 118.028 197.803 118.625 198.179 118.754Z" fill="#003849"/>
<path fill-rule="evenodd" clip-rule="evenodd" d="M233.145 120.412C234.845 120.133 236.555 119.981 238.255 119.722C238.647 119.662 238.48 119.067 238.09 119.122C236.39 119.382 234.677 119.533 232.98 119.812C232.589 119.877 232.755 120.472 233.145 120.412Z" fill="#003849"/>
<path fill-rule="evenodd" clip-rule="evenodd" d="M233.338 128.08C234.078 128.08 234.809 128.258 235.548 128.262C235.719 128.261 235.856 128.079 235.856 127.853C235.856 127.628 235.719 127.445 235.548 127.445C234.809 127.445 234.078 127.265 233.338 127.262C233.228 127.262 233.125 127.339 233.07 127.466C233.014 127.593 233.014 127.749 233.07 127.876C233.125 128.002 233.228 128.08 233.338 128.08" fill="#003849"/>
<path fill-rule="evenodd" clip-rule="evenodd" d="M200.609 128.398C201.559 128.421 202.51 128.355 203.453 128.202C203.617 128.141 203.714 127.917 203.669 127.7C203.62 127.487 203.453 127.361 203.289 127.415C202.4 127.553 201.504 127.609 200.609 127.583C200.438 127.583 200.3 127.765 200.3 127.99C200.3 128.216 200.438 128.398 200.609 128.398" fill="#003849"/>
<path fill-rule="evenodd" clip-rule="evenodd" d="M54.0777 27.5941C53.3587 24.3561 50.7536 17.4901 46.6197 17.6121C41.7727 17.7581 43.1717 26.8621 43.4067 29.7361C43.5357 31.3141 46.0066 31.3271 45.8797 29.7361C45.8477 29.3361 45.7187 28.0531 45.6416 26.5461C45.9306 26.7404 46.2974 26.7779 46.6197 26.6461C47.9776 26.1621 49.3847 25.9081 50.7107 25.3461C51.1316 26.2827 51.4607 27.258 51.6936 28.2581C52.0397 29.8141 54.4237 29.1581 54.0777 27.6001M45.9627 24.2581C45.8251 24.3079 45.697 24.3806 45.5837 24.4731C45.5837 22.1271 45.8396 19.9331 46.8497 20.0731C48.0387 20.2381 48.9937 21.9131 49.6267 23.1331C48.4577 23.6471 47.1637 23.8331 45.9627 24.2571" fill="#D67676"/>
<path fill-rule="evenodd" clip-rule="evenodd" d="M121.5 88.657C120.113 89.67 118.567 89.682 117.629 88.103C116.629 86.414 117.855 84.976 119.486 84.487C120.118 84.2842 120.477 83.6193 120.301 82.9795C120.125 82.3398 119.475 81.9527 118.829 82.1021C115.773 83.017 113.865 85.902 115.315 88.992C115.931 90.353 117.141 91.3541 118.593 91.7057C120.045 92.0573 121.578 91.7203 122.749 90.7921C124.024 89.863 122.792 87.715 121.501 88.657" fill="#4094A8"/>
<path fill-rule="evenodd" clip-rule="evenodd" d="M71.7934 67.769C71.34 67.7847 70.9805 68.1568 70.9805 68.6105C70.9805 69.0643 71.34 69.4364 71.7934 69.452C72.2469 69.4364 72.6064 69.0643 72.6064 68.6105C72.6064 68.1568 72.2469 67.7847 71.7934 67.769Z" fill="#4094A8"/>
<path fill-rule="evenodd" clip-rule="evenodd" d="M73.3042 65.2451C72.8508 65.2608 72.4912 65.6329 72.4912 66.0866C72.4912 66.5403 72.8508 66.9125 73.3042 66.9281C73.7576 66.9125 74.1171 66.5403 74.1171 66.0866C74.1171 65.6329 73.7576 65.2608 73.3042 65.2451Z" fill="#4094A8"/>
<path fill-rule="evenodd" clip-rule="evenodd" d="M74.4829 68.1051C74.0294 68.1208 73.6699 68.4929 73.6699 68.9466C73.6699 69.4003 74.0294 69.7725 74.4829 69.7881C74.9363 69.7725 75.2958 69.4003 75.2958 68.9466C75.2958 68.4929 74.9363 68.1208 74.4829 68.1051Z" fill="#4094A8"/>
<path fill-rule="evenodd" clip-rule="evenodd" d="M313.908 99.2701C313.454 99.2858 313.095 99.6579 313.095 100.112C313.095 100.565 313.454 100.937 313.908 100.953C314.361 100.937 314.72 100.565 314.72 100.112C314.72 99.658 314.361 99.2859 313.908 99.2701Z" fill="#4094A8"/>
<path fill-rule="evenodd" clip-rule="evenodd" d="M315.425 96.7421C314.972 96.7577 314.612 97.1299 314.612 97.5836C314.612 98.0373 314.972 98.4094 315.425 98.4251C315.879 98.4094 316.238 98.0373 316.238 97.5836C316.238 97.1299 315.879 96.7577 315.425 96.7421" fill="#4094A8"/>
<path fill-rule="evenodd" clip-rule="evenodd" d="M316.6 99.6021C316.147 99.6177 315.787 99.9898 315.787 100.444C315.787 100.897 316.147 101.269 316.6 101.285C317.053 101.269 317.413 100.897 317.413 100.444C317.413 99.9898 317.053 99.6177 316.6 99.6021" fill="#4094A8"/>
<g opacity="0.3">
<mask id="mask2_0_1681" style="mask-type:luminance" maskUnits="userSpaceOnUse" x="172" y="57" width="49" height="26">
<rect x="172.572" y="57.1261" width="48.029" height="25.043" fill="white"/>
</mask>
<g mask="url(#mask2_0_1681)">
<path fill-rule="evenodd" clip-rule="evenodd" d="M206.172 81.7121C197.669 82.3533 189.129 82.3218 180.631 81.6181C170.563 80.7771 169.412 69.3311 180.107 72.8711C174.941 60.3501 185.133 53.7991 192.651 66.3611C193.561 52.2611 211.322 55.2491 207.058 68.9561C212.485 66.0231 222.2 67.8671 220.373 76.5741C219.273 82.2691 210.873 81.7911 206.173 81.7121" fill="#90CCD6"/>
</g>
</g>
</g>
</g>
</svg>
